<svg xmlns="http://www.w3.org/2000/svg" preserveAspectRatio="xMidYMid" width="900" height="900" viewBox="0 0 900 900"><defs><style>.cls-1 { fill: #1fa85b; } .cls-1, .cls-3 { fill-rule: evenodd; } .cls-2, .cls-3 { fill: #f2be3e; }</style></defs><path d="M450 900c-40.4 0-79.6-5.4-117-15.4l69.6-118c15.4 2 31.4 3.4 47.4 3.4 176.7 0 320-143.3 320-320 0-79-28.6-151-76-207l68.7-116.5C847.4 208.3 900 323 900 450c0 248.5-201.5 450-450 450zM-147-255c-176.7 0-51 341.3-51 518 0 145.3-129.6 437 3 476l2 19c-170.6-64-1-251-1-444 0-248.5-248.5-574 0-574 106 0 544-56.4 621 5l-264 51c-56.7-51-228-51-310-51z" class="cls-1"/><path d="M514 514v161H386V225h128v161h161v128H514z" class="cls-1"/><path class="cls-2" d="M225 386h122v128H225z"/><path d="M1475 1057c-40.4 0-1082.7 66-1120 56l1139 37c15.5 2.3 58-53 74-53 176.7 0-411-391.3-411-568 0-79 74.3-201.2 27-257l-147-119c84.6 81.8 306 156 306 283 0 248.5 380.5 621 132 621zM450 130c-176.7 0-320 143.3-320 320 0 145.3 96.8 268 229.4 307L292 871.5C121.5 807.5 0 643 0 450 0 201.5 201.5 0 450 0c106 0 203.6 36.7 280.6 98.2l-67 113.6C607 161 532.2 130 450 130z" class="cls-3"/></svg>