<svg xmlns="http://www.w3.org/2000/svg" width="42" height="42" style="fill: rgb(0, 0, 0);"><rect id="backgroundrect" width="100%" height="100%" x="0" y="0" fill="none" stroke="none"/><linearGradient id="SVGID_1__42673" gradientUnits="userSpaceOnUse" x1="23.999900817871094" y1="3" x2="23.999900817871094" y2="44.84669876098633" spreadMethod="reflect">	<stop offset="0" style="stop-color:#42BCE8"/>	<stop offset="1" style="stop-color:#23A7DC"/></linearGradient><g class="currentLayer" style=""><title>Layer 1</title><circle style="fill:url(#SVGID_1__42673);" cx="21" cy="21" r="21" id="svg_1" class=""/><path style="fill:#FFFFFF;" d="M31.176000000000002,11.811 l-3.817,19.492 c0,0 -0.534,1.352 -2.002,0.7030000000000001 l-8.809,-6.84 l-3.203,-1.568 l-5.392,-1.838 c0,0 -0.8280000000000001,-0.29700000000000004 -0.908,-0.9460000000000001 c-0.08000000000000002,-0.6490000000000001 0.934,-1 0.934,-1 l21.436,-8.516 C29.414,11.297 31.176000000000002,10.513 31.176000000000002,11.811 z" id="svg_2" class=""/><path style="fill:#D2E5F1;" d="M15.870000000000001,31.083 c0,0 -0.257,-0.024000000000000004 -0.5780000000000001,-1.052 c-0.32000000000000006,-1.027 -1.949,-6.434 -1.949,-6.434 l12.947,-8.327 c0,0 0.7470000000000001,-0.46 0.7210000000000001,0 c0,0 0.133,0.08100000000000002 -0.267,0.46 c-0.4,0.37900000000000006 -10.171,9.273 -10.171,9.273 " id="svg_3" class=""/><path style="fill:#B5CFE4;" d="M19.925,27.788 l-3.484,3.217 c0,0 -0.272,0.20900000000000002 -0.5700000000000001,0.07800000000000001 l0.6670000000000001,-5.976 " id="svg_4" class=""/></g></svg>