<svg xmlns="http://www.w3.org/2000/svg" viewBox="0 0 234 208" id="el_k3KMWQrdj" height="208" width="234"><style>@-webkit-keyframes kf_el_wrG-yO4WK3Z_an_n_UF8kvra{0%{-webkit-transform: translate(53.86000061035156px, 195.83999633789062px) translate(-53.86000061035156px, -195.83999633789062px) translate(0px, 0px);transform: translate(53.86000061035156px, 195.83999633789062px) translate(-53.86000061035156px, -195.83999633789062px) translate(0px, 0px);}100%{-webkit-transform: translate(53.86000061035156px, 195.83999633789062px) translate(-53.86000061035156px, -195.83999633789062px) translate(0px, -30px);transform: translate(53.86000061035156px, 195.83999633789062px) translate(-53.86000061035156px, -195.83999633789062px) translate(0px, -30px);}}@keyframes kf_el_wrG-yO4WK3Z_an_n_UF8kvra{0%{-webkit-transform: translate(53.86000061035156px, 195.83999633789062px) translate(-53.86000061035156px, -195.83999633789062px) translate(0px, 0px);transform: translate(53.86000061035156px, 195.83999633789062px) translate(-53.86000061035156px, -195.83999633789062px) translate(0px, 0px);}100%{-webkit-transform: translate(53.86000061035156px, 195.83999633789062px) translate(-53.86000061035156px, -195.83999633789062px) translate(0px, -30px);transform: translate(53.86000061035156px, 195.83999633789062px) translate(-53.86000061035156px, -195.83999633789062px) translate(0px, -30px);}}@-webkit-keyframes kf_el_wrG-yO4WK3Z_an_jUIVCYDBX{0%{opacity: 0;}16.67%{opacity: 1;}83.33%{opacity: 1;}100%{opacity: 0;}}@keyframes kf_el_wrG-yO4WK3Z_an_jUIVCYDBX{0%{opacity: 0;}16.67%{opacity: 1;}83.33%{opacity: 1;}100%{opacity: 0;}}@-webkit-keyframes kf_el_a9j-3nc8KJZ_an_K6ZYB2uiW{0%{opacity: 1;}100%{opacity: 0;}}@keyframes kf_el_a9j-3nc8KJZ_an_K6ZYB2uiW{0%{opacity: 1;}100%{opacity: 0;}}@-webkit-keyframes kf_el_a9j-3nc8KJZ_an_1J74DCMzT{0%{-webkit-transform: translate(115.2699966430664px, 89.0999984741211px) translate(-115.2699966430664px, -89.0999984741211px) translate(0px, 0px);transform: translate(115.2699966430664px, 89.0999984741211px) translate(-115.2699966430664px, -89.0999984741211px) translate(0px, 0px);}100%{-webkit-transform: translate(115.2699966430664px, 89.0999984741211px) translate(-115.2699966430664px, -89.0999984741211px) translate(0px, -20px);transform: translate(115.2699966430664px, 89.0999984741211px) translate(-115.2699966430664px, -89.0999984741211px) translate(0px, -20px);}}@keyframes kf_el_a9j-3nc8KJZ_an_1J74DCMzT{0%{-webkit-transform: translate(115.2699966430664px, 89.0999984741211px) translate(-115.2699966430664px, -89.0999984741211px) translate(0px, 0px);transform: translate(115.2699966430664px, 89.0999984741211px) translate(-115.2699966430664px, -89.0999984741211px) translate(0px, 0px);}100%{-webkit-transform: translate(115.2699966430664px, 89.0999984741211px) translate(-115.2699966430664px, -89.0999984741211px) translate(0px, -20px);transform: translate(115.2699966430664px, 89.0999984741211px) translate(-115.2699966430664px, -89.0999984741211px) translate(0px, -20px);}}#el_k3KMWQrdj *{-webkit-animation-duration: 3s;animation-duration: 3s;-webkit-animation-iteration-count: infinite;animation-iteration-count: infinite;-webkit-animation-timing-function: cubic-bezier(0, 0, 1, 1);animation-timing-function: cubic-bezier(0, 0, 1, 1);}#el_mvYAdt-JWl{fill: #f0c433;}#el_XRgq7KGnuu{fill: #fff;}#el_aH3k_t5cRP{fill: #fff;}#el_GVNaso0FDB{fill: #fff;}#el_6N5NQSU6Ky{fill: #fff;}#el_CYDUFrcEND{fill: #fff;}#el_l6dmtwqvlQ{fill: #fff;}#el_Gbe17_seYq{fill: #fff;}#el_hgjQZOfVQi{fill: #fff;}#el_uRoZi1yyRa{fill: #fff;}#el_G1Mf7XsJsq{fill: #fff;}#el_nZkk7rOpyT{fill: #fff;}#el_POnhhceKCd{fill: #fff;}#el_OxFwgWn1RnN{fill: #fff;}#el_acHBJkLo5A9{fill: #fff;}#el_l4cI2_hIgvG{fill: #fff;}#el_OjAg1eeaDM8{fill: #fff;}#el_RI2hHzcfjbm{fill: #fff;}#el_UB3vJE9mEEv{fill: #fff;}#el_AodFIO4hpde{fill: #fff;}#el_0TFx2VCJzSR{fill: #fff;}#el_1466dnQUXam{fill: #fff;}#el_0r10krb7IvJ{fill: #fff;}#el_qgMipRnZeqj{fill: #fff;}#el_zXg7GL94h1q{fill: #fff;}#el_Djouea1Kug_{fill: #fff;}#el_8I_kesWQFS0{fill: #fff;}#el_mlcgV9Nzl1W{fill: #fff;}#el_E5HXnV0AhEK{fill: #fff;}#el__BUJ8QmOoqx{fill: #fff;}#el_yRYuW-KQAMb{fill: #fff;}#el_MvHSmY2h0xR{fill: #fff;}#el_v-3fgOt-shi{fill: #fff;}#el_7wHOFlqjwvx{fill: #fff;}#el_01q_xaYjNsk{fill: #fff;}#el_VDyyyoqLAFT{fill: #fff;}#el_U8lYZud3n8j{fill: #fff;}#el__KrfSYaCc_9{fill: #fff;}#el_-_IBPOhkKnd{fill: #fff;}#el_XhF_dpygOsI{fill: #fff;}#el_MPubiLIB0qq{fill: #fff;}#el_TEve3AvyceS{fill: #fff;}#el_nSl3iw4JoaK{fill: #fff;}#el_nwNDi-nGOHH{fill: #fff;}#el_kMHsS9EJ3SH{fill: #fff;}#el_iaszm7jqTAv{fill: #fff;}#el_wjlGW08XSBF{fill: #fff;}#el_sVYm5g4uNXI{fill: #fff;}#el_ZYJGoC7UtJw{fill: #fff;}#el_eskB2rhIcbx{fill: #fff;}#el_IaP06f93WWw{fill: #fff;}#el_vVuq8HToN8Z{fill: #fff;}#el_XpLntKHpwc3{fill: #fff;}#el_rtn7wALGU6n{fill: #fff;}#el_vxcgKvk8WUo{fill: #fff;}#el_bOATOBUUSq5{fill: #fff;}#el_Rx_90QZCHgU{fill: #fff;}#el_VZXsX8wK6bX{fill: #fff;}#el_dPneafek1wt{fill: #fff;}#el_dFTso3fI5OR{fill: #fff;}#el_wsMcW7_kMDT{fill: #fff;}#el_9l78-3PuomO{fill: #fff;}#el_bsTiCqo2nPB{fill: #fff;}#el_x-EWHzrp3oB{fill: #fff;}#el_2E6NyChBBs9{fill: #fff;}#el_1WGJNP-olaX{fill: #fff;}#el_pcxjUzCRYhx{fill: #fff;}#el_CIwqjsyA1yG{fill: #fff;}#el_hmqxjFaBelK{fill: #fff;}#el_Xcaabrc05jq{fill: #fff;}#el_dTqPr7poddd{fill: #fff;}#el_PyHFmENNDRT{fill: #fff;}#el_QhtwF6ZjiVs{fill: #fff;}#el_iARaacor-Yx{fill: #fff;}#el_Hc8jFwZTZGB{fill: #fff;}#el_clspoEsut7p{fill: #fff;}#el_2iAGSNkK2ox{fill: #fff;}#el_6eDzMcs9vji{fill: #fff;}#el_lrvQHzUPngE{fill: #fff;}#el_etxdx1332yO{fill: #fff;}#el_H-NWTvvVFYf{fill: #fff;}#el_wrG-yO4WK3Z{fill: #fff;-webkit-animation-fill-mode: backwards;animation-fill-mode: backwards;opacity: 0;-webkit-animation-name: kf_el_wrG-yO4WK3Z_an_jUIVCYDBX;animation-name: kf_el_wrG-yO4WK3Z_an_jUIVCYDBX;-webkit-animation-timing-function: cubic-bezier(0, 0, 1, 1);animation-timing-function: cubic-bezier(0, 0, 1, 1);}#el_pANYqLXMcRD{fill: #fff;}#el_od2zqt-lJrW{fill: #fff;}#el_rernb8bh7xQ{fill: #fff;}#el_SbOs_5jj_Si{fill: #fff;}#el_SX_SomBR63E{fill: #fff;}#el_acjxv-VaoxA{fill: #fff;}#el_iC3ZE2_gRNL{fill: #fff;}#el_Zr2758jWAzw{fill: #fff;}#el_a9j-3nc8KJZ{fill: #fff;-webkit-animation-fill-mode: backwards;animation-fill-mode: backwards;opacity: 1;-webkit-animation-name: kf_el_a9j-3nc8KJZ_an_K6ZYB2uiW;animation-name: kf_el_a9j-3nc8KJZ_an_K6ZYB2uiW;-webkit-animation-timing-function: cubic-bezier(0, 0, 1, 1);animation-timing-function: cubic-bezier(0, 0, 1, 1);}#el_IpNiEaaHNVF{fill: #fff;}#el_BOE3Dy7m8Tz{fill: #fff;}#el_ol8zvEJXJcc{fill: #fff;}#el_XKmlCrZTe8p{fill: #fff;}#el_1Blc9Cps9fB{fill: #fff;}#el_QDZ1_7FXTDO{fill: #fff;}#el_O1nTEXp9Z5u{fill: #fff;}#el_fXcawn-sL8z{fill: #fff;}#el_4dWJUs23nmY{fill: #fff;}#el_oexfKF4lmDr{fill: #fff;}#el_a9j-3nc8KJZ_an_1J74DCMzT{-webkit-transform: translate(115.2699966430664px, 89.0999984741211px) translate(-115.2699966430664px, -89.0999984741211px) translate(0px, 0px);transform: translate(115.2699966430664px, 89.0999984741211px) translate(-115.2699966430664px, -89.0999984741211px) translate(0px, 0px);-webkit-animation-fill-mode: backwards;animation-fill-mode: backwards;-webkit-animation-name: kf_el_a9j-3nc8KJZ_an_1J74DCMzT;animation-name: kf_el_a9j-3nc8KJZ_an_1J74DCMzT;-webkit-animation-timing-function: cubic-bezier(0, 0, 1, 1);animation-timing-function: cubic-bezier(0, 0, 1, 1);}#el_wrG-yO4WK3Z_an_n_UF8kvra{-webkit-animation-fill-mode: backwards;animation-fill-mode: backwards;-webkit-transform: translate(53.86000061035156px, 195.83999633789062px) translate(-53.86000061035156px, -195.83999633789062px) translate(0px, 0px);transform: translate(53.86000061035156px, 195.83999633789062px) translate(-53.86000061035156px, -195.83999633789062px) translate(0px, 0px);-webkit-animation-name: kf_el_wrG-yO4WK3Z_an_n_UF8kvra;animation-name: kf_el_wrG-yO4WK3Z_an_n_UF8kvra;-webkit-animation-timing-function: cubic-bezier(0, 0, 1, 1);animation-timing-function: cubic-bezier(0, 0, 1, 1);}</style><defs/><title>Ресурс 5</title><g id="el_lDKEdk6Vly" data-name="Слой 2"><g id="el_pFfK3_Vap1" data-name="Layer 1"><polygon points="102.39 0 0 208.55 208.55 208.55 102.39 0" id="el_mvYAdt-JWl"/><polygon points="146.79 52.3 144.2 57.59 149.49 57.59 146.79 52.3" id="el_XRgq7KGnuu"/><polygon points="146.8 60.42 144.2 65.71 149.49 65.71 146.8 60.42" id="el_aH3k_t5cRP"/><polygon points="146.75 71.56 141.65 81.94 152.04 81.94 146.75 71.56" id="el_GVNaso0FDB"/><polygon points="146.8 84.77 144.2 90.06 149.49 90.06 146.8 84.77" id="el_6N5NQSU6Ky"/><polygon points="149.49 98.18 146.8 92.89 144.2 98.18 149.49 98.18" id="el_CYDUFrcEND"/><polygon points="145.3 101.01 141.26 109.24 149.49 109.24 145.3 101.01" id="el_l6dmtwqvlQ"/><polygon points="158.34 113.52 155.74 118.81 161.03 118.81 158.34 113.52" id="el_Gbe17_seYq"/><polygon points="158.34 104.64 155.74 109.93 161.03 109.93 158.34 104.64" id="el_hgjQZOfVQi"/><polygon points="158.34 88.14 155.74 93.43 161.03 93.43 158.34 88.14" id="el_uRoZi1yyRa"/><polygon points="158.34 72.65 155.74 77.94 161.03 77.94 158.34 72.65" id="el_G1Mf7XsJsq"/><polygon points="144.2 122.54 153.21 122.54 148.62 113.52 144.2 122.54" id="el_nZkk7rOpyT"/><polygon points="142.74 126.41 140.14 131.7 145.43 131.7 142.74 126.41" id="el_POnhhceKCd"/><polygon points="143.46 138.46 138.61 148.34 148.49 148.34 143.46 138.46" id="el_OxFwgWn1RnN"/><polygon points="146.8 149.72 144.2 155.01 149.49 155.01 146.8 149.72" id="el_acHBJkLo5A9"/><polygon points="149.49 179.37 144.73 170.02 140.14 179.37 149.49 179.37" id="el_l4cI2_hIgvG"/><polygon points="149.49 187.48 146.8 182.19 144.2 187.48 149.49 187.48" id="el_OjAg1eeaDM8"/><polygon points="172.12 197.49 169.42 192.2 166.82 197.49 172.12 197.49" id="el_RI2hHzcfjbm"/><polygon points="146.8 190.31 144.2 195.6 149.49 195.6 146.8 190.31" id="el_UB3vJE9mEEv"/><polygon points="188.41 112.83 185.81 118.13 191.1 118.13 188.41 112.83" id="el_AodFIO4hpde"/><polygon points="197.88 208.53 203.17 208.53 200.48 203.25 197.88 208.53" id="el_0TFx2VCJzSR"/><polygon points="200.48 193.65 197.88 198.94 203.17 198.94 200.48 193.65" id="el_1466dnQUXam"/><polygon points="229.56 208.53 234.85 208.53 232.16 203.25 229.56 208.53" id="el_0r10krb7IvJ"/><polygon points="200.48 184.06 197.88 189.35 203.17 189.35 200.48 184.06" id="el_qgMipRnZeqj"/><polygon points="200.48 174.47 197.88 179.76 203.17 179.76 200.48 174.47" id="el_zXg7GL94h1q"/><polygon points="200.48 164.88 197.88 170.17 203.17 170.17 200.48 164.88" id="el_Djouea1Kug_"/><polygon points="200.48 155.28 197.88 160.57 203.17 160.57 200.48 155.28" id="el_8I_kesWQFS0"/><polygon points="200.48 145.69 197.88 150.98 203.17 150.98 200.48 145.69" id="el_mlcgV9Nzl1W"/><polygon points="179.42 109.42 176.82 114.71 182.11 114.71 179.42 109.42" id="el_E5HXnV0AhEK"/><polygon points="146.8 198.43 144.2 203.72 149.49 203.72 146.8 198.43" id="el__BUJ8QmOoqx"/><polygon points="105.17 134.15 102.57 139.44 107.86 139.44 105.17 134.15" id="el_yRYuW-KQAMb"/><polygon points="105.17 118.13 102.57 123.42 107.86 123.42 105.17 118.13" id="el_MvHSmY2h0xR"/><polygon points="132.66 208.53 137.95 208.53 135.26 203.25 132.66 208.53" id="el_v-3fgOt-shi"/><polygon points="135.26 192.2 132.66 197.49 137.95 197.49 135.26 192.2" id="el_7wHOFlqjwvx"/><polygon points="135.26 181.16 132.66 186.45 137.95 186.45 135.26 181.16" id="el_01q_xaYjNsk"/><polygon points="135.26 170.12 132.66 175.41 137.95 175.41 135.26 170.12" id="el_VDyyyoqLAFT"/><polygon points="135.26 159.07 132.66 164.37 137.95 164.37 135.26 159.07" id="el_U8lYZud3n8j"/><polygon points="102.57 208.53 107.86 208.53 105.17 203.25 102.57 208.53" id="el__KrfSYaCc_9"/><polygon points="135.26 135.72 132.66 141.01 137.95 141.01 135.26 135.72" id="el_-_IBPOhkKnd"/><polygon points="89.84 119.94 87.24 125.23 92.53 125.23 89.84 119.94" id="el_XhF_dpygOsI"/><polygon points="74.55 208.53 79.84 208.53 77.15 203.25 74.55 208.53" id="el_MPubiLIB0qq"/><polygon points="77.15 194.85 74.55 200.14 79.84 200.14 77.15 194.85" id="el_TEve3AvyceS"/><polygon points="77.15 186.45 74.55 191.74 79.84 191.74 77.15 186.45" id="el_nSl3iw4JoaK"/><polygon points="77.15 178.05 74.55 183.34 79.84 183.34 77.15 178.05" id="el_nwNDi-nGOHH"/><polygon points="77.15 169.66 74.55 174.95 79.84 174.95 77.15 169.66" id="el_kMHsS9EJ3SH"/><polygon points="77.15 152.34 74.55 157.63 79.84 157.63 77.15 152.34" id="el_iaszm7jqTAv"/><polygon points="119.01 54.94 116.41 60.23 121.7 60.23 119.01 54.94" id="el_wjlGW08XSBF"/><polygon points="105.17 95.54 102.57 100.83 107.86 100.83 105.17 95.54" id="el_sVYm5g4uNXI"/><polygon points="135.26 112.36 132.66 117.65 137.95 117.65 135.26 112.36" id="el_ZYJGoC7UtJw"/><polygon points="135.26 89 132.66 94.29 137.95 94.29 135.26 89" id="el_eskB2rhIcbx"/><polygon points="135.26 67.29 132.66 72.58 137.95 72.58 135.26 67.29" id="el_IaP06f93WWw"/><polygon points="69.45 198.94 66.85 204.24 72.14 204.24 69.45 198.94" id="el_vVuq8HToN8Z"/><polygon points="69.45 186.71 66.85 192 72.14 192 69.45 186.71" id="el_XpLntKHpwc3"/><polygon points="158.31 200.34 154.29 208.54 162.48 208.54 158.31 200.34" id="el_rtn7wALGU6n"/><polygon points="169.85 200.34 165.83 208.54 174.02 208.54 169.85 200.34" id="el_vxcgKvk8WUo"/><polygon points="169.39 182.06 165.37 190.25 173.56 190.25 169.39 182.06" id="el_bOATOBUUSq5"/><polygon points="169.39 169.03 165.37 177.22 173.56 177.22 169.39 169.03" id="el_Rx_90QZCHgU"/><polygon points="169.39 156 165.37 164.19 173.56 164.19 169.39 156" id="el_VZXsX8wK6bX"/><polygon points="169.39 142.97 165.37 151.16 173.56 151.16 169.39 142.97" id="el_dPneafek1wt"/><polygon points="169.39 129.94 165.37 138.13 173.56 138.13 169.39 129.94" id="el_dFTso3fI5OR"/><polygon points="169.39 116.91 165.37 125.1 173.56 125.1 169.39 116.91" id="el_wsMcW7_kMDT"/><polygon points="179.39 194.08 175.37 202.27 183.56 202.27 179.39 194.08" id="el_9l78-3PuomO"/><polygon points="105.14 192.2 101.12 200.39 109.31 200.39 105.14 192.2" id="el_bsTiCqo2nPB"/><polygon points="105.14 180.1 101.12 188.29 109.31 188.29 105.14 180.1" id="el_x-EWHzrp3oB"/><polygon points="105.14 168 101.12 176.19 109.31 176.19 105.14 168" id="el_2E6NyChBBs9"/><polygon points="105.14 155.9 101.12 164.09 109.31 164.09 105.14 155.9" id="el_1WGJNP-olaX"/><polygon points="105.14 143.79 101.12 151.99 109.31 151.99 105.14 143.79" id="el_pcxjUzCRYhx"/><polygon points="209.01 200.34 204.99 208.54 213.18 208.54 209.01 200.34" id="el_CIwqjsyA1yG"/><polygon points="209.01 190.22 204.99 198.41 213.18 198.41 209.01 190.22" id="el_hmqxjFaBelK"/><polygon points="209.01 180.1 204.99 188.29 213.18 188.29 209.01 180.1" id="el_Xcaabrc05jq"/><polygon points="209.01 169.98 204.99 178.17 213.18 178.17 209.01 169.98" id="el_dTqPr7poddd"/><polygon points="209.01 159.86 204.99 168.05 213.18 168.05 209.01 159.86" id="el_PyHFmENNDRT"/><polygon points="179.39 174.85 175.37 183.04 183.56 183.04 179.39 174.85" id="el_QhtwF6ZjiVs"/><polygon points="179.39 157.87 175.37 166.07 183.56 166.07 179.39 157.87" id="el_iARaacor-Yx"/><polygon points="179.39 140.88 175.37 149.07 183.56 149.07 179.39 140.88" id="el_Hc8jFwZTZGB"/><polygon points="179.39 122.31 175.37 130.5 183.56 130.5 179.39 122.31" id="el_clspoEsut7p"/><polygon points="169.39 103.88 165.37 112.07 173.56 112.07 169.39 103.88" id="el_2iAGSNkK2ox"/><polygon points="169.39 90.85 165.37 99.04 173.56 99.04 169.39 90.85" id="el_6eDzMcs9vji"/><polygon points="164.82 198.18 158.27 185.31 151.95 198.18 164.82 198.18" id="el_lrvQHzUPngE"/><polygon points="164.82 182.2 158.27 169.33 151.95 182.2 164.82 182.2" id="el_etxdx1332yO"/><polygon points="121.59 195.84 115.27 208.71 128.14 208.71 121.59 195.84" id="el_H-NWTvvVFYf"/><g id="el_wrG-yO4WK3Z_an_n_UF8kvra" data-animator-group="true" data-animator-type="0"><polygon points="60.18 195.84 53.86 208.71 66.73 208.71 60.18 195.84" id="el_wrG-yO4WK3Z"/></g><polygon points="121.59 178.28 115.27 191.15 128.14 191.15 121.59 178.28" id="el_pANYqLXMcRD"/><polygon points="121.59 160.72 115.27 173.58 128.14 173.58 121.59 160.72" id="el_od2zqt-lJrW"/><polygon points="90.27 195.84 83.95 208.71 96.82 208.71 90.27 195.84" id="el_rernb8bh7xQ"/><polygon points="90.27 179 83.95 191.87 96.82 191.87 90.27 179" id="el_SbOs_5jj_Si"/><polygon points="90.27 162.17 83.95 175.03 96.82 175.03 90.27 162.17" id="el_SX_SomBR63E"/><polygon points="90.27 145.33 83.95 158.2 96.82 158.2 90.27 145.33" id="el_acjxv-VaoxA"/><polygon points="121.59 143.16 115.27 156.02 128.14 156.02 121.59 143.16" id="el_iC3ZE2_gRNL"/><polygon points="121.59 125.59 115.27 138.46 128.14 138.46 121.59 125.59" id="el_Zr2758jWAzw"/><g id="el_a9j-3nc8KJZ_an_1J74DCMzT" data-animator-group="true" data-animator-type="0"><polygon points="121.59 89.1 115.27 101.97 128.14 101.97 121.59 89.1" id="el_a9j-3nc8KJZ"/></g><polygon points="164.82 166.23 158.27 153.36 151.95 166.23 164.82 166.23" id="el_IpNiEaaHNVF"/><polygon points="158.27 137.38 151.95 150.25 164.82 150.25 158.27 137.38" id="el_BOE3Dy7m8Tz"/><polygon points="151.95 134.28 164.82 134.28 158.27 121.41 151.95 134.28" id="el_ol8zvEJXJcc"/><polygon points="188.46 195.67 182.14 208.54 195.01 208.54 188.46 195.67" id="el_XKmlCrZTe8p"/><polygon points="182.02 191.26 194.89 191.26 188.34 178.39 182.02 191.26" id="el_1Blc9Cps9fB"/><polygon points="181.9 173.99 194.77 173.99 188.22 161.12 181.9 173.99" id="el_QDZ1_7FXTDO"/><polygon points="221.55 195.67 215.23 208.54 228.1 208.54 221.55 195.67" id="el_O1nTEXp9Z5u"/><polygon points="220.16 178.87 213.84 191.74 226.71 191.74 220.16 178.87" id="el_fXcawn-sL8z"/><polygon points="181.79 156.71 194.65 156.71 188.1 143.85 181.79 156.71" id="el_4dWJUs23nmY"/><polygon points="181.67 139.44 194.54 139.44 187.99 126.57 181.67 139.44" id="el_oexfKF4lmDr"/></g></g></svg>