<svg xmlns="http://www.w3.org/2000/svg" width="448pt" height="448pt" viewBox="0 -8 448 448" fill="#e93d1b">
    <path d="M16 432h112v-40c0-13.254-10.746-24-24-24H40c-13.254 0-24 10.746-24 24zm0 0M168 432h112v-40c0-13.254-10.746-24-24-24h-64c-13.254 0-24 10.746-24 24zm0 0M320 432h112v-40c0-13.254-10.746-24-24-24h-64c-13.254 0-24 10.746-24 24zm0 0M400 320c0 13.254-10.746 24-24 24s-24-10.746-24-24 10.746-24 24-24 24 10.746 24 24zm0 0"/>
    <path d="M448 0H0v304h35.39c6.34-14.574 20.72-24 36.61-24s30.27 9.426 36.61 24h78.78c6.34-14.574 20.72-24 36.61-24s30.27 9.426 36.61 24h78.78c6.34-14.574 20.72-24 36.61-24s30.27 9.426 36.61 24H448zM168 34.32L320.32 120 168 205.68zM56 264H16v-16h40zm24 8H64v-32h16zm352-8H88v-16h344zm0 0"/>
    <path d="M184 61.68v116.64L287.68 120zm0 0M248 320c0 13.254-10.746 24-24 24s-24-10.746-24-24 10.746-24 24-24 24 10.746 24 24zm0 0M96 320c0 13.254-10.746 24-24 24s-24-10.746-24-24 10.746-24 24-24 24 10.746 24 24zm0 0"/>
</svg>
