<svg xmlns="http://www.w3.org/2000/svg" width="50" height="50" viewBox="0 0 50 50" fill="#e93d1b">
    <path d="M47.374 46.125c-4.482-1.975-7.068-3.614-11.768-5.162-.351-.115-.77-.34-.909-.611-.382-.725-.65-1.496-.922-2.262-.173-.486-.326-.945-.95-1.18-.167-.062-.32-.344-.316-.524.032-1.772-.598-3.061.18-3.757 1.417-1.273 1.095-2.834 1.804-3.607.708-.772 2.462-6.253 2.126-6.958-.336-.702-1.521-.373-1.245-.714 1.09-1.344 1.426-4.059 1.37-6.285.194.403.301.841.301 1.32v.461l6.937-4.508L25 0 6.021 12.336l1.715 1.114v2.496a.75.75 0 0 0-.578.723.75.75 0 0 0 .379.642L6.02 25.955h3.799L8.3 17.311a.748.748 0 0 0 .377-.642.75.75 0 0 0-.577-.723v-2.258l4.856 3.156v-.303c.036.451.102.916.212 1.399.375 1.644 1.098 1.542 1.684 3.406.009.028.001.065.001.098v.1c-.046.212-.216.451-.359.49-.697.193-.714.577-.62 1.074.065.342.598 2.884.906 3.794.232.677.681 1.315.805 2.005.25 1.376.842 2.573 1.923 3.61.179.174.313.461.293.686a40.672 40.672 0 0 1-.376 3.171c-.033.208-.286.511-.491.549-.819.147-.946.688-1.141 1.237a25.51 25.51 0 0 1-.86 2.145c-.103.219-.356.445-.606.541-1.457.547-2.94 1.047-4.408 1.575-1.561.567-5.697 3.103-7.233 3.81-.903.418-.4 3.77-.4 3.77h45.347c0-.001.637-3.48-.259-3.876z"/>
</svg>
