<svg xmlns="http://www.w3.org/2000/svg" width="512pt" height="512pt" viewBox="-6 0 512 512.01981" fill="#e93d1b">
    <path d="M101.496 18.285h297.805L406.867 0H93.926zm0 0M62.73 8.008L168.258 263.03a150.642 150.642 0 0 1 11.804-7.23L102.148 67.656l-.082-.199-26.761-64.64zm0 0M28.922 22.035l110.562 266.88a148.107 148.107 0 0 1 13.871-14.052L45.844 15.012zm0 0M391.73 36.57H109.066l7.582 18.285h267.5zm0 0M454.953 15.012L347.441 274.836a147.885 147.885 0 0 1 13.868 14.078L471.875 22.035zm0 0M369.008 91.43l7.57-18.285h-252.36l7.571 18.285zm0 0M398.73 67.445l-.082.203-77.914 188.153a150.642 150.642 0 0 1 11.805 7.23L438.066 8.02l-12.574-5.211zm0 0M5.664 31.672a9.04 9.04 0 0 0-4.95 11.883l116.2 280.816a145.36 145.36 0 0 1 9.863-18.285L12.027 29.027zm0 0M250.398 256c-70.66.074-127.925 57.34-128 128 .04 6.34.54 12.668 1.5 18.934a44.864 44.864 0 0 0 18.047 7.582 9.998 9.998 0 0 1 8.297 9.855c0 4.867-3.5 9.027-8.297 9.856a44.962 44.962 0 0 0-9.61 2.972c24.685 59.285 89.477 91.102 151.481 74.39 62.004-16.714 102.028-76.784 93.575-140.444-8.457-63.657-62.774-111.2-126.993-111.145zm0 219.43c-50.496 0-91.43-40.934-91.43-91.43s40.934-91.43 91.43-91.43c50.497 0 91.43 40.934 91.43 91.43-.058 50.473-40.957 91.375-91.43 91.43zm0 0M407.656 466.625a62.892 62.892 0 0 1-4.937-4.406 63.387 63.387 0 0 1-9.637-12.227 64.414 64.414 0 0 1-21.844 21.852 64.336 64.336 0 0 1 12.29 9.691 63.453 63.453 0 0 1 9.6 12.18 63.685 63.685 0 0 1 9.653-12.242 63.081 63.081 0 0 1 12.188-9.602 62.68 62.68 0 0 1-6.793-4.781c-.192-.137-.328-.32-.52-.465zm0 0M500.11 36.625a9.053 9.053 0 0 0-4.958-4.945l-6.398-2.64-114.79 277.026a145.632 145.632 0 0 1 9.864 18.286L500.063 43.594a9.037 9.037 0 0 0 .046-6.969zm0 0"/>
    <path d="M257.71 364.535l-7.312-14.73-7.257 14.71a13.729 13.729 0 0 1-10.317 7.5l-16.246 2.356 11.738 11.457a13.762 13.762 0 0 1 3.942 12.188l-2.742 15.543 14.847-7.313a13.705 13.705 0 0 1 6.035-1.398c2.094-.004 4.157.48 6.036 1.406l14.867 7.312-2.746-15.543c-.79-4.46.68-9.027 3.922-12.195l11.75-11.457L268 372.016a13.729 13.729 0 0 1-10.29-7.48zm0 0M95.188 442.21a63.978 63.978 0 0 1 9.656-12.241 63.212 63.212 0 0 1 12.187-9.598 62.782 62.782 0 0 1-6.793-4.793c-.191-.125-.328-.308-.511-.457a63.345 63.345 0 0 1-14.567-16.64 64.61 64.61 0 0 1-21.851 21.863 64.062 64.062 0 0 1 12.289 9.691 62.798 62.798 0 0 1 9.59 12.176zm0 0"/>
    <path d="M250.398 310.855c-40.394 0-73.144 32.75-73.144 73.145s32.75 73.145 73.144 73.145c40.395 0 73.145-32.75 73.145-73.145-.047-40.375-32.77-73.098-73.145-73.145zm56.684 56.094a13.626 13.626 0 0 1-3.48 14.051l-16.633 16.219 3.894 22.027a13.716 13.716 0 0 1-5.258 13.352 13.723 13.723 0 0 1-14.289 1.351l-20.918-10.289-20.918 10.29a13.728 13.728 0 0 1-14.296-1.348 13.71 13.71 0 0 1-5.262-13.356l3.906-22.027L197.188 381a13.715 13.715 0 0 1 7.605-23.387l23.023-3.347 10.293-20.864a13.715 13.715 0 0 1 24.594 0L273 354.266l23.02 3.347a13.639 13.639 0 0 1 11.062 9.336zm0 0"/>
</svg>
