<svg xmlns="http://www.w3.org/2000/svg" viewBox="0 0 81.6 33.72"><defs><style>.cls-1{fill:#fff;}</style></defs><title>Ресурс 4</title><g id="Слой_2" data-name="Слой 2"><g id="Layer_1" data-name="Layer 1"><path class="cls-1" d="M.63,33.3c0,.22,0,.29.1.31a.34.34,0,0,0,.14,0s.05,0,.05,0,0,0-.06,0H.2s-.07,0-.07,0,0,0,0,0H.31c.07,0,.08-.11.09-.35l0-1.63c0-.05,0-.09,0-.09s0,0,.1.08l.88.88c.2.19.58.59.63.64h0l0-1.25c0-.17,0-.22-.1-.25H1.81s-.05,0-.05,0,0,0,.08,0h.62s.07,0,.07,0,0,0-.06,0H2.39c-.08,0-.1.09-.11.24l0,1.75c0,.06,0,.08,0,.08a.15.15,0,0,1-.1-.06c-.18-.16-.54-.53-.84-.81S.65,32.2.6,32.15h0Z"/><path class="cls-1" d="M3.74,33s0,0,0,0l-.24-.59v0s0,0,0,0l-.24.59s0,0,0,0Zm-.53.13,0,0-.14.32a.58.58,0,0,0,0,.14s0,.07.1.07h0s0,0,0,0,0,0,0,0H2.58s0,0,0,0,0,0,0,0h.08c.11,0,.15-.09.21-.21L3.5,32c0-.07,0-.09.07-.09s.05,0,.08.07l.64,1.44c.09.21.16.24.21.25h.09s0,0,0,0,0,0-.11,0H4s-.08,0-.08,0a0,0,0,0,1,0,0,0,0,0,0,0,0-.05l-.2-.48a0,0,0,0,0,0,0Z"/><path class="cls-1" d="M5.05,32H4.68c-.15,0-.21,0-.24.07l-.05.08a0,0,0,0,1,0,0s0,0,0,0a2.11,2.11,0,0,1,.06-.29s0,0,0,0a.54.54,0,0,0,.11,0H6s0,0,0,.05,0,.23,0,.29,0,0,0,0,0,0,0,0v0c0-.06-.07-.13-.3-.13H5.39v1c0,.21,0,.4,0,.5s0,.11.1.12h.12s0,0,0,0,0,0,0,0H4.88s0,0,0,0,0,0,0,0H5c.06,0,.07,0,.08-.12s0-.29,0-.5Z"/><path class="cls-1" d="M6.52,32.58a4.41,4.41,0,0,0,0-.5c0-.08,0-.11-.08-.12H6.34s0,0,0,0,0,0,.06,0H7s.06,0,.06,0,0,0,0,0H7c-.07,0-.09.05-.09.13a4.41,4.41,0,0,0,0,.5V33c0,.22,0,.41,0,.51s0,.1.1.11h.13s0,0,0,0,0,0,0,0H6.35s0,0,0,0,0,0,0,0h.09c.05,0,.07,0,.08-.11s0-.29,0-.51Z"/><path class="cls-1" d="M9.08,32.83A.76.76,0,0,0,8.35,32c-.28,0-.6.14-.6.73a.77.77,0,0,0,.75.86c.18,0,.58-.08.58-.75m-1.7,0a.94.94,0,0,1,1-.92c.64,0,1,.34,1,.88a1,1,0,0,1-1,1,.92.92,0,0,1-1-.92"/><path class="cls-1" d="M10.07,33.36c0,.18,0,.24.09.25a.3.3,0,0,0,.13,0s0,0,0,0,0,0-.06,0H9.68s-.06,0-.06,0l0,0h.12c.06,0,.07-.08.07-.29l0-1.39c0-.05,0-.08.05-.08s.06,0,.11.08.4.4.77.75l.54.52h0l0-1c0-.15,0-.19-.08-.21h-.13s0,0,0,0,0,0,.06,0h.56s.06,0,.06,0,0,0,0,0h-.08c-.07,0-.09.07-.09.2l0,1.48c0,.06,0,.08,0,.08a.16.16,0,0,1-.1-.05L10.64,33c-.28-.26-.54-.54-.59-.58h0Z"/><path class="cls-1" d="M13,33s0,0,0,0l-.24-.59s0,0,0,0,0,0,0,0l-.24.59s0,0,0,0Zm-.54.13s0,0,0,0l-.13.32a.38.38,0,0,0,0,.14s0,.07.1.07h0s0,0,0,0,0,0,0,0h-.57s0,0,0,0a0,0,0,0,1,0,0h.07c.12,0,.16-.09.21-.21L12.7,32c0-.07.05-.09.08-.09s.05,0,.07.07l.64,1.44c.1.21.17.24.21.25h.1a0,0,0,0,1,0,0s0,0-.11,0h-.48s-.07,0-.07,0,0,0,0,0,0,0,0-.05L13,33.1l0,0Z"/><path class="cls-1" d="M14.44,33c0,.3,0,.45.05.49s.14,0,.33,0,.24,0,.3-.06a.39.39,0,0,0,.06-.15,0,0,0,0,1,0,0s0,0,0,.05a1.76,1.76,0,0,1,0,.27c0,.05,0,.07-.15.07h-1.1s0,0,0,0,0,0,0,0H14c.05,0,.06,0,.07-.12s0-.29,0-.5v-.92c0-.08,0-.1-.11-.13h-.08s0,0,0,0,0,0,.05,0h.71s0,0,0,0,0,0,0,0h-.09c-.07,0-.09.05-.1.13V33Z"/><path class="cls-1" d="M16.9,33a.54.54,0,0,0-.07-.29l-.5-.8a.74.74,0,0,0-.19-.2.3.3,0,0,0-.12,0s0,0,0,0,0,0,.05,0h.66s0,0,0,0,0,0-.07,0a.07.07,0,0,0,0,.05.34.34,0,0,0,0,.1c0,.08.43.75.48.82s.39-.67.43-.76a.33.33,0,0,0,0-.14.06.06,0,0,0-.06-.07s0,0,0,0,0,0,0,0h.58s.05,0,.05,0,0,0-.06,0a.3.3,0,0,0-.12,0,.48.48,0,0,0-.16.14,9,9,0,0,0-.54.88.66.66,0,0,0,0,.27v.23s0,.16,0,.28,0,.14.11.15h.15s0,0,0,0,0,0-.06,0h-.79s-.06,0-.06,0,0,0,0,0h.1c.06,0,.09-.07.09-.15s0-.24,0-.28Z"/><path class="cls-1" d="M19.81,32.83a.75.75,0,0,0-.72-.84c-.28,0-.61.14-.61.73a.78.78,0,0,0,.76.86c.18,0,.57-.08.57-.75m-1.7,0a1,1,0,0,1,1.05-.92c.63,0,1,.34,1,.88a1,1,0,0,1-1.05,1,.93.93,0,0,1-1-.92"/><path class="cls-1" d="M20.63,32.58v-.5c0-.08,0-.1-.11-.13h-.1s0,0,0,0,0,0,.05,0h.7s.05,0,.05,0a0,0,0,0,1,0,0h-.08C21,32,21,32,21,32.08a4.41,4.41,0,0,0,0,.5v.33c0,.34.07.48.2.57a.45.45,0,0,0,.31.09.51.51,0,0,0,.34-.12c.14-.13.14-.33.14-.57v-.8c0-.08,0-.1-.11-.13h-.09s0,0,0,0,0,0,.05,0h.59s.05,0,.05,0,0,0,0,0h-.08c-.06,0-.08.05-.09.13v.75a.85.85,0,0,1-.24.71.78.78,0,0,1-.53.17.91.91,0,0,1-.57-.16.74.74,0,0,1-.23-.62Z"/><path class="cls-1" d="M23.23,32h-.37c-.15,0-.21,0-.24.07a.18.18,0,0,0,0,.08l0,0a0,0,0,0,1,0,0,2.11,2.11,0,0,1,.06-.29s0,0,0,0a.41.41,0,0,0,.1,0h1.51s0,0,0,.05,0,.23,0,.29,0,0,0,0,0,0,0,0v0c0-.06-.07-.13-.3-.13h-.31v1c0,.21,0,.4,0,.5s0,.11.1.12h.13l0,0s0,0-.05,0h-.73s-.05,0-.05,0,0,0,0,0h.09c.05,0,.06,0,.07-.12s0-.29,0-.5Z"/><path class="cls-1" d="M26,32.67V32.6a4.91,4.91,0,0,0,0-.52c0-.08,0-.1-.1-.13h-.1s0,0,0,0,0,0,0,0h.7s0,0,0,0,0,0,0,0h-.08c-.06,0-.08.05-.09.13V33c0,.21,0,.4,0,.5s0,.11.1.12h.12s0,0,0,0,0,0-.05,0h-.72s-.06,0-.06,0,0,0,0,0h.09c.06,0,.07,0,.08-.12s0-.28,0-.5v-.18H25V33c0,.22,0,.4,0,.5s0,.11.1.12h.12s0,0,0,0,0,0,0,0h-.73s0,0,0,0,0,0,0,0h.08c.05,0,.07,0,.08-.12s0-.29,0-.5v-.92c0-.08,0-.1-.11-.13h-.1s0,0,0,0,0,0,.05,0h.7s.05,0,.05,0,0,0,0,0h-.08c-.06,0-.08.05-.09.13a4.91,4.91,0,0,0,0,.52v0a0,0,0,0,0,0,0Z"/><path class="cls-1" d="M28.07,32.39V31.8c0-.09,0-.14-.12-.16h-.12s0,0,0,0,0,0,.06,0h.82a.73.73,0,0,1,.53.15.51.51,0,0,1,.14.33.65.65,0,0,1-.7.67h-.06s0,0,0,0,0,0,.08,0a.44.44,0,0,0,.38-.46.54.54,0,0,0-.17-.42.42.42,0,0,0-.28-.1h-.11s0,0,0,.05v1.11a4.64,4.64,0,0,0,0,.59c0,.08,0,.14.11.15h.14s0,0,0,0,0,0,0,0h-.8s-.06,0-.06,0,0,0,0,0H28c.05,0,.07-.07.08-.15s0-.34,0-.59Z"/><path class="cls-1" d="M30.2,32.76s0,0,0,.05l.19,0a.28.28,0,0,0,.18,0,.41.41,0,0,0,.16-.35.38.38,0,0,0-.38-.42h-.15s0,0,0,0Zm-.32-.18v-.5c0-.08,0-.1-.11-.13h-.1s0,0,0,0,0,0,.05,0h.73a.87.87,0,0,1,.48.1.42.42,0,0,1,.18.32c0,.18-.11.33-.35.52.22.27.4.48.55.63s.22.15.26.15h.06s0,0,0,0,0,0-.05,0h-.24a.46.46,0,0,1-.27,0,1.08,1.08,0,0,1-.35-.34c-.1-.13-.2-.29-.23-.32a.06.06,0,0,0,0,0h-.22l0,0v0c0,.21,0,.4,0,.5s0,.11.1.12h.12a0,0,0,0,1,0,0s0,0-.05,0h-.7s0,0,0,0,0,0,0,0h.08c.06,0,.07,0,.08-.12s0-.29,0-.5Z"/><path class="cls-1" d="M33.25,32.83a.76.76,0,0,0-.73-.84c-.28,0-.6.14-.6.73a.77.77,0,0,0,.75.86c.18,0,.58-.08.58-.75m-1.7,0a.94.94,0,0,1,1-.92c.64,0,1,.34,1,.88a1,1,0,0,1-1,1,.92.92,0,0,1-1-.92"/><path class="cls-1" d="M35.7,33.52c0,.07,0,.07,0,.09a1.58,1.58,0,0,1-.62.1c-.61,0-1.15-.27-1.15-.92a.86.86,0,0,1,.43-.77,1.26,1.26,0,0,1,.68-.15,3.43,3.43,0,0,1,.44,0l.2,0s0,0,0,0a2.69,2.69,0,0,0,0,.39,0,0,0,0,1,0,0s0,0,0,0a.35.35,0,0,0-.09-.2A.8.8,0,0,0,35,32a.73.73,0,0,0-.48.14.69.69,0,0,0-.23.58.82.82,0,0,0,.87.87.5.5,0,0,0,.17,0,.09.09,0,0,0,0-.09V33c0-.08,0-.11-.11-.13h-.1l0,0s0,0,.06,0h.67s.06,0,.06,0,0,0,0,0H35.8c-.07,0-.1,0-.1.13v.54Z"/><path class="cls-1" d="M36.71,32.76a0,0,0,0,0,0,.05l.19,0a.23.23,0,0,0,.17,0,.39.39,0,0,0,.17-.35.38.38,0,0,0-.39-.42h-.14s0,0,0,0Zm-.31-.18a4.41,4.41,0,0,0,0-.5c0-.08,0-.1-.1-.13h-.1s0,0,0,0,0,0,.06,0h.73a.89.89,0,0,1,.48.1.42.42,0,0,1,.17.32c0,.18-.1.33-.34.52.22.27.39.48.54.63s.23.15.27.15h.06a0,0,0,0,1,0,0s0,0,0,0h-.24a.5.5,0,0,1-.27,0,1.07,1.07,0,0,1-.34-.34c-.1-.13-.2-.29-.24-.32s0,0,0,0h-.23a0,0,0,0,0,0,0v0c0,.21,0,.4,0,.5s0,.11.1.12H37a0,0,0,0,1,0,0s0,0,0,0h-.7s0,0,0,0,0,0,0,0h.09s.07,0,.07-.12a3.34,3.34,0,0,0,0-.5Z"/><path class="cls-1" d="M39,33s0,0,0,0l-.24-.59s0,0,0,0,0,0,0,0l-.24.59s0,0,0,0Zm-.54.13s0,0,0,0l-.13.32a.38.38,0,0,0,0,.14s0,.07.1.07h0s0,0,0,0,0,0,0,0h-.56s0,0,0,0a0,0,0,0,1,0,0h.07c.12,0,.16-.09.21-.21L38.74,32c0-.07,0-.09.08-.09s0,0,.07.07l.64,1.44c.1.21.17.24.21.25h.1a0,0,0,0,1,0,0s0,0-.11,0h-.48s-.07,0-.07,0,0,0,0,0,0,0,0-.05l-.19-.48,0,0Z"/><path class="cls-1" d="M40.29,31.92s0-.06.05-.06,0,0,.08.07l.67,1.3.67-1.31s0-.06.06-.06,0,0,.06.07l.23,1.45c0,.15,0,.21.12.23l.14,0s0,0,0,0,0,0-.06,0l-.52,0c-.06,0-.07,0-.07,0l0,0s0,0,0-.1l-.14-1h0l-.54,1c-.06.12-.07.14-.1.14s-.06,0-.1-.12-.26-.47-.29-.54-.16-.33-.25-.49h0l-.12.91a.41.41,0,0,0,0,.11s0,.06.07.07h.09s0,0,0,0,0,0-.06,0h-.51s0,0,0,0l0,0h.08c.07,0,.09-.1.1-.18Z"/><path class="cls-1" d="M44,33c0,.23,0,.4,0,.5s0,.11.1.12h.13s0,0,0,0,0,0-.06,0h-.71s-.06,0-.06,0,0,0,0,0h.09s.06,0,.07-.12,0-.28,0-.5v-.92c0-.08,0-.11-.11-.13h-.1s0,0,0,0,0,0,.06,0h1.07l.1,0h0a0,0,0,0,1,0,0s0,.05,0,.11,0,.16,0,.19,0,0,0,0a0,0,0,0,1,0,0,.31.31,0,0,0,0-.09.19.19,0,0,0-.16-.07H44s0,0,0,0v.57s0,0,0,0h.46a.14.14,0,0,0,.11,0s0,0,0,0,0,0,0,0,0,.08,0,.16v.17s0,.05,0,.05a0,0,0,0,1,0,0,.17.17,0,0,0,0-.07.12.12,0,0,0-.12-.09H44s0,0,0,0Z"/><path class="cls-1" d="M46.71,32.83A.75.75,0,0,0,46,32c-.28,0-.61.14-.61.73a.78.78,0,0,0,.76.86c.18,0,.57-.08.57-.75m-1.7,0a1,1,0,0,1,1.05-.92c.63,0,1,.34,1,.88a1,1,0,0,1-1.05,1,.93.93,0,0,1-1-.92"/><path class="cls-1" d="M47.87,32.76a.06.06,0,0,0,0,.05l.19,0a.26.26,0,0,0,.18,0,.39.39,0,0,0,.16-.35A.38.38,0,0,0,48,32h-.15s0,0,0,0Zm-.32-.18v-.5c0-.08,0-.1-.11-.13h-.1s0,0,0,0,0,0,.06,0h.73a.83.83,0,0,1,.47.1.42.42,0,0,1,.18.32c0,.18-.1.33-.35.52.22.27.4.48.55.63s.23.15.27.15h.06a0,0,0,0,1,0,0s0,0,0,0H49a.46.46,0,0,1-.27,0,1.07,1.07,0,0,1-.34-.34L48.16,33a0,0,0,0,0,0,0h-.23l0,0v0a3.34,3.34,0,0,0,0,.5c0,.07,0,.11.09.12h.12s0,0,0,0,0,0-.06,0h-.69s0,0,0,0,0,0,0,0h.09c.05,0,.06,0,.07-.12s0-.29,0-.5Z"/><path class="cls-1" d="M50.26,33.65s-.06,0-.06-.1a2.56,2.56,0,0,1,0-.36s0-.07,0-.07,0,0,0,.05a.44.44,0,0,0,0,.14.39.39,0,0,0,.4.28.34.34,0,0,0,.38-.32c0-.14,0-.26-.28-.44l-.13-.1c-.31-.24-.42-.43-.42-.66s.26-.52.66-.52a2.3,2.3,0,0,1,.38,0s0,0,0,0,0,.11,0,.33c0,.06,0,.08,0,.08s0,0,0-.05a.36.36,0,0,0-.39-.31c-.21,0-.34.11-.34.28s.07.22.31.4l.07.06c.35.25.47.44.47.7a.56.56,0,0,1-.27.49.91.91,0,0,1-.45.11,1,1,0,0,1-.41-.07"/><path class="cls-1" d="M52.28,32.69h0l.52-.52c.07-.08.12-.13.12-.18s0,0,0,0,0,0,0,0,0,0,0,0h.55s0,0,0,0,0,0,0,0l-.14,0a.83.83,0,0,0-.27.18c-.08.07-.45.41-.53.5.09.11.58.61.68.7a1.36,1.36,0,0,0,.34.25.41.41,0,0,0,.16,0,0,0,0,0,1,0,0s0,0-.06,0h-.39a.53.53,0,0,1-.33-.15c-.1-.09-.59-.63-.64-.7l0,0h0V33c0,.21,0,.4,0,.5s0,.11.09.12h.12s0,0,0,0,0,0,0,0h-.7s0,0,0,0,0,0,0,0h.09c.05,0,.07,0,.08-.12s0-.29,0-.5v-.42a4.41,4.41,0,0,0,0-.5c0-.08,0-.1-.1-.13h-.1s0,0,0,0,0,0,.06,0h.67s.06,0,.06,0,0,0,0,0h-.07c-.07,0-.09.05-.09.13a4.41,4.41,0,0,0,0,.5Z"/><path class="cls-1" d="M53.9,32.58v-.5c0-.08,0-.11-.08-.12h-.1a0,0,0,0,1,0,0s0,0,.05,0h.66s.05,0,.05,0,0,0,0,0h-.07c-.07,0-.09.05-.09.13a4.41,4.41,0,0,0,0,.5V33c0,.22,0,.41,0,.51s0,.1.1.11h.13s0,0,0,0,0,0-.05,0h-.73s-.05,0-.05,0,0,0,0,0h.09s.06,0,.07-.11,0-.29,0-.51Z"/><path class="cls-1" d="M55.4,33c0,.3,0,.45.05.49s.14,0,.33,0,.23,0,.3-.06a.39.39,0,0,0,.06-.15,0,0,0,0,1,0,0s0,0,0,.05a1.76,1.76,0,0,1,0,.27c0,.05,0,.07-.16.07H54.9s0,0,0,0,0,0,0,0H55c.05,0,.06,0,.07-.12s0-.29,0-.5v-.92c0-.08,0-.1-.11-.13h-.08s0,0,0,0,0,0,.05,0h.7s.06,0,.06,0,0,0,0,0H55.5c-.07,0-.09.05-.1.13V33Z"/><path class="cls-1" d="M57,33c0,.3,0,.45.05.49s.14,0,.33,0,.23,0,.3-.06a.39.39,0,0,0,.06-.15,0,0,0,0,1,0,0s0,0,0,.05a1.76,1.76,0,0,1,0,.27c0,.05,0,.07-.16.07H56.47s0,0,0,0,0,0,0,0h.09c.05,0,.06,0,.07-.12s0-.29,0-.5v-.92c0-.08,0-.1-.11-.13h-.08s0,0,0,0,0,0,.06,0h.7s.06,0,.06,0,0,0-.05,0h-.09c-.07,0-.09.05-.1.13V33Z"/><path class="cls-1" d="M58.06,33.65s0,0,0-.08,0-.27,0-.31,0-.06,0-.06a0,0,0,0,1,0,0,.83.83,0,0,0,0,.13.39.39,0,0,0,.4.23.31.31,0,0,0,.34-.3c0-.1,0-.21-.24-.33l-.15-.09c-.29-.16-.39-.32-.39-.53s.28-.47.63-.47a2.41,2.41,0,0,1,.36,0s0,0,0,0,0,.09,0,.28,0,.07,0,.07,0,0,0,0A.31.31,0,0,0,59,32.1a.33.33,0,0,0-.28-.11c-.18,0-.34.09-.34.25s0,.19.26.31l.11.05c.33.18.43.36.43.57a.49.49,0,0,1-.25.44.71.71,0,0,1-.42.1,1.07,1.07,0,0,1-.41-.06"/><path class="cls-1" d="M61,32.69c0,.3,0,.51,0,.56a.58.58,0,0,0,0,.21c0,.06.15.11.37.11a.94.94,0,0,0,.65-.19.85.85,0,0,0,.24-.69A1,1,0,0,0,62,32a1.16,1.16,0,0,0-.81-.27l-.18,0s0,0,0,.05v.9Zm-.35-.3c0-.42,0-.5,0-.59s0-.14-.12-.16h-.11s0,0,0,0,0,0,.06,0h.85a1.56,1.56,0,0,1,1.14.31,1,1,0,0,1,.27.71,1.1,1.1,0,0,1-.31.77,1.3,1.3,0,0,1-.95.32h-.33l-.27,0h-.36s-.06,0-.06,0,0,0,.05,0h.1c.06,0,.07-.07.08-.15a4.64,4.64,0,0,0,0-.59Z"/><path class="cls-1" d="M63.14,32.58v-.5c0-.08,0-.1-.11-.13h-.1s0,0,0,0,0,0,0,0H64l.1,0h0s0,0,0,0a.61.61,0,0,0,0,.15.88.88,0,0,1,0,.16s0,0,0,0,0,0,0,0a.37.37,0,0,0,0-.09s0-.07-.17-.08h-.39s0,0,0,0v.58a0,0,0,0,0,0,0h.44a.28.28,0,0,0,.12,0l0,0s0,0,0,0,0,.05,0,.17a1,1,0,0,0,0,.16s0,0,0,0,0,0,0,0a.28.28,0,0,0,0-.09s0-.08-.14-.09h-.39s0,0,0,0v.53c0,.16.09.2.34.2a.66.66,0,0,0,.24,0,.22.22,0,0,0,.11-.17s0,0,0,0,0,0,0,0a1,1,0,0,1,0,.26c0,.07,0,.07-.13.07H63s0,0,0,0,0,0,0,0h.08c.05,0,.07,0,.08-.12s0-.29,0-.5Z"/><path class="cls-1" d="M64.55,32.13c0-.13-.09-.15-.18-.18h-.1a0,0,0,0,1,0,0s0,0,.07,0H65s.06,0,.06,0,0,0,0,0h-.1a.08.08,0,0,0,0,0,.85.85,0,0,0,0,.18l.43,1.05h0c.11-.24.43-1,.49-1.15a.92.92,0,0,0,0-.09s0,0,0,0h-.1s0,0,0,0,0,0,.07,0h.5s.06,0,.06,0,0,0,0,0a.22.22,0,0,0-.13,0,.61.61,0,0,0-.13.21l-.3.64c-.16.34-.27.6-.33.72s-.09.17-.12.17-.06,0-.1-.14Z"/><path class="cls-1" d="M66.6,32.58v-.5c0-.08,0-.1-.11-.13h-.1s0,0,0,0,0,0,.06,0h1l.11,0h0s0,0,0,0,0,.05,0,.15,0,.13,0,.16,0,0,0,0,0,0,0,0a.16.16,0,0,0,0-.09s0-.07-.16-.08H67s0,0,0,0v.58s0,0,0,0h.44a.24.24,0,0,0,.12,0l0,0s0,0,0,0a1.06,1.06,0,0,1,0,.17c0,.05,0,.14,0,.16s0,0,0,0,0,0,0,0a.28.28,0,0,0,0-.09s0-.08-.14-.09H67s0,0,0,0V33c0,.08,0,.28,0,.35s.08.2.34.2a.61.61,0,0,0,.23,0,.22.22,0,0,0,.11-.17s0,0,0,0,0,0,0,0a1.86,1.86,0,0,1,0,.26c0,.07,0,.07-.14.07H66.44s0,0,0,0,0,0,0,0h.09s.06,0,.07-.12,0-.29,0-.5Z"/><path class="cls-1" d="M68.52,33c0,.3,0,.45.06.49s.13,0,.33,0,.23,0,.29-.06a.28.28,0,0,0,.06-.15s0,0,0,0,0,0,0,.05a1.57,1.57,0,0,1,0,.27c0,.05,0,.07-.16.07H68s0,0,0,0,0,0,0,0h.09c.05,0,.07,0,.07-.12a3.34,3.34,0,0,0,0-.5v-.42a4.41,4.41,0,0,0,0-.5c0-.08,0-.1-.11-.13H68s0,0,0,0,0,0,0,0h.71s.05,0,.05,0,0,0,0,0h-.1c-.07,0-.09.05-.09.13a4.41,4.41,0,0,0,0,.5Z"/><path class="cls-1" d="M71.13,32.83A.75.75,0,0,0,70.4,32c-.28,0-.6.14-.6.73a.77.77,0,0,0,.75.86c.18,0,.58-.08.58-.75m-1.7,0a1,1,0,0,1,1-.92c.63,0,1,.34,1,.88a1,1,0,0,1-1,1,.92.92,0,0,1-1-.92"/><path class="cls-1" d="M72,32.58a4.41,4.41,0,0,0,0-.5c0-.08,0-.1-.1-.13h-.1s-.05,0-.05,0,0,0,.06,0h.78A.65.65,0,0,1,73,32a.39.39,0,0,1,.13.28.59.59,0,0,1-.63.58h-.07l0,0s0,0,.09,0a.37.37,0,0,0,.33-.39.44.44,0,0,0-.14-.34.4.4,0,0,0-.26-.09h-.1s0,0,0,0V33c0,.21,0,.4,0,.5s0,.11.09.12h.13s0,0,0,0,0,0,0,0H71.8s0,0,0,0,0,0,0,0h.09c.05,0,.07,0,.08-.12s0-.29,0-.5Z"/><path class="cls-1" d="M73.76,31.92s0-.06,0-.06,0,0,.08.07l.67,1.3.67-1.31a.1.1,0,0,1,.07-.06s0,0,.06.07l.22,1.45c0,.15.05.21.13.23l.14,0s0,0,0,0,0,0-.07,0l-.52,0c-.06,0-.07,0-.07,0s0,0,0,0,0,0,0-.1l-.14-1h0l-.54,1c0,.12-.07.14-.09.14s-.06,0-.1-.12-.26-.47-.29-.54l-.25-.49h0l-.12.91a.41.41,0,0,0,0,.11s0,.06.08.07h.09l0,0s0,0-.06,0h-.52s0,0,0,0,0,0,0,0h.08c.06,0,.09-.1.1-.18Z"/><path class="cls-1" d="M76.29,32.58a4.41,4.41,0,0,0,0-.5c0-.08,0-.1-.1-.13h-.1s0,0,0,0,0,0,.06,0h1l.11,0h0a0,0,0,0,1,0,0,.61.61,0,0,0,0,.15s0,.13,0,.16,0,0,0,0,0,0,0,0a.31.31,0,0,0,0-.09s0-.07-.17-.08h-.39s0,0,0,0v.58s0,0,0,0h.44a.28.28,0,0,0,.12,0s0,0,0,0,0,0,0,0,0,.05,0,.17a1.37,1.37,0,0,0,0,.16s0,0,0,0,0,0,0,0a.28.28,0,0,1,0-.09A.15.15,0,0,0,77,32.8h-.39s0,0,0,0v.53c0,.16.08.2.34.2a.66.66,0,0,0,.24,0,.19.19,0,0,0,.1-.17s0,0,0,0,0,0,0,0a1,1,0,0,1,0,.26c0,.07,0,.07-.13.07H76.12s-.05,0-.05,0,0,0,0,0h.09s.07,0,.07-.12a3.34,3.34,0,0,0,0-.5Z"/><path class="cls-1" d="M78,33.36c0,.18,0,.24.08.25a.3.3,0,0,0,.13,0s.05,0,.05,0,0,0-.06,0h-.6s0,0,0,0,0,0,0,0h.11c.07,0,.07-.08.08-.29l0-1.39c0-.05,0-.08,0-.08s.07,0,.11.08l.77.75.54.52h0l0-1c0-.15,0-.19-.09-.21h-.13s0,0,0,0,0,0,.06,0h.57s0,0,0,0,0,0,0,0h-.08c-.06,0-.08.07-.09.2l0,1.48c0,.06,0,.08,0,.08a.19.19,0,0,1-.11-.05L78.59,33c-.27-.26-.54-.54-.58-.58h0Z"/><path class="cls-1" d="M80.59,32h-.37c-.14,0-.2,0-.24.07a.18.18,0,0,0,0,.08s0,0,0,0,0,0,0,0a2.18,2.18,0,0,1,0-.29s0,0,0,0a.42.42,0,0,0,.11,0h1.5s0,0,0,.05,0,.23,0,.29,0,0,0,0,0,0,0,0v0c0-.06-.07-.13-.3-.13h-.31v1c0,.21,0,.4,0,.5s0,.11.1.12h.13s0,0,0,0,0,0,0,0h-.73s-.05,0-.05,0,0,0,0,0h.09s.06,0,.07-.12,0-.29,0-.5Z"/><path class="cls-1" d="M81.05,29.45h.45V26.22l-.68.12c.22.07.23.11.23.23Zm-1.68,0h.22c.45,0,.76-.23.76-.65V26.22l-.68.12c.23.07.23.11.23.23v2.21c0,.3-.12.49-.41.49h-.12Zm-1,.41a.27.27,0,0,0,0,.53.27.27,0,1,0,0-.53m1.12-.41v-.18h-.15c-.36,0-.58-.46-.58-.78v-1.3l-.69.13c.22.07.23.09.23.2V28.8c0,.29-.11.47-.39.47H77a4.36,4.36,0,0,0,.06-.81V27.19l-.69.13c.23.07.23.11.23.23v1.29a1.34,1.34,0,0,1-1.17,1.51l.38,0A1.09,1.09,0,0,0,77,29.45h1a.77.77,0,0,0,.77-.39.79.79,0,0,0,.65.39Zm-4.31-3.3a.25.25,0,0,0-.26.26.25.25,0,0,0,.26.26.26.26,0,0,0,.26-.26.25.25,0,0,0-.26-.26m-.86,3.3h.36c.44,0,.76-.23.76-.65V27.19l-.69.13c.23.07.23.11.23.23v1.23c0,.29-.11.48-.39.49h-.27Zm-1-.63c0,.48.33.63.77.63h.3v-.18h-.26c-.22,0-.35-.16-.35-.43V26.23l-.83,0v.17c.3,0,.37.05.37.17Zm-1.88-1.11c.37,0,.56.47.56.95s-.28.83-.61.83a.9.9,0,0,1-.67-.39l0-.06a2.78,2.78,0,0,0,.2-.57c.11-.39.21-.76.55-.76Zm-2,1.74h.48a.8.8,0,0,0,.59-.21,1,1,0,0,0,.85.43,1.06,1.06,0,0,0,.13-2.12c-.74,0-.91.47-1,.9s-.24.82-.84.82h-.19Zm-1.23.22a.23.23,0,1,0,.23.22.23.23,0,0,0-.23-.22m-2.11-.4a1.48,1.48,0,0,0,1.46,1l.18-.17h-.11a1,1,0,0,1-1.06-.69h3v-.18h-.68c0-.94-.54-1.94-1.36-1.94a1.13,1.13,0,0,0-.66.22h0l-.1.07s-.09-.14-.12-.2h-.16v1h.19c.09-.48.35-.91.89-.91s.81.62.82,1.77Zm-1.91.18h.46V26.22l-.68.12c.22.07.22.11.22.23Zm-1.67,0h.22c.44,0,.76-.23.76-.65V26.22l-.69.12c.23.07.23.11.23.23v2.21c0,.3-.12.49-.41.49h-.11Zm-1-.34c0,.07,0,.11,0,.16H61c-.29,0-.46-.34-.46-.64a1.15,1.15,0,0,1,.95-1.26h.06ZM60.3,30.36l.42,0a1.11,1.11,0,0,0,1.18-.94h.72v-.18H62a6.24,6.24,0,0,0,0-.81V27.22h-.4a1.41,1.41,0,0,0-1.52,1.44.82.82,0,0,0,.8.79h.6a1.23,1.23,0,0,1-1,.89Zm-3.47-1.09c.1-.49.81-1.77,1.36-1.77s.8.62.82,1.77Zm-1,.18H59.5c0-1.28-.5-2.11-1.33-2.11-.29,0-.78.34-1.18,1.06l.09-1.92-.83,0v.17c.3,0,.33,0,.33.17v1.93a.45.45,0,0,1-.5.49h-.26Zm-1-3.3a.25.25,0,0,0-.26.26.26.26,0,0,0,.26.26.27.27,0,0,0,.27-.26.26.26,0,0,0-.27-.26m1,3.3v-.18h-.14c-.37,0-.58-.46-.58-.78v-1.3l-.69.13c.21.07.23.09.23.2V28.8c0,.29-.12.47-.39.47H54.1v.18h.33a.76.76,0,0,0,.77-.39.79.79,0,0,0,.65.39Zm-3.8.47a.25.25,0,0,0-.26.25.26.26,0,0,0,.26.26.27.27,0,0,0,.27-.26.26.26,0,0,0-.27-.25m-.75,0a.24.24,0,0,0-.26.25.25.25,0,0,0,.26.26.26.26,0,0,0,.26-.26.25.25,0,0,0-.26-.25m2.71-.47h.12v-.18H54c-.4,0-.53-.5-.68-.85s-.24-.53-.3-.67c-.21-.5-.44-.56-.74-.56h-.18a.27.27,0,0,0-.3.29,10,10,0,0,0,.69,1.79H51.1c-.22,0-.35-.16-.35-.43V27.52l-.83,0v.18c.3,0,.37,0,.37.16v.93c0,.48.34.63.78.63H53c-.42-1-.56-1.34-.64-1.51s0-.12-.08-.19a.66.66,0,0,1-.05-.23c0-.08,0-.15.11-.15s.24.1.46.55a1.07,1.07,0,0,0,.09.19l.4.89a.75.75,0,0,0,.78.45m-6.22,0h.23c.44,0,.76-.23.76-.65V26.22l-.69.12c.23.07.23.11.23.23v2.21c0,.3-.12.49-.41.49h-.12Zm-.75-3.3a.25.25,0,0,0-.26.26.25.25,0,0,0,.26.26.26.26,0,0,0,.27-.26.25.25,0,0,0-.27-.26m-.75,0a.25.25,0,0,0-.26.26.25.25,0,0,0,.26.26.27.27,0,0,0,.27-.26.26.26,0,0,0-.27-.26m1.6,3.3v-.18h-.3c-.36,0-.58-.46-.58-.78v-1.3l-.69.13c.22.07.24.09.24.2V28.8c0,.29-.12.47-.39.47h-.39v.18h.47a.75.75,0,0,0,.77-.39.81.81,0,0,0,.66.39Zm-3.06-3.3a.25.25,0,0,0-.26.26.26.26,0,0,0,.26.26.27.27,0,0,0,.27-.26.26.26,0,0,0-.27-.26m1,3.3v-.18h-.14c-.37,0-.58-.46-.58-.78v-1.3l-.69.13c.21.07.23.09.23.2V28.8c0,.29-.12.47-.39.47h-.24v.18h.33a.76.76,0,0,0,.77-.39.79.79,0,0,0,.65.39Zm-3.47-1.74c.38,0,.57.47.57.95s-.28.83-.61.83a.91.91,0,0,1-.69-.42l0,0a2.06,2.06,0,0,0,.19-.54v0c.11-.39.21-.76.54-.76Zm1.64,1.74h.11v-.18H44c-.23,0-.41-.22-.5-.45a1.15,1.15,0,0,0,0-.19,1,1,0,0,0-1-1.08c-.77,0-.9.47-1,.94a1.61,1.61,0,0,1-.31.7.47.47,0,0,1-.2.08H40.8v.18H41a.66.66,0,0,0,.54-.21,1.1,1.1,0,0,0,1.83-.13.8.8,0,0,0,.72.34m-4.29.47a.26.26,0,1,0,0,.51.26.26,0,1,0,0-.51m1.08-.47v-.18H40.6c-.36,0-.58-.46-.58-.78v-1.3l-.69.13c.21.07.23.09.23.2V28.8c0,.29-.11.47-.39.47h-.24v.18h.33a.75.75,0,0,0,.77-.39.81.81,0,0,0,.65.39Zm-1.83.47a.26.26,0,1,0,0,.51.26.26,0,1,0,0-.51m-1.45-3.68a.26.26,0,1,0,0,.52.26.26,0,1,0,0-.52m-.75,0a.26.26,0,1,0,0,.52.26.26,0,1,0,0-.52m.29,1.06c.52,0,.58.48.58.91a2.12,2.12,0,0,1-.06.62.61.61,0,0,1-.56.45c-.22,0-.55-.23-.55-1,0-.52.19-1,.59-1m1.43,2.15H39v-.18h-.58c-.24,0-.27-.27-.27-.41V27.55a1.67,1.67,0,0,1,0-.37H38s0,.06,0,.08a.3.3,0,0,1-.06.12l-.08-.05a1.07,1.07,0,0,0-.62-.21,1.12,1.12,0,0,0-1.07,1.16,1.08,1.08,0,0,0,1,1.17.79.79,0,0,0,.76-.52c0,.46.29.52.64.52Zm-5-1.74c.38,0,.57.47.57.95s-.29.83-.61.83a.88.88,0,0,1-.67-.39l0-.06a3.54,3.54,0,0,0,.2-.57c.11-.39.21-.76.54-.76Zm-2,1.74h.48a.76.76,0,0,0,.58-.21,1.08,1.08,0,1,0,1-1.69c-.74,0-.91.47-1,.9s-.24.82-.84.82h-.19Zm-2.88-.34c.12-.52.43-.8.69-.8a.35.35,0,0,1,.34.36c0,.44-.45.59-.8.6h-.26Zm-.65.34h3.62v-.18h-.65c0-.94-.6-1.9-1.41-1.9a.89.89,0,0,0-1,.76h.22a.72.72,0,0,1,.74-.62c.43,0,.93.61.95,1.76h-.8a.67.67,0,0,0,.41-.52.65.65,0,0,0-.72-.6,1,1,0,0,0-.92.83l-.06.29h-.42Zm-1-.63c0,.48.33.63.77.63h.29v-.18h-.26c-.22,0-.34-.16-.34-.43V26.23l-.83,0v.17c.29,0,.37.05.37.17Zm-1.31,0a1.37,1.37,0,0,1-1.17,1.51l.38,0c1.16,0,1.25-1,1.25-1.91V27.19l-.69.13c.23.07.23.11.23.23Zm-1.62.61h.45V26.22l-.68.12c.22.07.23.11.23.23Zm-1.83-3a.26.26,0,0,0-.26.26.25.25,0,0,0,.26.26.25.25,0,0,0,.27-.26.26.26,0,0,0-.27-.26m-.74,0a.25.25,0,0,0-.27.26.25.25,0,0,0,.27.26.25.25,0,0,0,.26-.26.26.26,0,0,0-.26-.26m-.23,3c-.44,0-.78-.15-.78-.63v-.93c0-.12-.07-.16-.37-.16v-.18l.83,0v1.32c0,.27.13.41.35.43h1.23c.27,0,.39-.2.39-.49V27.55c0-.12,0-.16-.24-.23l.69-.13V28.8c0,.42-.26.65-.71.65Zm-2.69,0h.46V26.22l-.68.12c.22.07.22.11.22.23Zm-1.67,0h.22c.44,0,.76-.23.76-.65V26.22l-.69.12c.23.07.23.11.23.23v2.21c0,.3-.12.49-.41.49h-.11Zm-.73,0h.82v-.18h-.82Zm-.72,0h.82v-.18H15.6Zm-1.87-3.17a.24.24,0,0,0-.25.23.25.25,0,0,0,.25.24.24.24,0,0,0,.24-.24.23.23,0,0,0-.24-.23m-.39-.53a.22.22,0,1,0,0,.43.2.2,0,0,0,.21-.22.2.2,0,0,0-.21-.21m-.39.53a.23.23,0,0,0-.24.23.24.24,0,0,0,.24.24.24.24,0,0,0,.25-.24.23.23,0,0,0-.25-.23m2.67,3.18h.06v-.19h-.15c-.29,0-.51-.3-.57-.6V27.2l-.68.13c.23.07.23.1.23.22V28.8c0,.3-.12.49-.41.49s-.57-.48-.57-.8V27.38l-.69.13c.23.08.24.1.24.2V28.8c0,.3-.12.49-.42.49s-.52-.39-.55-.7v-1l-.69.13c.24.07.24.09.24.2v.89c0,.3-.12.49-.41.49h-.12v.18h.22a.74.74,0,0,0,.71-.34.8.8,0,0,0,.72.35A.76.76,0,0,0,13.5,29a.77.77,0,0,0,.71.43.71.71,0,0,0,.72-.44.78.78,0,0,0,.69.44m-5.21,0h.81v-.18h-.81Zm-.73,0h.82v-.18H9.68Zm-.72,0h.82v-.18H9Zm-1,.41a.27.27,0,1,0,.27.26.28.28,0,0,0-.27-.26m1.11-.41v-.18H8.91c-.37,0-.58-.46-.58-.78v-1.3l-.69.13c.21.07.23.09.23.2V28.8c0,.29-.12.47-.39.47H7.24v.18h.33a.76.76,0,0,0,.77-.39.79.79,0,0,0,.65.39Zm-2.54,0h.82v-.18H6.51Zm-.72,0h.82v-.18H5.79Zm-.72,0h.81v-.18H5.07Zm-1-.63c0,.48.33.63.77.63h.29v-.18H4.9c-.22,0-.34-.16-.34-.43V26.23l-.83,0v.17c.29,0,.37.05.37.17ZM1.84,30a.26.26,0,1,0,0,.52.26.26,0,1,0,0-.52m-.7-.52c-.43,0-.77-.15-.77-.63v-.93c0-.12-.07-.16-.37-.16v-.18l.83,0v1.32c0,.27.13.41.35.43H2.41c.27,0,.38-.2.38-.49V27.55c0-.12,0-.16-.23-.23l.69-.13V28.8c0,.42-.26.65-.71.65Z"/><path class="cls-1" d="M38.67,6.29,35.29,11.9a1.31,1.31,0,0,1-1.13.65A1.3,1.3,0,0,1,33.08,12L30.22,7.25a.93.93,0,0,0-.8-.45,1,1,0,0,0-.37.08,1,1,0,0,0-.44.38l-4.29,7.12h2.46l2.71-4.5a.91.91,0,0,1,.74-.37A.9.9,0,0,1,31,10l0,0,2.65,4.4h3.13L40.19,8.8Z"/><path class="cls-1" d="M40.58,15.07H34.1l2,3.27a1.58,1.58,0,0,0,2.55,0Z"/><polygon class="cls-1" points="30.96 11.22 29.06 14.38 32.87 14.38 30.96 11.22"/><path class="cls-1" d="M46.59,6.34a1.36,1.36,0,0,1,1.09.55l1.7,2.82,2.82,4.67H53L46.89,4.21a1.88,1.88,0,0,0-1.49-.85h-.07a1.82,1.82,0,0,0-1.6.92L41,8.8l1.67,2.78,2.8-4.65a1.36,1.36,0,0,1,1.11-.59"/><polygon class="cls-1" points="40.6 9.48 37.64 14.38 40.99 14.38 42.27 12.26 40.6 9.48"/><path class="cls-1" d="M43.09,12.26,44,13.79l2.43-4a1.75,1.75,0,0,1,1.49-.83h.16l-.9-1.49c-.2-.36-.4-.42-.6-.42a.61.61,0,0,0-.5.26Z"/><polygon class="cls-1" points="42.68 12.94 41.81 14.38 43.55 14.38 42.68 12.94"/><path class="cls-1" d="M38.26,5.6l-.09-.14a2.31,2.31,0,0,0-3.76,0L32.2,9.17l1.48,2.45a.59.59,0,0,0,1-.06Z"/><path class="cls-1" d="M45.33,2.58h.1a2,2,0,0,1,.42.05L44.61.58A1.5,1.5,0,0,0,43.41,0h-.08a1.53,1.53,0,0,0-1.17.67l-3,4.93L40.6,8l2.43-4a2.63,2.63,0,0,1,2.3-1.33"/></g></g></svg>