<svg xmlns="http://www.w3.org/2000/svg" viewBox="0 0 112.68 18.98"><defs><style>.cls-1{fill:#fff;}</style></defs><title>Ресурс 2</title><g id="Слой_2" data-name="Слой 2"><g id="Layer_1" data-name="Layer 1"><path class="cls-1" d="M31.7,14c0,.21,0,.28.1.3a.39.39,0,0,0,.15,0s.05,0,.05,0,0,0-.07,0h-.66s-.06,0-.06,0l0,0h.13c.08,0,.09-.1.09-.34l0-1.64s0-.09,0-.09.06,0,.11.09.47.48.88.88l.63.63h0l0-1.24c0-.17,0-.23-.1-.25a.39.39,0,0,0-.15,0s0,0,0,0,0,0,.07,0h.63s.06,0,.06,0,0,0-.05,0h-.09c-.08,0-.1.08-.1.23l0,1.75c0,.06,0,.09,0,.09s-.06,0-.1-.07-.54-.52-.83-.81-.63-.64-.68-.69h0Z"/><path class="cls-1" d="M34.82,13.67s0,0,0,0l-.23-.59s0,0,0,0v0l-.24.59s0,0,0,0Zm-.53.13h0l-.13.32a.37.37,0,0,0,0,.15s0,.06.1.06h0s0,0,0,0,0,0,0,0h-.57s0,0,0,0a0,0,0,0,1,0,0h.07c.12,0,.16-.09.21-.21l.66-1.47c0-.06,0-.09.07-.09s.05,0,.07.07l.64,1.44c.1.22.17.25.21.25h.1a0,0,0,0,1,0,0s0,0-.11,0h-.48s-.07,0-.07,0,0,0,0,0,0,0,0-.05l-.19-.48h-.61Z"/><path class="cls-1" d="M36.13,12.76h-.38c-.14,0-.2,0-.24.08a.2.2,0,0,0,0,.08s0,0,0,0,0,0,0,0,0-.27,0-.29,0,0,0,0l.11,0h1.5s0,0,0,.05v.28s0,0,0,0,0,0,0-.05v0c0-.06-.07-.14-.29-.14h-.32v1c0,.21,0,.4,0,.5s0,.11.1.12h.13s0,0,0,0,0,0-.05,0H36s-.05,0-.05,0,0,0,0,0H36c.05,0,.07-.05.07-.12a3.34,3.34,0,0,0,0-.5Z"/><path class="cls-1" d="M37.59,13.29V12.8c0-.09,0-.11-.09-.13h-.09s0,0,0,0,0,0,.06,0h.66s0,0,0,0,0,0,0,0H38c-.07,0-.09,0-.1.13v.91c0,.23,0,.41,0,.51s0,.1.1.11h.13s0,0,0,0,0,0-.05,0h-.73s0,0,0,0,0,0,0,0h.09c.05,0,.06,0,.07-.11s0-.28,0-.51Z"/><path class="cls-1" d="M40.15,13.55a.76.76,0,0,0-.72-.85c-.28,0-.61.15-.61.73a.78.78,0,0,0,.76.87c.17,0,.57-.08.57-.75m-1.7-.05a1,1,0,0,1,1-.92c.63,0,1,.34,1,.88a1,1,0,0,1-1.05,1,.93.93,0,0,1-1-.92"/><path class="cls-1" d="M41.15,14.07c0,.18,0,.24.08.26h.13s0,0,0,0,0,0-.06,0h-.6s0,0,0,0,0,0,0,0h.11c.07,0,.07-.08.08-.28l0-1.4c0-.05,0-.08,0-.08s.07,0,.11.08l.77.75.54.53h0l0-1c0-.14,0-.18-.09-.21h-.13s0,0,0,0,0,0,.06,0h.57s0,0,0,0,0,0,0,0H42.7c-.06,0-.08.06-.09.19l0,1.49c0,.05,0,.07,0,.07a.14.14,0,0,1-.11-.05l-.73-.68c-.27-.25-.54-.54-.58-.58h0Z"/><path class="cls-1" d="M44,13.67s0,0,0,0l-.24-.59v0s0,0,0,0l-.24.59s0,0,0,0Zm-.53.13h0l-.14.32a.56.56,0,0,0,0,.15s0,.06.1.06h0s0,0,0,0,0,0,0,0h-.57s0,0,0,0,0,0,0,0h.08c.11,0,.15-.09.21-.21l.65-1.47c0-.06,0-.09.07-.09s0,0,.08.07.47,1.09.63,1.44.17.25.22.25h.09s0,0,0,0,0,0-.11,0h-.48s-.08,0-.08,0,0,0,0,0a0,0,0,0,0,0-.05l-.2-.48h-.61Z"/><path class="cls-1" d="M45.51,13.71c0,.3,0,.45.06.49s.14.05.33.05.23,0,.29-.06a.37.37,0,0,0,.07-.14s0,0,0,0,0,0,0,.05a1.6,1.6,0,0,1,0,.27c0,.06,0,.07-.16.07H45s0,0,0,0,0,0,0,0h.09s.07-.05.08-.12,0-.29,0-.5V12.8c0-.09,0-.11-.11-.13H45s0,0,0,0,0,0,.06,0h.7s.06,0,.06,0,0,0,0,0h-.1c-.07,0-.09,0-.09.13a4.17,4.17,0,0,0,0,.49Z"/><path class="cls-1" d="M48,13.68a.6.6,0,0,0-.07-.3s-.4-.65-.5-.79a.53.53,0,0,0-.2-.2.25.25,0,0,0-.12,0s0,0,0,0,0,0,.06,0h.66s0,0,0,0,0,0-.06,0a.05.05,0,0,0,0,.05.22.22,0,0,0,0,.1c0,.08.44.75.49.83,0-.07.38-.68.42-.76a.37.37,0,0,0,0-.15.06.06,0,0,0-.06-.07s-.05,0-.05,0,0,0,.05,0h.57s0,0,0,0,0,0,0,0l-.13,0a.39.39,0,0,0-.15.14,9,9,0,0,0-.54.88.56.56,0,0,0-.05.28v.22s0,.16,0,.28,0,.14.12.15h.14s0,0,0,0,0,0-.06,0H47.8s-.07,0-.07,0,0,0,.05,0h.1c.06,0,.08-.07.09-.15s0-.23,0-.28Z"/><path class="cls-1" d="M50.89,13.55a.76.76,0,0,0-.73-.85c-.27,0-.6.15-.6.73a.78.78,0,0,0,.76.87c.17,0,.57-.08.57-.75m-1.7-.05a1,1,0,0,1,1.05-.92c.63,0,1,.34,1,.88a1,1,0,0,1-1,1,.93.93,0,0,1-1-.92"/><path class="cls-1" d="M51.71,13.29a4.17,4.17,0,0,0,0-.49c0-.09,0-.11-.11-.13H51.5s0,0,0,0,0,0,0,0h.7s0,0,0,0,0,0,0,0h-.07c-.07,0-.09,0-.09.13a4.17,4.17,0,0,0,0,.49v.33c0,.35.07.48.19.57a.48.48,0,0,0,.32.1.47.47,0,0,0,.33-.13.72.72,0,0,0,.15-.57v-.3c0-.35,0-.42,0-.49s0-.11-.1-.13h-.1s0,0,0,0,0,0,.05,0h.59s.06,0,.06,0,0,0-.05,0h-.07c-.07,0-.09,0-.09.13s0,.14,0,.49v.26a.83.83,0,0,1-.24.7.75.75,0,0,1-.53.17.86.86,0,0,1-.57-.16.77.77,0,0,1-.22-.62Z"/><path class="cls-1" d="M54.31,12.76h-.38c-.14,0-.2,0-.24.08l0,.08s0,0,0,0,0,0,0,0,0-.27,0-.29,0,0,0,0l.11,0h1.5s0,0,0,.05v.28s0,0,0,0,0,0,0-.05v0c0-.06-.07-.14-.29-.14h-.32v1c0,.21,0,.4,0,.5s0,.11.09.12h.13s0,0,0,0,0,0-.05,0h-.73s0,0,0,0,0,0,0,0h.09c.05,0,.07-.05.08-.12s0-.29,0-.5Z"/><path class="cls-1" d="M57.07,13.38s0,0,0,0v0c0-.35,0-.44,0-.52s0-.1-.11-.12h-.09s-.05,0-.05,0,0,0,.06,0h.69s.06,0,.06,0,0,0,0,0h-.07c-.07,0-.09,0-.09.12a4.53,4.53,0,0,0,0,.5v.42c0,.21,0,.4,0,.5s0,.11.1.12h.13s0,0,0,0,0,0-.05,0h-.73s-.05,0-.05,0,0,0,0,0H57s.07-.05.07-.12a3.27,3.27,0,0,0,0-.5v-.18h-1v.18c0,.22,0,.4,0,.5s0,.11.1.12h.13s0,0,0,0,0,0,0,0h-.73s0,0,0,0,0,0,0,0h.09c.05,0,.06-.05.07-.12s0-.29,0-.5v-.92c0-.08,0-.1-.11-.12h-.1s0,0,0,0,0,0,.06,0h.69s.06,0,.06,0,0,0,0,0h-.07c-.07,0-.09,0-.09.12a5,5,0,0,0,0,.52v0s0,0,0,0Z"/><path class="cls-1" d="M59.15,13.1a5.71,5.71,0,0,0,0-.58c0-.1,0-.14-.12-.16h-.11s0,0,0,0,0,0,.06,0h.83a.73.73,0,0,1,.53.16.48.48,0,0,1,.14.33.67.67,0,0,1-.7.67h-.06s0,0,0,0,0,0,.08,0a.45.45,0,0,0,.39-.46.51.51,0,0,0-.17-.41.46.46,0,0,0-.29-.11h-.11a.06.06,0,0,0,0,.05v1.11c0,.25,0,.47,0,.59s0,.14.11.15h.15s0,0,0,0,0,0-.05,0H59s-.06,0-.06,0,0,0,.05,0h.1c.06,0,.07-.07.09-.15s0-.34,0-.59Z"/><path class="cls-1" d="M61.27,13.48s0,0,0,0l.19,0a.23.23,0,0,0,.17,0,.44.44,0,0,0-.22-.77H61.3s0,0,0,0ZM61,13.29V12.8c0-.09,0-.11-.11-.13h-.1s0,0,0,0,0,0,.06,0h.73a.93.93,0,0,1,.47.1.4.4,0,0,1,.18.33c0,.17-.1.33-.35.52.23.26.4.48.55.62a.48.48,0,0,0,.27.16h.06a0,0,0,0,1,0,0s0,0-.05,0h-.24a.61.61,0,0,1-.27,0A1.26,1.26,0,0,1,61.8,14c-.1-.13-.21-.29-.24-.32a0,0,0,0,0,0,0h-.23s0,0,0,0v0c0,.22,0,.4,0,.5s0,.11.09.12h.13a0,0,0,0,1,0,0s0,0,0,0h-.7s0,0,0,0,0,0,0,0h.09c.05,0,.06-.05.07-.12s0-.29,0-.5Z"/><path class="cls-1" d="M64.32,13.55a.76.76,0,0,0-.72-.85c-.28,0-.61.15-.61.73a.78.78,0,0,0,.76.87c.17,0,.57-.08.57-.75m-1.7-.05a1,1,0,0,1,1.05-.92c.63,0,1,.34,1,.88a1,1,0,0,1-1,1,.93.93,0,0,1-1-.92"/><path class="cls-1" d="M66.77,14.23c0,.07,0,.07,0,.09a1.54,1.54,0,0,1-.61.1c-.61,0-1.16-.27-1.16-.92a.87.87,0,0,1,.44-.77,1.32,1.32,0,0,1,.67-.15,3,3,0,0,1,.45,0l.2,0s0,0,0,0a2.69,2.69,0,0,0,0,.39s0,0,0,0,0,0,0,0a.28.28,0,0,0-.08-.19.94.94,0,0,0-1-.05.7.7,0,0,0-.23.58.83.83,0,0,0,.87.87.52.52,0,0,0,.18,0,.07.07,0,0,0,0-.08V14a2.18,2.18,0,0,0,0-.28c0-.08,0-.1-.1-.13h-.1s0,0,0,0,0,0,0,0h.68s0,0,0,0a0,0,0,0,1,0,0h-.07c-.07,0-.09,0-.09.13a2.27,2.27,0,0,0,0,.28Z"/><path class="cls-1" d="M67.79,13.48a.05.05,0,0,0,0,0l.19,0a.26.26,0,0,0,.18,0,.44.44,0,0,0-.22-.77h-.15a.05.05,0,0,0,0,0Zm-.32-.19V12.8c0-.09,0-.11-.11-.13h-.1s0,0,0,0,0,0,.06,0H68a.93.93,0,0,1,.47.1.43.43,0,0,1,.18.33c0,.17-.11.33-.35.52a8.27,8.27,0,0,0,.55.62.48.48,0,0,0,.27.16h.06a0,0,0,0,1,0,0s0,0,0,0h-.24a.58.58,0,0,1-.27,0,1.26,1.26,0,0,1-.34-.35c-.1-.13-.21-.29-.24-.32s0,0,0,0h-.22s0,0,0,0v0c0,.22,0,.4,0,.5s0,.11.1.12H68a0,0,0,0,1,0,0s0,0,0,0h-.69s0,0,0,0,0,0,0,0h.09s.06-.05.07-.12,0-.29,0-.5Z"/><path class="cls-1" d="M70.06,13.67s0,0,0,0l-.24-.59v0s0,0,0,0l-.24.59s0,0,0,0Zm-.53.13h0l-.14.32a.56.56,0,0,0,0,.15s0,.06.1.06h0s0,0,0,0,0,0,0,0H68.9s0,0,0,0,0,0,0,0H69c.11,0,.15-.09.21-.21l.65-1.47c0-.06.05-.09.07-.09s0,0,.08.07l.63,1.44c.1.22.17.25.22.25h.09s0,0,0,0,0,0-.11,0h-.48s-.08,0-.08,0,0,0,0,0a0,0,0,0,0,0-.05l-.2-.48h-.61Z"/><path class="cls-1" d="M71.37,12.63a.06.06,0,0,1,0-.06s0,0,.08.08l.67,1.3.67-1.32a.1.1,0,0,1,.07-.06s0,0,.06.08l.22,1.44c0,.15,0,.21.13.24a.45.45,0,0,0,.14,0l0,0s0,0-.07,0l-.51,0c-.06,0-.08,0-.08,0l0,0s0,0,0-.1l-.14-1h0l-.53,1c-.06.11-.08.13-.1.13s-.06-.05-.1-.12l-.29-.53c0-.05-.17-.33-.25-.5h0l-.12.91s0,.07,0,.11,0,.06.08.07h.09s0,0,0,0,0,0-.06,0H71s0,0,0,0,0,0,0,0H71c.07,0,.09-.11.1-.18Z"/><path class="cls-1" d="M75.09,13.72c0,.22,0,.39,0,.49s0,.11.1.12h.12s0,0,0,0,0,0,0,0h-.72s0,0,0,0,0,0,0,0h.08c.06,0,.07-.05.08-.12s0-.27,0-.5v-.92c0-.08,0-.1-.11-.12h-.1s0,0,0,0,0,0,.06,0h1.17l0,0s0,0,0,0a.31.31,0,0,0,0,.1s0,.16,0,.19,0,.05,0,.05,0,0,0,0a.16.16,0,0,0,0-.09s-.06-.07-.16-.07h-.41s0,0,0,0v.57s0,0,0,0h.47a.12.12,0,0,0,.1,0s0,0,0,0a0,0,0,0,1,0,0l0,.15a1.16,1.16,0,0,0,0,.17s0,0,0,0,0,0,0,0a.25.25,0,0,0,0-.07.12.12,0,0,0-.12-.09h-.4s0,0,0,0Z"/><path class="cls-1" d="M77.79,13.55a.76.76,0,0,0-.73-.85c-.27,0-.6.15-.6.73a.78.78,0,0,0,.76.87c.17,0,.57-.08.57-.75m-1.7-.05a1,1,0,0,1,1-.92c.63,0,1,.34,1,.88a1,1,0,0,1-1,1,.92.92,0,0,1-1-.92"/><path class="cls-1" d="M79,13.48s0,0,0,0l.19,0a.28.28,0,0,0,.18,0,.4.4,0,0,0,.16-.35.38.38,0,0,0-.38-.42H79s0,0,0,0Zm-.32-.19V12.8c0-.09,0-.11-.11-.13h-.1s0,0,0,0,0,0,.06,0h.73a1,1,0,0,1,.48.1.42.42,0,0,1,.17.33c0,.17-.1.33-.34.52a8.27,8.27,0,0,0,.55.62.47.47,0,0,0,.26.16h.06a0,0,0,0,1,0,0s0,0,0,0h-.24a.66.66,0,0,1-.28,0,1.41,1.41,0,0,1-.34-.35c-.1-.13-.2-.29-.23-.32a.06.06,0,0,0,0,0H79s0,0,0,0v0c0,.22,0,.4,0,.5s0,.11.1.12h.12a0,0,0,0,1,0,0s0,0,0,0h-.7s0,0,0,0,0,0,0,0h.09s.07-.05.08-.12,0-.29,0-.5Z"/><path class="cls-1" d="M81.33,14.36s0,0,0-.09,0-.32,0-.37,0-.07,0-.07,0,0,0,.05a1.21,1.21,0,0,0,0,.14.4.4,0,0,0,.41.28.35.35,0,0,0,.38-.32c0-.13,0-.26-.28-.44l-.13-.1c-.31-.24-.42-.43-.42-.66s.26-.52.65-.52a1.32,1.32,0,0,1,.38.05s0,0,0,0,0,.12,0,.33,0,.09,0,.09,0,0,0,0a.34.34,0,0,0-.07-.19.37.37,0,0,0-.31-.13c-.21,0-.34.12-.34.28s.06.23.3.4l.08.06c.34.25.47.44.47.71a.57.57,0,0,1-.27.48.81.81,0,0,1-.45.11,1.06,1.06,0,0,1-.42-.07"/><path class="cls-1" d="M83.36,13.4h0l.52-.52c.07-.08.13-.13.13-.17s0,0,0-.05,0,0,0,0,0,0,0,0h.55s0,0,0,0,0,0,0,0l-.15,0a.57.57,0,0,0-.26.17l-.53.5c.09.11.58.61.68.7a1,1,0,0,0,.34.25.35.35,0,0,0,.15,0s0,0,0,0,0,0-.06,0h-.4a.53.53,0,0,1-.32-.15c-.11-.1-.59-.64-.64-.71l0,0h0v.71c0,.07,0,.11.1.12h.12a0,0,0,0,1,0,0s0,0,0,0h-.69s-.05,0-.05,0,0,0,0,0H83s.06-.05.07-.12,0-.29,0-.5V12.8c0-.09,0-.11-.11-.13h-.1s0,0,0,0,0,0,.06,0h.67s0,0,0,0a0,0,0,0,1,0,0h-.07c-.07,0-.09,0-.1.13v.6Z"/><path class="cls-1" d="M85,13.29V12.8c0-.09,0-.11-.09-.13H84.8s0,0,0,0,0,0,.06,0h.66s0,0,0,0,0,0,0,0h-.08c-.06,0-.08,0-.09.13v.91c0,.23,0,.41,0,.51s0,.1.1.11h.12s0,0,0,0,0,0,0,0h-.74s0,0,0,0,0,0,0,0h.08c.06,0,.07,0,.08-.11s0-.28,0-.51Z"/><path class="cls-1" d="M86.47,13.71c0,.3,0,.45.06.49s.14.05.33.05.23,0,.29-.06a.25.25,0,0,0,.06-.14s0,0,0,0,0,0,0,.05a1.6,1.6,0,0,1,0,.27c0,.06,0,.07-.16.07H86s0,0,0,0,0,0,0,0h.09s.07-.05.08-.12,0-.29,0-.5v-.42a4.17,4.17,0,0,0,0-.49c0-.09,0-.11-.1-.13h-.09s0,0,0,0,0,0,0,0h.71s0,0,0,0,0,0,0,0h-.1c-.07,0-.09,0-.09.13a4.17,4.17,0,0,0,0,.49Z"/><path class="cls-1" d="M88,13.71c0,.3,0,.45.06.49s.14.05.33.05.23,0,.29-.06a.25.25,0,0,0,.06-.14s0,0,0,0,0,0,0,.05a1.6,1.6,0,0,1,0,.27c0,.06,0,.07-.16.07h-1.1s-.05,0-.05,0,0,0,0,0h.09s.07-.05.08-.12,0-.29,0-.5v-.42a4.17,4.17,0,0,0,0-.49c0-.09,0-.11-.1-.13h-.09s0,0,0,0,0,0,0,0h.71s0,0,0,0,0,0,0,0h-.1c-.07,0-.09,0-.09.13a4.17,4.17,0,0,0,0,.49Z"/><path class="cls-1" d="M89.14,14.36s0,0,0-.08a2,2,0,0,1,0-.31s0-.06,0-.06,0,0,0,0a.6.6,0,0,0,0,.12.41.41,0,0,0,.4.23.31.31,0,0,0,.35-.3c0-.1,0-.2-.25-.33l-.14-.08c-.3-.17-.39-.33-.39-.54s.28-.47.63-.47a1.27,1.27,0,0,1,.35,0s0,0,0,0,0,.1,0,.28,0,.08,0,.08,0,0,0,0a.26.26,0,0,0-.06-.15.33.33,0,0,0-.28-.11c-.18,0-.34.09-.34.25s0,.19.26.31l.1.06c.33.17.43.35.43.57a.49.49,0,0,1-.25.44.75.75,0,0,1-.41.09,1,1,0,0,1-.41-.06"/><path class="cls-1" d="M92.08,13.41V14a.58.58,0,0,0,0,.21c0,.05.15.11.38.11a.94.94,0,0,0,.65-.2.87.87,0,0,0,.24-.69.93.93,0,0,0-.27-.69,1.14,1.14,0,0,0-.81-.28l-.19,0a0,0,0,0,0,0,.05v.91Zm-.36-.31v-.58c0-.1,0-.14-.13-.16h-.11s0,0,0,0,0,0,.07,0h.84a1.51,1.51,0,0,1,1.14.32.93.93,0,0,1,.28.7,1.08,1.08,0,0,1-.31.77,1.32,1.32,0,0,1-1,.33l-.33,0-.28,0h-.36s0,0,0,0,0,0,0,0h.1c.06,0,.08-.07.09-.15s0-.34,0-.59Z"/><path class="cls-1" d="M94.21,13.29V12.8c0-.09,0-.11-.11-.13H94s0,0,0,0,0,0,.06,0h1l.11,0h0s0,0,0,0,0,0,0,.15a.81.81,0,0,1,0,.15s0,0,0,0,0,0,0,0a.16.16,0,0,0,0-.09s0-.07-.16-.08h-.39l0,0v.58s0,0,0,0H95a.16.16,0,0,0,.11,0l0,0s0,0,0,0a1.06,1.06,0,0,1,0,.17c0,.05,0,.14,0,.16s0,.05,0,.05,0,0,0,0v-.08a.15.15,0,0,0-.14-.1h-.4s0,0,0,0v.54c0,.16.08.19.34.19a.61.61,0,0,0,.23,0,.18.18,0,0,0,.11-.17s0,0,0,0,0,0,0,.06a2.3,2.3,0,0,1,0,.26c0,.06,0,.06-.13.06H94.05s0,0,0,0,0,0,0,0h.09c.05,0,.06-.05.07-.12s0-.29,0-.5Z"/><path class="cls-1" d="M95.63,12.84c-.06-.13-.09-.15-.18-.17h-.1a0,0,0,0,1,0,0s0,0,.06,0h.69s.06,0,.06,0,0,0,0,0a.15.15,0,0,0-.1,0s0,0,0,0a.9.9,0,0,0,.06.18L96.44,14h0c.11-.25.43-1,.49-1.16a.37.37,0,0,0,0-.09s0,0,0,0h-.1s0,0,0,0,0,0,.07,0h.5s0,0,0,0,0,0,0,0a.21.21,0,0,0-.12,0s-.07.06-.13.2-.17.35-.3.64l-.34.72c-.06.14-.08.17-.12.17s0,0-.1-.14Z"/><path class="cls-1" d="M97.68,13.29a4.17,4.17,0,0,0,0-.49c0-.09,0-.11-.1-.13h-.1s0,0,0,0,0,0,.06,0h1l.1,0h0s0,0,0,0a.44.44,0,0,0,0,.15s0,.12,0,.15,0,0,0,0,0,0,0,0a.31.31,0,0,0,0-.09s0-.07-.17-.08H98a0,0,0,0,0,0,0v.58s0,0,0,0h.44a.19.19,0,0,0,.12,0l0,0s0,0,0,0,0,.05,0,.17a1,1,0,0,0,0,.16s0,.05,0,.05,0,0,0,0a.19.19,0,0,1,0-.08s0-.09-.14-.1H98s0,0,0,0v.54c0,.16.09.19.34.19a.66.66,0,0,0,.24,0,.22.22,0,0,0,.11-.17s0,0,0,0,0,0,0,.06a1.17,1.17,0,0,1,0,.26c0,.06,0,.06-.13.06H97.51s-.05,0-.05,0,0,0,0,0h.09s.07-.05.08-.12,0-.29,0-.5Z"/><path class="cls-1" d="M99.6,13.71c0,.3,0,.45.05.49s.14.05.33.05.23,0,.3-.06a.35.35,0,0,0,.06-.14s0,0,0,0,0,0,0,.05a1.6,1.6,0,0,1,0,.27c0,.06,0,.07-.16.07H99.1s0,0,0,0,0,0,0,0h.09s.06-.05.07-.12,0-.29,0-.5V12.8c0-.09,0-.11-.11-.13h-.08s0,0,0,0,0,0,0,0h.7s.06,0,.06,0,0,0,0,0H99.7c-.07,0-.09,0-.1.13v.91Z"/><path class="cls-1" d="M102.2,13.55a.76.76,0,0,0-.72-.85c-.28,0-.61.15-.61.73a.79.79,0,0,0,.76.87c.18,0,.57-.08.57-.75m-1.7-.05a1,1,0,0,1,1-.92c.63,0,1,.34,1,.88a1,1,0,0,1-1,1,.93.93,0,0,1-1-.92"/><path class="cls-1" d="M103,13.29V12.8c0-.09,0-.11-.11-.13h-.1s0,0,0,0,0,0,.06,0h.77a.6.6,0,0,1,.47.14.41.41,0,0,1,.12.28.58.58,0,0,1-.62.57h-.08a0,0,0,0,1,0,0s0,0,.08,0a.37.37,0,0,0,.34-.38.44.44,0,0,0-.15-.35.37.37,0,0,0-.25-.09h-.11a.06.06,0,0,0,0,0v.93c0,.21,0,.4,0,.5s0,.11.1.12h.13s0,0,0,0,0,0-.05,0h-.72s0,0,0,0,0,0,0,0H103c.05,0,.06-.05.07-.12s0-.29,0-.5Z"/><path class="cls-1" d="M104.83,12.63s0-.06,0-.06,0,0,.08.08l.67,1.3.67-1.32s0-.06.06-.06,0,0,.06.08l.23,1.44c0,.15,0,.21.12.24l.14,0s0,0,0,0,0,0-.06,0l-.52,0c-.06,0-.07,0-.07,0l0,0s0,0,0-.1l-.14-1h0l-.54,1c-.06.11-.07.13-.1.13s-.06-.05-.1-.12l-.29-.53c0-.05-.16-.33-.25-.5h0l-.11.91a.41.41,0,0,0,0,.11c0,.05,0,.06.07.07h.09s0,0,0,0,0,0-.06,0h-.51s0,0,0,0,0,0,0,0h.08c.07,0,.09-.11.1-.18Z"/><path class="cls-1" d="M107.36,13.29V12.8c0-.09,0-.11-.11-.13h-.1s0,0,0,0,0,0,.06,0h1l.1,0h0s0,0,0,0,0,0,0,.15,0,.12,0,.15,0,0,0,0,0,0,0,0a.16.16,0,0,0,0-.09s0-.07-.16-.08h-.4s0,0,0,0v.58s0,0,0,0h.44a.17.17,0,0,0,.12,0s0,0,0,0,0,0,0,0a1.06,1.06,0,0,1,0,.17c0,.05,0,.14,0,.16s0,.05,0,.05l0,0a.25.25,0,0,0,0-.08s0-.09-.14-.1h-.39s0,0,0,0v.19c0,.08,0,.28,0,.35s.08.19.34.19a.61.61,0,0,0,.23,0,.22.22,0,0,0,.11-.17s0,0,0,0,0,0,0,.06a2.3,2.3,0,0,1,0,.26c0,.06,0,.06-.14.06H107.2s0,0,0,0,0,0,0,0h.09s.06-.05.07-.12,0-.29,0-.5Z"/><path class="cls-1" d="M109.1,14.07c0,.18,0,.24.09.26h.13s0,0,0,0,0,0-.06,0h-.59s-.06,0-.06,0,0,0,0,0h.12c.06,0,.07-.08.07-.28l0-1.4c0-.05,0-.08,0-.08s.06,0,.11.08.4.4.77.75l.54.53h0l0-1c0-.14,0-.18-.08-.21h-.13s0,0,0,0,0,0,.06,0h.56s.06,0,.06,0,0,0,0,0h-.08c-.07,0-.09.06-.09.19l0,1.49c0,.05,0,.07,0,.07a.12.12,0,0,1-.1-.05l-.73-.68c-.28-.25-.54-.54-.59-.58h0Z"/><path class="cls-1" d="M111.67,12.76h-.37c-.15,0-.21,0-.25.08l0,.08a0,0,0,0,1,0,0s0,0,0,0,.05-.27.05-.29,0,0,0,0l.11,0h1.51s0,0,0,.05,0,.22,0,.28,0,0,0,0,0,0,0-.05v0c0-.06-.07-.14-.3-.14H112v1c0,.21,0,.4,0,.5s0,.11.1.12h.12s0,0,0,0,0,0,0,0h-.73s0,0,0,0,0,0,0,0h.08s.07-.05.08-.12,0-.29,0-.5Z"/><path class="cls-1" d="M112.12,10.17h.46V6.93l-.68.13c.22.07.22.1.22.22Zm-1.67,0h.22a.67.67,0,0,0,.76-.66V6.93l-.69.13c.23.07.23.1.23.22V9.49c0,.3-.12.49-.41.49h-.11Zm-1,.4a.28.28,0,0,0-.27.27.27.27,0,0,0,.54,0,.28.28,0,0,0-.27-.27m1.12-.4V10h-.15c-.36,0-.58-.46-.58-.78V7.91l-.69.12c.21.08.23.1.23.21V9.51c0,.29-.12.47-.39.47h-.9a5.42,5.42,0,0,0,.06-.81V7.91l-.7.12c.23.08.24.11.24.23V9.55a1.35,1.35,0,0,1-1.17,1.51l.37,0a1.07,1.07,0,0,0,1.16-.91h1a.74.74,0,0,0,.77-.4.81.81,0,0,0,.66.4Zm-4.32-3.31a.26.26,0,1,0,.27.26.26.26,0,0,0-.27-.26m-.85,3.31h.36a.66.66,0,0,0,.75-.66V7.91l-.69.12c.23.08.24.11.24.23V9.49c0,.3-.12.48-.39.49h-.27Zm-1-.64c0,.49.33.64.77.64h.29V10h-.26c-.22,0-.34-.16-.34-.43V6.94L104,7v.16c.29,0,.37.05.37.17Zm-1.89-1.11c.38,0,.56.47.56.95s-.28.84-.61.84a1,1,0,0,1-.67-.39l0-.06a3.63,3.63,0,0,0,.2-.58c.1-.39.21-.76.54-.76Zm-2,1.75H101a.76.76,0,0,0,.58-.22,1.09,1.09,0,0,0,2-.6,1.05,1.05,0,0,0-1-1.09c-.75,0-.91.47-1,.9s-.24.82-.83.82h-.2Zm-1.23.21a.22.22,0,0,0-.22.23.22.22,0,0,0,.22.22.23.23,0,1,0,0-.45M97.18,10a1.5,1.5,0,0,0,1.47,1l.17-.17h-.11a1,1,0,0,1-1.06-.68h3V10h-.68C99.93,9,99.41,8,98.59,8a1.25,1.25,0,0,0-.67.22h0l-.1.07s-.09-.13-.12-.2h-.16v1h.19c.09-.48.35-.9.9-.9s.81.61.81,1.76Zm-1.9.19h.46V6.93l-.69.13c.22.07.23.1.23.22Zm-1.68,0h.23a.67.67,0,0,0,.76-.66V6.93l-.69.13c.23.07.23.1.23.22V9.49c0,.3-.12.49-.41.49H93.6Zm-1-.35a.76.76,0,0,1,0,.16h-.53c-.3,0-.46-.33-.46-.63a1.14,1.14,0,0,1,1-1.26h0Zm-1.23,1.25.43,0A1.11,1.11,0,0,0,93,10.17h.72V10H93q0-.33,0-.81V7.93h-.39a1.41,1.41,0,0,0-1.52,1.45.82.82,0,0,0,.79.79h.6a1.23,1.23,0,0,1-1,.88ZM87.91,10c.09-.49.8-1.76,1.36-1.76s.8.61.81,1.76Zm-1,.19h3.68c0-1.28-.5-2.12-1.33-2.12-.3,0-.79.34-1.18,1.06l.09-1.92-.83,0v.17c.29,0,.33.05.33.17V9.49a.45.45,0,0,1-.51.49H86.9ZM86,6.86a.26.26,0,1,0,.26.26A.26.26,0,0,0,86,6.86m1,3.31V10h-.15c-.36,0-.58-.46-.58-.78V7.91L85.57,8c.21.08.23.1.23.21V9.51c0,.29-.11.47-.39.47h-.24v.19h.34a.76.76,0,0,0,.77-.4.79.79,0,0,0,.65.4Zm-3.8.46a.25.25,0,0,0-.27.26.26.26,0,0,0,.27.25.26.26,0,0,0,.26-.25.25.25,0,0,0-.26-.26m-.75,0a.25.25,0,0,0-.27.26.26.26,0,0,0,.27.25.26.26,0,0,0,.26-.25.25.25,0,0,0-.26-.26m2.7-.46h.13V10H85c-.39,0-.52-.5-.68-.85s-.23-.52-.29-.67c-.22-.5-.44-.56-.74-.56h-.19a.26.26,0,0,0-.29.29A8.78,8.78,0,0,0,83.54,10H82.18c-.23,0-.35-.16-.35-.43V8.23l-.83,0v.17c.29,0,.37,0,.37.16v.93c0,.49.33.64.78.64h1.93l-.64-1.52a.77.77,0,0,1-.08-.19.64.64,0,0,1-.06-.22c0-.08,0-.15.12-.15s.24.09.45.55a1.5,1.5,0,0,1,.09.18c.1.22.25.53.4.9a.76.76,0,0,0,.78.45m-6.21,0h.22c.45,0,.76-.24.76-.66V6.93l-.68.13c.23.07.23.1.23.22V9.49c0,.3-.12.49-.42.49h-.11Zm-.75-3.31a.26.26,0,1,0,.26.26.26.26,0,0,0-.26-.26m-.75,0a.26.26,0,1,0,.26.26.26.26,0,0,0-.26-.26M79,10.17V10h-.29c-.36,0-.58-.46-.58-.78V7.91L77.46,8c.21.08.23.1.23.21V9.51c0,.29-.12.47-.39.47h-.38v.19h.47a.74.74,0,0,0,.77-.4.82.82,0,0,0,.66.4ZM76,6.86a.26.26,0,1,0,.26.26A.26.26,0,0,0,76,6.86m1,3.31V10h-.15c-.36,0-.58-.46-.58-.78V7.91L75.59,8c.21.08.23.1.23.21V9.51c0,.29-.11.47-.39.47h-.24v.19h.34a.76.76,0,0,0,.77-.4.79.79,0,0,0,.65.4ZM73.54,8.42c.38,0,.56.47.56.95s-.28.84-.61.84a1,1,0,0,1-.69-.42,0,0,0,0,0,0,0,2.63,2.63,0,0,0,.2-.55v0c.1-.39.21-.76.54-.76Zm1.63,1.75h.12V10h-.22a.62.62,0,0,1-.51-.45,1.1,1.1,0,0,0,0-.18,1.05,1.05,0,0,0-1-1.09c-.76,0-.89.47-1,.94a1.67,1.67,0,0,1-.3.7.59.59,0,0,1-.2.08h-.22v.19h.21a.67.67,0,0,0,.55-.22,1,1,0,0,0,.85.43,1,1,0,0,0,1-.55.81.81,0,0,0,.71.34m-4.28.46a.26.26,0,1,0,0,.51.26.26,0,1,0,0-.51M72,10.17V10h-.29c-.37,0-.59-.46-.59-.78V7.91L70.41,8c.21.08.23.1.23.21V9.51c0,.29-.12.47-.39.47H70v.19h.33a.76.76,0,0,0,.77-.4.79.79,0,0,0,.65.4Zm-1.83.46a.26.26,0,1,0,0,.51.26.26,0,1,0,0-.51M68.68,7a.26.26,0,1,0,0,.51.26.26,0,1,0,0-.51m-.74,0a.26.26,0,1,0,0,.51.26.26,0,1,0,0-.51m.29,1c.52,0,.57.49.57.92a2.52,2.52,0,0,1,0,.61.61.61,0,0,1-.56.45c-.22,0-.56-.22-.56-1,0-.52.19-1,.6-1m1.43,2.16h.44V10h-.58c-.25,0-.27-.27-.27-.41V8.26a1.67,1.67,0,0,1,0-.37H69S69,8,69,8a.3.3,0,0,1-.06.12L68.84,8a1.06,1.06,0,0,0-.61-.2A1.1,1.1,0,0,0,67.16,9a1.09,1.09,0,0,0,1,1.18.79.79,0,0,0,.75-.53c0,.46.29.52.65.53Zm-5-1.75c.37,0,.56.47.56.95s-.28.84-.61.84A1,1,0,0,1,64,9.82l0-.06a2.91,2.91,0,0,0,.21-.58c.1-.39.21-.76.54-.76Zm-2,1.75h.49a.77.77,0,0,0,.58-.22,1,1,0,0,0,.86.43,1,1,0,0,0,1.1-1,1.05,1.05,0,0,0-1-1.09c-.75,0-.91.47-1,.9s-.24.82-.84.82h-.19Zm-2.87-.34c.12-.53.42-.8.68-.8a.34.34,0,0,1,.34.35c0,.45-.45.59-.79.6h-.26Zm-.66.34h3.63V10h-.66c0-.93-.6-1.9-1.41-1.9a.9.9,0,0,0-1,.76H60a.71.71,0,0,1,.74-.61c.43,0,.93.6.94,1.75h-.8a.67.67,0,0,0,.42-.52.64.64,0,0,0-.72-.59,1,1,0,0,0-.92.83c0,.1-.06.24-.06.28h-.43Zm-1-.64c0,.49.32.64.77.64h.29V10H59c-.22,0-.35-.16-.35-.43V6.94l-.83,0v.16c.3,0,.38.05.38.17Zm-1.31,0a1.38,1.38,0,0,1-1.17,1.51l.37,0c1.17,0,1.26-1,1.26-1.91V7.91L56.68,8c.22.08.23.11.23.23Zm-1.63.62h.46V6.93l-.68.13c.22.07.22.1.22.22Zm-1.82-3a.26.26,0,1,0,.27.26.25.25,0,0,0-.27-.26m-.75,0a.26.26,0,1,0,0,.51.26.26,0,1,0,0-.51m-.23,3c-.44,0-.77-.15-.77-.64V8.6c0-.12-.08-.16-.37-.16V8.27l.82,0V9.55c0,.27.13.41.35.43h1.24c.27,0,.38-.19.38-.49V8.26c0-.12,0-.15-.23-.23l.69-.12v1.6a.62.62,0,0,1-.71.66Zm-2.68,0h.46V6.93l-.69.13c.22.07.23.1.23.22Zm-1.68,0h.23a.67.67,0,0,0,.76-.66V6.93l-.69.13c.23.07.23.1.23.22V9.49c0,.3-.12.49-.41.49h-.12Zm-.72,0h.82V10H47.4Zm-.73,0h.82V10h-.82ZM44.81,7a.24.24,0,1,0,.24.23A.23.23,0,0,0,44.81,7m-.4-.53a.22.22,0,1,0,0,.43.21.21,0,0,0,.22-.21.21.21,0,0,0-.22-.22M44,7a.22.22,0,0,0-.24.23.23.23,0,0,0,.24.24A.24.24,0,1,0,44,7m2.66,3.18h.06V10h-.14c-.3,0-.51-.3-.57-.59V7.91L45.36,8c.22.07.22.11.22.22V9.51c0,.3-.12.49-.41.49s-.56-.48-.56-.8V8.09l-.69.13c.23.08.23.1.23.2V9.51c0,.3-.12.49-.41.49s-.52-.39-.56-.7v-1l-.68.12c.23.08.23.1.23.21v.88c0,.3-.12.49-.4.49h-.12v.19h.22a.73.73,0,0,0,.7-.35.8.8,0,0,0,.72.35.74.74,0,0,0,.72-.43.77.77,0,0,0,.71.43A.69.69,0,0,0,46,9.74a.82.82,0,0,0,.69.43m-5.21,0h.82V10h-.82Zm-.72,0h.82V10h-.82Zm-.72,0h.81V10H40Zm-1,.4a.27.27,0,0,0-.27.27.27.27,0,0,0,.54,0,.27.27,0,0,0-.27-.27m1.12-.4V10H40c-.36,0-.58-.46-.58-.78V7.91L38.71,8c.21.08.23.1.23.21V9.51c0,.29-.11.47-.39.47h-.24v.19h.34a.76.76,0,0,0,.77-.4.79.79,0,0,0,.65.4Zm-2.54,0h.82V10h-.82Zm-.72,0h.81V10h-.81Zm-.73,0H37V10h-.82Zm-1-.64c0,.49.32.64.77.64h.29V10H36c-.22,0-.35-.16-.35-.43V6.94L34.8,7v.16c.3,0,.38.05.38.17Zm-2.26,1.15a.27.27,0,1,0,.27.27.28.28,0,0,0-.27-.27m-.7-.51c-.44,0-.78-.15-.78-.64V8.6c0-.12-.07-.16-.36-.16V8.27l.82,0V9.55c0,.27.13.41.35.43h1.23c.28,0,.39-.19.39-.49V8.26c0-.12,0-.15-.23-.23l.69-.12v1.6a.63.63,0,0,1-.72.66Z"/><path class="cls-1" d="M14.35,6.29,11,11.9a1.32,1.32,0,0,1-1.14.65A1.3,1.3,0,0,1,8.76,12L5.9,7.25a.93.93,0,0,0-.8-.45,1,1,0,0,0-.37.08,1,1,0,0,0-.44.38L0,14.38H2.46l2.71-4.5a.91.91,0,0,1,.74-.37A.9.9,0,0,1,6.7,10l0,0,2.65,4.4H12.5L15.86,8.8Z"/><path class="cls-1" d="M16.25,15.07H9.78l2,3.27a1.58,1.58,0,0,0,2.55,0Z"/><polygon class="cls-1" points="6.64 11.22 4.74 14.38 8.54 14.38 6.64 11.22"/><path class="cls-1" d="M22.27,6.34a1.36,1.36,0,0,1,1.09.55l1.7,2.82,2.81,4.67h.83L22.57,4.21a1.88,1.88,0,0,0-1.5-.85H21a1.82,1.82,0,0,0-1.6.92L16.69,8.8l1.67,2.78,2.8-4.65a1.36,1.36,0,0,1,1.11-.59"/><polygon class="cls-1" points="16.28 9.48 13.32 14.38 16.67 14.38 17.95 12.26 16.28 9.48"/><path class="cls-1" d="M18.77,12.26l.92,1.53,2.43-4a1.75,1.75,0,0,1,1.48-.83h.17l-.9-1.49c-.2-.36-.4-.42-.6-.42a.61.61,0,0,0-.5.26Z"/><polygon class="cls-1" points="18.36 12.94 17.49 14.38 19.23 14.38 18.36 12.94"/><path class="cls-1" d="M13.94,5.6l-.09-.14a2.31,2.31,0,0,0-3.76,0L7.88,9.17l1.48,2.45a.56.56,0,0,0,.47.24.61.61,0,0,0,.52-.3Z"/><path class="cls-1" d="M21,2.58h.1a1.92,1.92,0,0,1,.41.05L20.29.58A1.52,1.52,0,0,0,19.09,0H19a1.5,1.5,0,0,0-1.17.67l-3,4.93L16.28,8l2.43-4A2.63,2.63,0,0,1,21,2.58"/></g></g></svg>