<svg xmlns="http://www.w3.org/2000/svg" viewBox="0 0 56.71 51.44"><defs><style>.cls-1{fill:#fff;}</style></defs><title>Ресурс 4</title><g id="Слой_2" data-name="Слой 2"><g id="Layer_1" data-name="Layer 1"><path class="cls-1" d="M28,1.34c.1-.23.27-.38.36-.61a6.19,6.19,0,0,1,.41.59c-.11.22-.27.39-.38.61-.14-.19-.27-.39-.39-.59m.87,0a4.94,4.94,0,0,0-.51-.75c-.14.27-.32.51-.48.77a5.44,5.44,0,0,0,.53.73c.13-.27.34-.47.46-.75"/><path class="cls-1" d="M28.39,1.52a.83.83,0,0,0-.13-.18c.06-.07.1-.15.15-.22a2.43,2.43,0,0,0,.14.2c0,.08-.07.18-.16.2m0-.53a2,2,0,0,0-.21.35c.05.11.14.19.19.3a.87.87,0,0,0,.24-.32c-.09-.1-.14-.23-.22-.33"/><path class="cls-1" d="M26.8,3.45c.32-.12.32.36.08.37a.19.19,0,0,1-.08-.37m.14.43c.27,0,.25-.64-.16-.49s-.12.54.16.49"/><path class="cls-1" d="M29.74,3.83c-.17,0-.19-.3,0-.36s.31.41,0,.36m0-.42c-.43.12,0,.69.27.42a.26.26,0,0,0-.27-.42"/><path class="cls-1" d="M26.25,3.51a.18.18,0,0,1,.25.2c-.05.44-.63-.07-.25-.2m0,.43c.44.13.45-.61,0-.49a.27.27,0,0,0,0,.49"/><path class="cls-1" d="M30.15,3.71a.2.2,0,0,1,.35-.12c.14.38-.35.41-.35.12m.08-.22c-.35.14,0,.65.27.45a.26.26,0,0,0-.27-.45"/><path class="cls-1" d="M25.79,3.75a.17.17,0,0,1,.22.17c0,.25-.41.31-.39,0a.2.2,0,0,1,.17-.17m0,.45c.31,0,.36-.59,0-.51a.26.26,0,0,0,0,.51"/><path class="cls-1" d="M30.66,3.87a.21.21,0,0,1,.14-.1c.1,0,.2,0,.22.1.12.38-.47.33-.36,0m.4-.05a.24.24,0,0,0-.28-.11.23.23,0,0,0-.2.27c0,.42.67.22.48-.16"/><path class="cls-1" d="M25.18,4.3c0-.43.65-.1.28.17-.22,0-.27-.08-.28-.17m.34.21c.27-.18,0-.52-.2-.47-.42.08-.11.66.2.47"/><path class="cls-1" d="M31.25,4.51a.19.19,0,0,1-.08-.37c.31-.13.32.35.08.37m-.1-.43a.25.25,0,0,0,.08.49c.35,0,.34-.64-.08-.49"/><path class="cls-1" d="M25.12,4.52c.36.2-.26.61-.29.21,0-.1,0-.23.29-.21m.16.23c0-.21-.12-.31-.28-.28s-.23.12-.23.24a.26.26,0,0,0,.51,0"/><path class="cls-1" d="M31.51,4.58c.31-.11.33.4,0,.37a.19.19,0,0,1,0-.37m.32.17c0-.23-.18-.28-.34-.22s-.2.12-.16.3a.26.26,0,0,0,.5-.08"/><path class="cls-1" d="M24.79,5.05a.17.17,0,0,1,.23.19c0,.48-.72-.09-.23-.19m.24,0A.24.24,0,0,0,24.75,5a.24.24,0,0,0-.18.2c-.06.55.73.28.46-.12"/><path class="cls-1" d="M31.83,5.46a.2.2,0,0,1-.1-.37c.31-.15.37.36.1.37m0,.06c.31,0,.33-.57,0-.51a.26.26,0,0,0,0,.51"/><path class="cls-1" d="M23.68,5.28c.25.27-.24.51-.31.22s.08-.31.31-.22m-.11.42c.29,0,.31-.55,0-.51s-.22.53,0,.51"/><path class="cls-1" d="M33.23,5.3c.21.32-.28.46-.32.18a.19.19,0,0,1,.32-.18m-.14.4a.26.26,0,1,0,0-.51.26.26,0,0,0,0,.51"/><path class="cls-1" d="M23,5.56a.18.18,0,0,1,.26.16.19.19,0,1,1-.38,0A.15.15,0,0,1,23,5.56m.16.43c.25-.08.2-.59-.16-.49s-.16.58.16.49"/><path class="cls-1" d="M33.5,5.56c.3-.11.32.41,0,.36a.19.19,0,0,1,0-.36m-.18.28c.12.4.69,0,.42-.3a.22.22,0,0,0-.26,0c-.13,0-.23.13-.16.34"/><path class="cls-1" d="M24.67,5.62a.18.18,0,0,1,.23.2c0,.45-.66-.09-.23-.2m.06.45c.3,0,.3-.6-.08-.51a.26.26,0,0,0,.08.51"/><path class="cls-1" d="M32.1,5.66c.19.23-.31.54-.35.16a.17.17,0,0,1,.14-.2.23.23,0,0,1,.21,0m-.23-.1a.24.24,0,0,0-.18.2c-.05.45.52.34.51,0,0-.16-.1-.28-.33-.22"/><path class="cls-1" d="M22.88,6.05c.15.34-.3.42-.34.16a.2.2,0,0,1,.34-.16m-.16.38c.32,0,.34-.58,0-.51a.26.26,0,0,0,0,.51"/><path class="cls-1" d="M33.84,6c.31-.14.33.34.1.36a.19.19,0,0,1-.1-.36m.1.42c.29,0,.32-.57,0-.51a.26.26,0,0,0,0,.51"/><path class="cls-1" d="M24.71,6.19c.29-.07.25.38,0,.38s-.28-.32,0-.38m0-.06a.25.25,0,0,0,.06.5c.31,0,.33-.59-.06-.5"/><path class="cls-1" d="M31.85,6.19a.17.17,0,0,1,.25.16c0,.49-.71,0-.25-.16m0-.06a.25.25,0,0,0,.07.5c.28,0,.34-.59-.07-.5"/><path class="cls-1" d="M22.54,6.88c-.2,0-.36-.28-.12-.36s.32.3.12.36m.16-.34a.25.25,0,0,0-.3-.09.25.25,0,0,0-.16.14c-.15.57.73.36.46,0"/><path class="cls-1" d="M34.31,6.72c-.05.42-.65-.07-.24-.2.14,0,.26,0,.24.2m-.26-.27a.26.26,0,0,0,0,.49c.43.12.46-.61,0-.49"/><path class="cls-1" d="M24.83,6.76c.12,0,.24,0,.23.2,0,.45-.68-.1-.23-.2m0-.06c-.34.07-.17.52.09.5s.31-.59-.09-.5"/><path class="cls-1" d="M31.59,7a.18.18,0,0,1,.14-.2A.17.17,0,0,1,32,6.9c0,.25-.37.35-.39.06m.14-.26c-.15,0-.23.1-.2.3A.26.26,0,0,0,32,6.94c0-.17-.08-.29-.31-.24"/><path class="cls-1" d="M27.7,6.88c0,.07-.06,0,0,.12s.09-.12,0-.12"/><path class="cls-1" d="M27.88,6.9s-.06,0,0,.08,0,0,.06,0,0-.11,0-.12"/><path class="cls-1" d="M34.35,7.12c.15.31-.28.43-.34.21a.2.2,0,0,1,.34-.21m-.1.39a.28.28,0,0,0,.18-.37A.23.23,0,0,0,34.17,7c-.39,0-.24.57.08.51"/><path class="cls-1" d="M25.36,7.57c-.07.5-.79-.11-.3-.27a.23.23,0,0,1,.3.27M25,7.24c-.49.15.07.92.35.47A.31.31,0,0,0,25,7.24"/><path class="cls-1" d="M31.45,7.3c.4-.12.38.57,0,.45a.24.24,0,0,1,0-.45m.08.53c.37,0,.39-.73-.1-.59a.31.31,0,0,0,.1.59"/><path class="cls-1" d="M22.36,7.65c.3-.12.33.36.08.37a.19.19,0,0,1-.08-.37m.2.41c.19-.1.16-.61-.22-.47s-.07.61.22.47"/><path class="cls-1" d="M34.09,7.65a.17.17,0,0,1,.26.12c.1.52-.67.07-.26-.12m0-.06c-.3.11-.13.52.14.49s.25-.63-.14-.49"/><path class="cls-1" d="M22.62,8.66c-.25,0-.38-.41-.06-.46s.35.44.06.46m-.08-.52c-.41.08-.23.65.12.58s.3-.66-.12-.58"/><path class="cls-1" d="M34.09,8.66c-.26,0-.39-.4-.06-.46s.32.44.06.46M34,8.14a.26.26,0,0,0-.23.34c.07.49.81.17.55-.24a.28.28,0,0,0-.32-.1"/><path class="cls-1" d="M24.31,9.13c0-.06-.07-.13-.21-.08-.38.15.32.49.21.08"/><path class="cls-1" d="M32.63,9.17c0-.1-.08-.18-.23-.12-.36.15.26.52.23.12"/><path class="cls-1" d="M27.21,10.8a.39.39,0,0,1-.73,0,.38.38,0,1,1,.73,0m-.41-.55a.43.43,0,0,0,0,.85c.55,0,.61-.92,0-.85"/><path class="cls-1" d="M27.9,10.61c.1-.11.26-.17.36-.28.17.05.25.17.41.22a1.19,1.19,0,0,1-.39.31,2.49,2.49,0,0,0-.38-.25m.89-.06c-.19-.08-.33-.22-.53-.3-.14.14-.34.22-.48.36.18.11.35.23.54.33.13-.16.35-.22.47-.39"/><path class="cls-1" d="M29.58,10.39c.57-.15.61.7.15.73a.38.38,0,0,1-.15-.73m.25.77c.51-.14.31-.9-.21-.85,0,0,0,0,0,0-.56.1-.34,1,.23.83"/><path class="cls-1" d="M26.87,10.94c-.28,0-.44-.48-.05-.53s.36.51.05.53m-.13-.57a.25.25,0,0,0-.2.18c-.15.49.7.6.63.07a.3.3,0,0,0-.43-.25"/><path class="cls-1" d="M29.62,10.49c.49-.12.36.66,0,.51-.14-.05-.27-.43,0-.51m.15.57c.33-.06.29-.67-.11-.63s-.3.7.11.63"/><path class="cls-1" d="M25.81,11.24a.37.37,0,0,1,0-.73c.59-.12.55.8,0,.73m0-.79a.43.43,0,0,0-.31.17.45.45,0,0,0,.41.68c.57,0,.44-.93-.1-.85"/><path class="cls-1" d="M28.43,10.57c0,.06-.1.06-.13.1l-.14-.08a.18.18,0,0,1,.27,0m-.37,0a1.16,1.16,0,0,0,.24.14.65.65,0,0,0,.21-.16.28.28,0,0,0-.45,0"/><path class="cls-1" d="M26.76,10.82c-.24-.26.23-.45.25-.16,0,.11-.07.17-.25.16m0-.35a.21.21,0,0,0,0,.41c.31,0,.3-.52,0-.41"/><path class="cls-1" d="M30.31,10.8A.38.38,0,0,1,31,11a.38.38,0,0,1-.73-.24m.33.54a.42.42,0,1,0-.08-.83c-.23.06-.33.16-.31.45a.44.44,0,0,0,.39.38"/><path class="cls-1" d="M29.62,10.61c.12,0,.21,0,.23.1.06.4-.58,0-.23-.1m.06.35c.3,0,.27-.55-.08-.41a.22.22,0,0,0,.08.41"/><path class="cls-1" d="M25.61,10.84c0-.08,0-.19.22-.22a.23.23,0,0,1,.3.2.26.26,0,1,1-.52,0m.16-.27a.32.32,0,0,0,.2.61.32.32,0,0,0-.2-.61"/><path class="cls-1" d="M30.58,10.67c.44-.15.44.49.12.51a.27.27,0,0,1-.12-.51m.1.57c.41,0,.42-.75-.08-.62a.32.32,0,0,0,.08.62"/><path class="cls-1" d="M25.71,10.9a.17.17,0,0,1,.3-.13c.11.27-.27.33-.3.13m.1-.23a.21.21,0,0,0,.08.41c.24,0,.25-.51-.08-.41"/><path class="cls-1" d="M30.84,10.88c0,.11-.05.21-.24.18-.27-.21.19-.45.24-.18m-.08.24c.21-.06.13-.46-.12-.41s-.15.49.12.41"/><path class="cls-1" d="M32.16,10.8c.19.21.33.48.51.71-.26.08-.57.12-.86.18-.14-.25-.32-.45-.44-.71.25-.07.54-.11.79-.18m.65.79a7.9,7.9,0,0,0-.61-.9c-.31.11-.7.13-1,.25.19.28.38.56.56.85l1-.2"/><path class="cls-1" d="M24.63,11.43c-.16,0-.29-.06-.45-.09.07-.14.18-.24.25-.38s.29.07.47.08l-.27.39m-.22-.55c-.1.18-.24.32-.33.5a3.75,3.75,0,0,0,.59.11c.11-.16.23-.32.33-.49l-.59-.12"/><path class="cls-1" d="M32.08,11a2.66,2.66,0,0,1,.28.38,3.1,3.1,0,0,1-.46.11c0-.16-.23-.28-.23-.41a1.24,1.24,0,0,0,.41-.08m.38.45c-.13-.13-.16-.47-.36-.51s-.37.11-.55.14c.13.14.21.33.35.47.2,0,.35-.09.56-.1"/><path class="cls-1" d="M24.57,11.26c-.05,0-.08,0-.14,0a.13.13,0,0,1,.2-.1c0,.06-.05.07-.06.12m-.25,0a2.54,2.54,0,0,0,.29,0c0-.08.1-.14.14-.22-.23-.1-.37,0-.43.18"/><path class="cls-1" d="M32.12,11.3c-.07,0-.09,0-.14,0s-.08-.07-.09-.14.2,0,.23.12m.08,0c0-.06-.09-.19-.16-.24a.79.79,0,0,1-.23,0c0,.12.11.14.13.24a1.78,1.78,0,0,1,.26,0"/><path class="cls-1" d="M27.74,11.49c0,.09.11.08.12.18a1.49,1.49,0,0,0-.12.14c-.1,0-.11-.11-.19-.14s.09-.16.19-.18m.46,0a.27.27,0,0,1,.18.18c-.07,0-.09.13-.18.14s-.1-.1-.12-.18a.28.28,0,0,0,.12-.14m.69.16c0,.08-.09.09-.12.16s-.11-.11-.18-.16c.08-.17.23-.19.3,0m-1.15.28a2.09,2.09,0,0,1,.24-.28c.06.11.16.17.22.28s.16-.22.31-.26a1.2,1.2,0,0,0,.24.26c.07-.11.2-.16.24-.28a2.09,2.09,0,0,0-.22-.28c-.14,0-.16.19-.28.26s-.15-.22-.29-.26a1.78,1.78,0,0,1-.22.26c-.12-.08-.17-.21-.31-.26-.05.12-.16.18-.22.3.11.07.15.21.29.26"/><path class="cls-1" d="M29.3,11.55a.66.66,0,0,1,.12.22.4.4,0,0,0-.16.12c-.06,0-.08-.12-.12-.18s.11-.1.16-.16m.22.18c-.07-.09-.12-.19-.18-.28a.81.81,0,0,0-.33.24,1.28,1.28,0,0,1,.19.3.55.55,0,0,0,.32-.26"/><path class="cls-1" d="M29.79,11.59a.81.81,0,0,1,.16.16c0,.08-.11.11-.14.18s-.09-.12-.17-.16a1.3,1.3,0,0,0,.15-.18m0,.47c.08,0,.16-.23.24-.31a1.76,1.76,0,0,0-.26-.28c-.06.12-.19.17-.25.3.12.05.16.29.27.29"/><path class="cls-1" d="M27.63,11.61c0,.07,0,.08,0,.12.21,0,.09-.26,0-.12"/><path class="cls-1" d="M28.16,11.71s0,0,0,0c.27,0-.08-.33,0,0"/><path class="cls-1" d="M28.71,11.73c.27,0,0-.32,0,0,0,0,0,0,0,0"/><path class="cls-1" d="M30.46,11.89c-.09,0-.11.1-.21.1s-.07-.11-.08-.2.26-.13.29.1m.4-.1c.06.05.07.15.12.2s-.13.08-.18.15a.42.42,0,0,1-.12-.23.44.44,0,0,0,.18-.12m-.28.12.16.32a.8.8,0,0,0,.34-.22,1.91,1.91,0,0,1-.16-.32c-.15,0-.22.15-.36.2,0-.12-.11-.2-.15-.32a.72.72,0,0,0-.34.22l.16.33a4.05,4.05,0,0,0,.35-.21"/><path class="cls-1" d="M27.27,11.65c-.08,0-.08,0-.14,0s0,.13.12.12.05-.08,0-.14"/><path class="cls-1" d="M29.34,11.71c0-.06-.1-.1-.16,0s0,.13.12.12,0,0,0-.08"/><path class="cls-1" d="M26.74,11.75c0-.05-.06-.07-.14-.06a.17.17,0,0,0,0,.14c.08,0,.14,0,.14-.08"/><path class="cls-1" d="M29.89,11.79s0,0,0-.08a.25.25,0,0,0-.13,0,.09.09,0,1,0,.15.1"/><path class="cls-1" d="M26.21,11.79a.12.12,0,0,0-.14,0c0,.05,0,.1,0,.12h.1s0-.06,0-.12"/><path class="cls-1" d="M30.39,11.81s0,0,0,0c-.15,0-.16.08-.1.14s.13,0,.12-.1"/><path class="cls-1" d="M25,12.22c0-.1.06-.14.06-.23s.15.07.23.08-.06.14-.06.23-.14-.07-.23-.08m.39-.19a3.92,3.92,0,0,1-.36-.16c0,.15-.1.24-.13.39.15,0,.22.12.37.14,0-.13.09-.24.12-.37"/><path class="cls-1" d="M31.39,12c.07,0,0,.16.1.21a.52.52,0,0,1-.22.12c0-.09-.06-.13-.06-.23a.81.81,0,0,0,.18-.1m.18.29a.86.86,0,0,0-.14-.39,3.36,3.36,0,0,1-.33.16,3.19,3.19,0,0,0,.13.37c.14,0,.21-.11.34-.14"/><path class="cls-1" d="M25.58,11.89a.12.12,0,0,0,0,.14c.06,0,.1,0,.13,0v-.1c-.05,0-.06,0-.13,0"/><path class="cls-1" d="M30.9,11.91a.08.08,0,1,0-.12.12q.15,0,.12-.12"/><path class="cls-1" d="M31.39,12.22a.25.25,0,0,0,0-.13c-.06-.06-.17,0-.14.11s.06,0,.12,0"/><path class="cls-1" d="M25.06,12.07c0,.07,0,.16.08.15s.06-.06.06-.13a.3.3,0,0,0-.14,0"/><path class="cls-1" d="M24.55,12.4c.05,0,.06,0,.12,0a.22.22,0,0,0,0-.12c-.06-.07-.17,0-.14.1"/><path class="cls-1" d="M31.79,12.42c.08,0,.12,0,.13-.08s-.25,0-.13.08"/><path class="cls-1" d="M24.16,12.6c.22-.06-.09-.29-.08,0,0,0,0,.06.08,0"/><path class="cls-1" d="M32.22,12.56c.27.16.06-.33,0,0"/><path class="cls-1" d="M21.3,15.44c-.06,0,0-.14.08-.08s0,.09-.08.08m.15-.14c-.53-.15,0,.56,0,0"/><path class="cls-1" d="M35.49,15.34c.12,0,.12.12,0,.1a.07.07,0,0,1,0-.1m.06.18c.08,0,.11-.06.1-.2-.24-.23-.35.25-.1.2"/><path class="cls-1" d="M28.65,16.62c0,.1-.08.12-.14.08s.08-.13.14-.08m0,.18a.19.19,0,0,0,.08-.22c-.21-.24-.44.26-.08.22"/><path class="cls-1" d="M28.71,18.37c0,.09.08.08.16.08s.07-.07.06-.15-.07.13-.22.07"/><path class="cls-1" d="M28.57,19.24s.11,0,.1,0-.12,0-.1,0m.16-.06c-.09-.08-.27,0-.22.14s.29,0,.22-.14"/><path class="cls-1" d="M29,20.23a.33.33,0,0,1-.64.17c0-.23,0-.33.22-.39a.31.31,0,0,1,.42.22m-.38-.3a.4.4,0,0,0,.08.79c.51,0,.49-.88-.08-.79"/><path class="cls-1" d="M28.77,20.21a.18.18,0,0,1-.3.19.18.18,0,0,1,.3-.19m.06.33c.27-.24,0-.57-.3-.49-.44.13-.05.79.3.49"/><path class="cls-1" d="M25.71,21.49s-.08,0-.06-.06,0,.06.1,0,0-.07,0-.12-.12.1-.19.14-.15,0-.16.08a.21.21,0,0,0,.33-.08"/><path class="cls-1" d="M31.29,21.51c0-.1,0-.16-.12-.16s-.08,0-.07.1.09-.05.11,0-.06,0,0,.06.09.07.12.13.1-.06.18,0-.14-.17-.18-.09"/><path class="cls-1" d="M31.63,21.7v-.1c-.07,0-.06-.06-.12-.05s0,.12,0,.19l.2.08s0-.08,0-.08a.3.3,0,0,0,0,.1c.1,0,.08-.12,0-.16s-.13,0-.16,0"/><path class="cls-1" d="M25.62,22.45a1.87,1.87,0,0,0-.22-.39,1,1,0,0,1,.29-.18,1.38,1.38,0,0,1,.26.4c-.13,0-.18.15-.33.17M25.3,22a2.24,2.24,0,0,0,.35.55l.4-.25a2.73,2.73,0,0,0-.34-.54,2.33,2.33,0,0,1-.41.24"/><path class="cls-1" d="M31.23,22.45c-.15,0-.2-.14-.33-.17.08-.14.17-.26.25-.4.14,0,.2.12.32.16-.08.14-.17.26-.24.41m-.1-.69c-.1.2-.23.35-.33.54a3.25,3.25,0,0,0,.45.25c.1-.18.21-.36.32-.53l-.44-.26"/><path class="cls-1" d="M31.23,22c0,.11-.13.16-.15.29s.05,0,.07,0,.1-.16.14-.26,0,0-.06,0"/><path class="cls-1" d="M25.58,22c0,.07.07.24.19.26a.31.31,0,0,0-.19-.26"/><path class="cls-1" d="M21.52,23.56v-.08h-.06c0,.05,0,.11.06.08"/><path class="cls-1" d="M21.63,23.56v-.08h-.06c0,.05,0,.11.06.08"/><path class="cls-1" d="M21.69,23.48s0,0,0,.08h.06s0-.1,0-.08"/><path class="cls-1" d="M21.77,23.56c.05,0,.09,0,.08-.06s0,0-.06,0,0,0,0,.08"/><path class="cls-1" d="M21.89,23.48s0,0,0,.08H22s0-.08-.06-.08"/><path class="cls-1" d="M22,23.48s0,0,0,.08h.08s0-.08-.06-.08"/><path class="cls-1" d="M22.09,23.48s0,0,0,.08h.08s0-.08-.06-.08"/><path class="cls-1" d="M22.19,23.48s0,0,0,.08h.09s0-.08-.07-.08"/><path class="cls-1" d="M22.36,23.56v-.08H22.3c0,.05,0,.11.06.08"/><path class="cls-1" d="M22.46,23.56v-.08H22.4c0,.05,0,.11.06.08"/><path class="cls-1" d="M22.56,23.56v-.08H22.5c0,.05,0,.11.06.08"/><path class="cls-1" d="M22.66,23.56v-.08H22.6c0,.05,0,.11.06.08"/><path class="cls-1" d="M22.72,23.48s0,0,0,.08h.08s0-.08-.06-.08"/><path class="cls-1" d="M22.82,23.48s0,0,0,.08h.08s0-.08-.06-.08"/><path class="cls-1" d="M22.92,23.48s0,0,0,.08H23s0-.08-.07-.08"/><path class="cls-1" d="M23,23.48s0,0,0,.08h.08s0-.08-.06-.08"/><path class="cls-1" d="M23.13,23.48s0,0,0,0,0,.07.08.06,0-.08-.06-.08"/><path class="cls-1" d="M23.23,23.48v.08h.06s0-.08-.06-.08"/><path class="cls-1" d="M23.39,23.56v-.08h-.06c0,.05,0,.11.06.08"/><path class="cls-1" d="M23.49,23.56v-.08h-.06c0,.05,0,.11.06.08"/><path class="cls-1" d="M23.56,23.48s0,0,0,.08h.07s0-.1,0-.08"/><path class="cls-1" d="M23.64,23.56c.05,0,.08,0,.08-.06s0,0-.06,0,0,0,0,.08"/><path class="cls-1" d="M23.74,23.56c.05,0,.08,0,.08-.06s0,0-.06,0,0,0,0,.08"/><path class="cls-1" d="M23.86,23.48s0,0,0,0,0,.07.08.06,0-.08-.06-.08"/><path class="cls-1" d="M24,23.48s0,0,0,.08H24s0-.08-.06-.08"/><path class="cls-1" d="M24.12,23.56v-.08h-.06c0,.05,0,.11.06.08"/><path class="cls-1" d="M24.16,23.48v.08h.06s0-.08-.06-.08"/><path class="cls-1" d="M24.32,23.56v-.08h-.06c0,.05,0,.11.06.08"/><path class="cls-1" d="M24.43,23.56v-.08h-.06c0,.05,0,.11.06.08"/><path class="cls-1" d="M32,23.56v-.08H32c0,.05,0,.11.06.08"/><path class="cls-1" d="M32.12,23.56s0-.1,0-.08,0,0,0,.08Z"/><path class="cls-1" d="M32.24,23.5s0,0-.06,0,0,0,0,.08.09,0,.08-.06"/><path class="cls-1" d="M32.34,23.56s0-.08-.06-.08,0,0,0,.08Z"/><path class="cls-1" d="M32.44,23.54s0-.07-.06-.06,0,0,0,.09.08,0,.08,0"/><path class="cls-1" d="M32.55,23.56s0-.08-.06-.08,0,0,0,.08Z"/><path class="cls-1" d="M32.65,23.56s0-.08-.06-.08,0,0,0,.08Z"/><path class="cls-1" d="M32.75,23.56v-.08h-.06c0,.05,0,.11.06.08"/><path class="cls-1" d="M32.85,23.56v-.08h-.06c0,.05,0,.11.06.08"/><path class="cls-1" d="M33,23.56v-.08h-.06c0,.05,0,.11.06.08"/><path class="cls-1" d="M33.05,23.56v-.08H33c0,.05,0,.11.06.08"/><path class="cls-1" d="M33.09,23.48v.08h.09c0-.06,0-.09-.09-.08"/><path class="cls-1" d="M33.27,23.56s0-.08-.06-.08,0,0,0,.08Z"/><path class="cls-1" d="M33.38,23.56s0-.08-.06-.08,0,0,0,.08Z"/><path class="cls-1" d="M33.48,23.56s0-.08-.06-.08,0,0,0,.08Z"/><path class="cls-1" d="M33.58,23.56s0-.08-.06-.08,0,0,0,0,0,.07.08.06"/><path class="cls-1" d="M33.62,23.48v.08h.06s0-.08-.06-.08"/><path class="cls-1" d="M33.78,23.56v-.08h-.06c0,.05,0,.11.06.08"/><path class="cls-1" d="M33.89,23.56v-.08h-.07c0,.05,0,.11.07.08"/><path class="cls-1" d="M34,23.56s0-.1-.05-.08,0,0,0,.08Z"/><path class="cls-1" d="M34.11,23.5s0,0-.06,0,0,0,0,.08.08,0,.08-.06"/><path class="cls-1" d="M34.21,23.56s0-.08-.06-.08,0,0,0,.08Z"/><path class="cls-1" d="M34.31,23.56s0-.08-.06-.08,0,0,0,.08Z"/><path class="cls-1" d="M34.41,23.56s0-.08-.06-.08,0,0,0,.08Z"/><path class="cls-1" d="M34.51,23.48c-.06,0-.09,0-.08.08h.08Z"/><path class="cls-1" d="M34.55,23.48v.08h.06s0-.08-.06-.08"/><path class="cls-1" d="M34.72,23.56v-.08h-.06c0,.05,0,.11.06.08"/><path class="cls-1" d="M34.82,23.56v-.08h-.06c0,.05,0,.11.06.08"/><path class="cls-1" d="M34.92,23.56s0-.1,0-.08,0,0,0,.08Z"/><path class="cls-1" d="M21.45,23.62v.09a.08.08,0,0,0,.07,0c0-.05,0-.06-.07-.06"/><path class="cls-1" d="M21.61,23.62h0s0,0,0,0v0s0,0,0,0h0s0,0,0,0v0s0,0,0,0"/><path class="cls-1" d="M21.73,23.71v-.09l-.08,0c0,.06,0,.07.08.07"/><path class="cls-1" d="M21.83,23.71v-.09l-.08,0c0,.06,0,.07.08.07"/><path class="cls-1" d="M21.93,23.71v-.09h-.06c0,.06,0,.1.06.09"/><path class="cls-1" d="M22,23.71v-.09H22c0,.06,0,.1.06.09"/><path class="cls-1" d="M22.13,23.71v-.09h-.06c0,.06,0,.1.06.09"/><path class="cls-1" d="M22.17,23.62v.09a.12.12,0,0,0,.09,0c0-.05,0-.06-.09-.06"/><path class="cls-1" d="M22.28,23.62v.09a.11.11,0,0,0,.08,0c0-.05,0-.06-.08-.06"/><path class="cls-1" d="M22.38,23.62v.09a.11.11,0,0,0,.08,0c0-.05,0-.06-.08-.06"/><path class="cls-1" d="M22.56,23.71v-.09a.15.15,0,0,0-.08,0c0,.06,0,.07.08.07"/><path class="cls-1" d="M22.6,23.62s0,0,0,0,0,.07.08.07,0-.09-.06-.09"/><path class="cls-1" d="M22.76,23.71v-.09H22.7c0,.06,0,.1.06.09"/><path class="cls-1" d="M22.86,23.71v-.09H22.8c0,.06,0,.1.06.09"/><path class="cls-1" d="M23,23.71v-.09h-.06c0,.06,0,.1.06.09"/><path class="cls-1" d="M23.07,23.71v-.09H23c0,.06,0,.1.06.09"/><path class="cls-1" d="M23.11,23.62v.09a.11.11,0,0,0,.08,0c0-.05,0-.06-.08-.06"/><path class="cls-1" d="M23.21,23.62v.09a.1.1,0,0,0,.08,0c0-.05,0-.06-.08-.06"/><path class="cls-1" d="M23.31,23.62v.09c.07,0,.09,0,.08-.09Z"/><path class="cls-1" d="M23.49,23.71v-.09l-.08,0c0,.06,0,.07.08.07"/><path class="cls-1" d="M23.6,23.71v-.09l-.09,0c0,.06,0,.07.09.07"/><path class="cls-1" d="M23.7,23.71v-.09h-.06c0,.06,0,.1.06.09"/><path class="cls-1" d="M23.8,23.71v-.09h-.06c0,.06,0,.1.06.09"/><path class="cls-1" d="M23.9,23.71v-.09h-.06c0,.06,0,.1.06.09"/><path class="cls-1" d="M24,23.71v-.09h-.06c0,.06,0,.1.06.09"/><path class="cls-1" d="M24,23.62v.09a.1.1,0,0,0,.08,0c0-.05,0-.06-.08-.06"/><path class="cls-1" d="M24.14,23.62c0,.08.05.1.08.06s0-.06-.08-.06"/><path class="cls-1" d="M24.32,23.71v-.09l-.08,0c0,.06,0,.07.08.07"/><path class="cls-1" d="M24.43,23.71v-.09c-.11,0-.1.1,0,.09"/><path class="cls-1" d="M32,23.71v-.09H32c0,.07,0,.1.08.09"/><path class="cls-1" d="M32.14,23.71v-.09l-.08,0c0,.06,0,.07.08.07"/><path class="cls-1" d="M32.24,23.71v-.09l-.08,0c0,.06,0,.07.08.07"/><path class="cls-1" d="M32.34,23.71v-.09h-.06c0,.06,0,.1.06.09"/><path class="cls-1" d="M32.44,23.71v-.09h-.06c0,.06,0,.1.06.09"/><path class="cls-1" d="M32.55,23.71v-.09h-.06c0,.06,0,.1.06.09"/><path class="cls-1" d="M32.65,23.71v-.09h-.06c0,.06,0,.1.06.09"/><path class="cls-1" d="M32.69,23.71c.05,0,.08,0,.08-.07s0,0-.06,0,0,0,0,.09"/><path class="cls-1" d="M32.79,23.71a.11.11,0,0,0,.08,0c0-.05,0-.06-.08-.06Z"/><path class="cls-1" d="M33,23.71v-.09l-.08,0c0,.06,0,.07.08.07"/><path class="cls-1" d="M33.07,23.71v-.09l-.08,0c0,.06,0,.07.08.07"/><path class="cls-1" d="M33.18,23.71v-.09l-.09,0c0,.06,0,.07.09.07"/><path class="cls-1" d="M33.27,23.71v-.09h-.06c0,.06,0,.1.06.09"/><path class="cls-1" d="M33.38,23.71v-.09h-.06c0,.06,0,.1.06.09"/><path class="cls-1" d="M33.48,23.71v-.09h-.06c0,.06,0,.1.06.09"/><path class="cls-1" d="M33.52,23.71a.11.11,0,0,0,.08,0c0-.05,0-.06-.08-.06Z"/><path class="cls-1" d="M33.62,23.62v.09c.1,0,.1-.1,0-.09"/><path class="cls-1" d="M33.74,23.62s0,0,0,0v0s0,0,0,0h0s0,0,0,0v0s0,0,0,0Z"/><path class="cls-1" d="M33.9,23.71v-.09l-.08,0c0,.06,0,.07.08.07"/><path class="cls-1" d="M34,23.71v-.09a.13.13,0,0,0-.08,0c0,.06,0,.07.08.07"/><path class="cls-1" d="M34.11,23.71v-.09h-.06c0,.06,0,.1.06.09"/><path class="cls-1" d="M34.21,23.71v-.09h-.06c0,.06,0,.1.06.09"/><path class="cls-1" d="M34.31,23.71v-.09h-.06c0,.06,0,.1.06.09"/><path class="cls-1" d="M34.41,23.71v-.09h-.06c0,.06,0,.1.06.09"/><path class="cls-1" d="M34.45,23.71a.1.1,0,0,0,.08,0c0-.05,0-.06-.08-.06Z"/><path class="cls-1" d="M34.55,23.62v.09a.12.12,0,0,0,.09,0c0-.05,0-.06-.09-.06"/><path class="cls-1" d="M34.66,23.71h.08v-.09c-.07,0-.1,0-.08.09"/><path class="cls-1" d="M34.84,23.71v-.09a.13.13,0,0,0-.08,0c0,.06,0,.07.08.07"/><path class="cls-1" d="M34.94,23.71v-.09a.15.15,0,0,0-.08,0c0,.06,0,.07.08.07"/><path class="cls-1" d="M23.57,24.54c-.08,0-.08-.11-.22-.08s0,.05-.06.08.12.1.12.2-.06,0-.12,0,0-.17-.1-.18-.13.09-.2.14-.11-.16-.25-.14-.06.23-.22.16.11-.1.1-.2-.22-.07-.24,0-.11-.11-.19-.14a.29.29,0,0,1,.17-.19c.07,0,.07.09.14.1s.06,0,.12,0-.14-.17-.1-.26a.11.11,0,0,1,.1,0c0,.06,0,.16.1.18s.14-.12.25-.14.33.23.32,0c.06,0,.07,0,.12,0s-.11.1-.12.2.2.08.27,0a.24.24,0,0,1,.16.19s-.08.11-.15.14m0-.41c-.07,0-.08.15-.16.08s.13-.09.12-.2a.19.19,0,0,0-.26-.08c0,.05,0,.14-.06.16s-.09-.17-.25-.14-.07.14-.18.14,0-.12-.06-.16a.23.23,0,0,0-.24,0c0,.16.09.15.1.26s-.07-.11-.18-.1a.35.35,0,0,0-.24.27c.07.09.11.22.28.22s.08-.15.14-.08-.14.09-.1.24a.23.23,0,0,0,.24,0s0-.13.06-.16c.17.19.28.14.45,0a.15.15,0,0,0,.3.06c0-.11-.15-.12-.1-.2.14.21.36,0,.43-.12s-.12-.25-.29-.27"/><path class="cls-1" d="M32.67,24.4a.23.23,0,0,1,.16-.19c.06,0,.08.09.14.1a.12.12,0,0,0,.12-.08c0-.12-.25-.22,0-.24,0,.06,0,.16.1.18s.14-.1.23-.14c.09.12.33.23.34,0,.07,0,.08,0,.12,0s-.12.09-.12.2.06.06.08.1a.25.25,0,0,0,.17-.1c.1,0,.12.1.18.15a.24.24,0,0,1-.16.18c0-.06-.22-.14-.27,0s.12.11.12.22-.05,0-.12,0,0-.16-.1-.18-.13.12-.24.14c-.08-.14-.32-.21-.33,0a.22.22,0,0,1-.12,0c0-.1.12-.09.12-.2s0,0,0-.08a.19.19,0,0,0-.2.08c-.11,0-.12-.09-.18-.14m.2.22c.07,0,.05-.12.14-.1s-.12.09-.12.2,0,0,0,.06a.23.23,0,0,0,.24,0c0-.05,0-.13.06-.16.16.2.29.13.45,0,0,.06,0,.1,0,.16a.25.25,0,0,0,.25,0c0-.16-.1-.15-.11-.26s.07.11.17.1.22-.13.26-.26-.11-.22-.26-.23-.1.14-.17.08S34,24.12,34,24a.25.25,0,0,0-.25,0c0,.05,0,.13-.06.16-.16-.2-.28-.13-.45,0,0-.05,0-.1,0-.16a.18.18,0,0,0-.26.12c0,.08.11.1.12.18s-.08-.1-.18-.1-.18.16-.27.25c.09.09.12.25.31.24"/><path class="cls-1" d="M23,24.52c-.08,0-.09-.2,0-.25s.07.22,0,.25m-.11,0c.06,0,.07.05.13,0s.13-.3,0-.39-.24.21-.17.35"/><path class="cls-1" d="M33.42,24.27c.09,0,.06.2,0,.25s-.08-.21,0-.25m0,.33c.05,0,0,0,.1,0a.35.35,0,0,0,0-.37c-.23-.1-.26.33-.1.39"/><path class="cls-1" d="M22.3,24.33c0,.1,0,.14.12.13a.09.09,0,1,0-.12-.13"/><path class="cls-1" d="M23.51,24.46c.1,0,.14,0,.13-.13a.09.09,0,1,0-.13.13"/><path class="cls-1" d="M32.91,24.38c0-.12-.18-.1-.16,0s.17,0,.16,0"/><path class="cls-1" d="M34.09,24.36a.09.09,0,0,0-.16,0s0,.06,0,.1.12,0,.12-.1"/><path class="cls-1" d="M21.51,25.17s0,.08.06.08,0,0,0-.08Z"/><path class="cls-1" d="M21.61,25.17c0,.08,0,.08.08.06s0-.07-.08-.06"/><path class="cls-1" d="M21.71,25.17s0,.08.06.08,0,0,0-.08Z"/><path class="cls-1" d="M21.83,25.25c.05,0,.07,0,.06-.08a.11.11,0,0,0-.08,0,.14.14,0,0,0,0,.06"/><path class="cls-1" d="M22,25.25s0,0,0-.08h-.09s0,.08.06.08"/><path class="cls-1" d="M22.09,25.25v-.08H22s0,.1.06.08"/><path class="cls-1" d="M22.15,25.25s0,0,0,0v-.08h-.06s0,.07,0,.08"/><path class="cls-1" d="M22.3,25.25v-.08h-.06s0,.08.06.08"/><path class="cls-1" d="M22.36,25.25s0,0,0,0v-.08h-.06s0,.07,0,.08"/><path class="cls-1" d="M22.44,25.17c0,.07,0,.1.08.06s0-.07-.08-.06"/><path class="cls-1" d="M22.54,25.17s0,.08.06.08,0,0,0-.08Z"/><path class="cls-1" d="M22.64,25.17s0,.08.06.08,0,0,0-.08Z"/><path class="cls-1" d="M22.74,25.17s0,.08.06.08,0,0,0-.08Z"/><path class="cls-1" d="M22.85,25.17s0,.08.06.08,0,0,0-.08Z"/><path class="cls-1" d="M23,25.25v-.08H23s0,.1.06.08"/><path class="cls-1" d="M23.13,25.25v-.08h-.06s0,.1.06.08"/><path class="cls-1" d="M23.23,25.25v-.08h-.06s0,.1.06.08"/><path class="cls-1" d="M23.33,25.25v-.08h-.06s0,.1.06.08"/><path class="cls-1" d="M23.37,25.17s0,.08.06.08,0,0,0-.08Z"/><path class="cls-1" d="M23.47,25.17c0,.06,0,.06.06.08s0,0,0-.08Z"/><path class="cls-1" d="M23.57,25.17s0,.08.07.08,0,0,0-.08Z"/><path class="cls-1" d="M23.68,25.17s0,.08.06.08,0,0,0-.08Z"/><path class="cls-1" d="M23.86,25.25v-.08h-.08c0,.06,0,.09.08.08"/><path class="cls-1" d="M24,25.25v-.08H23.9s0,.1.06.08"/><path class="cls-1" d="M24.06,25.25v-.08H24s0,.1.06.08"/><path class="cls-1" d="M24.16,25.25v-.08H24.1s0,.08.06.08"/><path class="cls-1" d="M24.2,25.17v.08s.07,0,.08,0,0-.07-.08-.06"/><path class="cls-1" d="M24.31,25.17s0,.08.06.08,0,0,0-.08Z"/><path class="cls-1" d="M24.41,25.17s0,.08.06.08,0,0,0-.08Z"/><path class="cls-1" d="M31.9,25.17s0,.08.06.08,0,0,0-.08Z"/><path class="cls-1" d="M32.08,25.25v-.08H32s0,.1.06.08"/><path class="cls-1" d="M32.18,25.25v-.08h-.06s0,.1.06.08"/><path class="cls-1" d="M32.28,25.25v-.08h-.06s0,.1.06.08"/><path class="cls-1" d="M32.38,25.25v-.08h-.06s0,.1.06.08"/><path class="cls-1" d="M32.42,25.17s0,.08.07.08,0,0,0-.08Z"/><path class="cls-1" d="M32.52,25.17s0,.08.06.08,0,0,0-.08Z"/><path class="cls-1" d="M32.63,25.17s0,.08.06.08,0,0,0-.08Z"/><path class="cls-1" d="M32.73,25.17s0,.08.06.08,0,0,0-.08Z"/><path class="cls-1" d="M32.91,25.17s-.06,0-.08,0a.14.14,0,0,0,0,.06s.07,0,.06-.08"/><path class="cls-1" d="M33,25.25s0,0,0,0v-.08H33s0,.07,0,.08"/><path class="cls-1" d="M33.11,25.17h-.06v.08c.05,0,.07,0,.06-.08"/><path class="cls-1" d="M33.17,25.25s0,0,0,0v-.08h-.06s0,.07,0,.08"/><path class="cls-1" d="M33.32,25.25v-.08h-.07s0,.1.07.08"/><path class="cls-1" d="M33.36,25.17s0,.08.06.08,0,0,0-.08Z"/><path class="cls-1" d="M33.46,25.17c0,.07,0,.1.08.06s0-.07-.08-.06"/><path class="cls-1" d="M33.56,25.17s0,.08.06.08,0,0,0-.08Z"/><path class="cls-1" d="M33.74,25.17a.11.11,0,0,0-.08,0,.14.14,0,0,0,0,.06s.07,0,.06-.08"/><path class="cls-1" d="M33.84,25.17h-.08s0,.08.06.08,0,0,0-.08"/><path class="cls-1" d="M33.94,25.25v-.08h0s0,.1,0,.08"/><path class="cls-1" d="M34.05,25.25v-.08H34s0,.1.06.08"/><path class="cls-1" d="M34.15,25.25v-.08h-.06s0,.1.06.08"/><path class="cls-1" d="M34.25,25.25v-.08h-.06s0,.1.06.08"/><path class="cls-1" d="M34.37,25.17h-.08c0,.06,0,.06.06.08s0,0,0-.08"/><path class="cls-1" d="M34.39,25.17s0,.08.06.08,0,0,0-.08Z"/><path class="cls-1" d="M34.49,25.17s0,.08.06.08,0,0,0-.08Z"/><path class="cls-1" d="M34.59,25.17s0,.08.07.08,0,0,0-.08Z"/><path class="cls-1" d="M34.78,25.25v-.08h-.06s0,.1.06.08"/><path class="cls-1" d="M34.88,25.17h-.06v.08s.07,0,.06-.08"/><path class="cls-1" d="M21.48,25.31c0,.05,0,.06.09.06a.06.06,0,0,0-.09-.06"/><path class="cls-1" d="M21.61,25.29v.08h.06c0-.05,0-.09-.06-.08"/><path class="cls-1" d="M21.71,25.29v.08h.06c0-.05,0-.09-.06-.08"/><path class="cls-1" d="M21.83,25.29s0,0,0,.08h.06s0-.1,0-.08"/><path class="cls-1" d="M21.93,25.29s0,0,0,.08H22s0-.1,0-.08"/><path class="cls-1" d="M22,25.29s0,0,0,.08h.08c0-.05,0-.09-.06-.08"/><path class="cls-1" d="M22.13,25.29s0,0,0,.08h.07c0-.05,0-.09-.06-.08"/><path class="cls-1" d="M22.24,25.29s0,0,0,.08h.09c0-.05,0-.09-.06-.08"/><path class="cls-1" d="M22.34,25.29s0,0,0,.08h.08c0-.05,0-.09-.06-.08"/><path class="cls-1" d="M22.44,25.29s0,0,0,.08h.08c0-.05,0-.09-.06-.08"/><path class="cls-1" d="M22.6,25.37v-.08h-.06c0,.05,0,.1.06.08"/><path class="cls-1" d="M22.7,25.37v-.08h-.06c0,.05,0,.1.06.08"/><path class="cls-1" d="M22.76,25.29s0,0,0,.08h.06s0-.1,0-.08"/><path class="cls-1" d="M22.86,25.29s0,0,0,.08h.06s0-.1-.05-.08"/><path class="cls-1" d="M23,25.29s0,0,0,.08H23c0-.05,0-.09-.06-.08"/><path class="cls-1" d="M23.07,25.29s0,0,0,.08h.08c0-.05,0-.09-.06-.08"/><path class="cls-1" d="M23.17,25.29s0,0,0,.08h.08c0-.05,0-.09-.06-.08"/><path class="cls-1" d="M23.27,25.29a.11.11,0,0,1,0,.06s0,0,.08,0,0-.09-.06-.08"/><path class="cls-1" d="M23.43,25.37v-.08h-.06c0,.05,0,.1.06.08"/><path class="cls-1" d="M23.47,25.29v.08h.06c0-.05,0-.09-.06-.08"/><path class="cls-1" d="M23.64,25.37v-.08h-.07c0,.05,0,.1.07.08"/><path class="cls-1" d="M23.7,25.29s0,0,0,.08h.06s0-.1,0-.08"/><path class="cls-1" d="M23.78,25.29v.08h.08c0-.06,0-.09-.08-.08"/><path class="cls-1" d="M23.88,25.37c.06,0,.06,0,.08-.06s0,0-.06,0,0,0,0,.08"/><path class="cls-1" d="M24,25.29s0,0,0,.08h.08c0-.05,0-.09-.06-.08"/><path class="cls-1" d="M24.1,25.29s0,0,0,0,0,.06.08.06,0-.09-.06-.08"/><path class="cls-1" d="M24.2,25.29s0,0,0,.08h.08c0-.05,0-.09-.06-.08"/><path class="cls-1" d="M24.31,25.29v.08h.06c0-.05,0-.09-.06-.08"/><path class="cls-1" d="M24.41,25.29v.08h.06c0-.05,0-.09-.06-.08"/><path class="cls-1" d="M32,25.37v-.08h-.06c0,.05,0,.1.06.08"/><path class="cls-1" d="M32,25.29s0,0,0,.08.09-.08,0-.08"/><path class="cls-1" d="M32.14,25.29s0,0,0,.08h.08c0-.05,0-.09-.06-.08"/><path class="cls-1" d="M32.24,25.29s0,0,0,.08h.08c0-.05,0-.09-.06-.08"/><path class="cls-1" d="M32.34,25.29s0,0,0,.08h.08c0-.05,0-.09-.06-.08"/><path class="cls-1" d="M32.44,25.29s0,0,0,.08h.08c0-.05,0-.09-.06-.08"/><path class="cls-1" d="M32.55,25.29v.08h.06c0-.05,0-.09-.06-.08"/><path class="cls-1" d="M32.71,25.37v-.08h-.06c0,.05,0,.1.06.08"/><path class="cls-1" d="M32.81,25.37v-.08h-.06c0,.05,0,.1.06.08"/><path class="cls-1" d="M32.87,25.29s0,0,0,.08h.08c0-.05,0-.09-.06-.08"/><path class="cls-1" d="M33,25.29s0,0,0,.08H33c0-.05,0-.09-.06-.08"/><path class="cls-1" d="M33.07,25.29s0,0,0,.08h.08c0-.05,0-.09-.06-.08"/><path class="cls-1" d="M33.17,25.29s0,0,0,.08h.08c0-.05,0-.09-.06-.08"/><path class="cls-1" d="M33.28,25.29s0,0,0,.08h.08c0-.05,0-.09-.06-.08"/><path class="cls-1" d="M33.38,25.29v.08h.06c0-.05,0-.09-.06-.08"/><path class="cls-1" d="M33.48,25.29v.08h.06c0-.05,0-.09-.06-.08"/><path class="cls-1" d="M33.6,25.29s0,0,0,.08h.06s0-.1,0-.08"/><path class="cls-1" d="M33.7,25.29s0,0,0,.08h.06s0-.07,0-.08"/><path class="cls-1" d="M33.78,25.29v.08h.08c0-.06,0-.09-.08-.08"/><path class="cls-1" d="M33.9,25.29s0,0,0,.08H34c0-.05,0-.09-.07-.08"/><path class="cls-1" d="M34,25.29s0,0,0,.08h.08c0-.05,0-.09-.06-.08"/><path class="cls-1" d="M34.11,25.29s0,0,0,.08h.08c0-.05,0-.09-.06-.08"/><path class="cls-1" d="M34.21,25.29s0,0,0,.08h.08c0-.05,0-.09-.06-.08"/><path class="cls-1" d="M34.33,25.29s0,0,0,.08h.06s0-.07,0-.08"/><path class="cls-1" d="M34.47,25.37v-.08h-.06c0,.05,0,.1.06.08"/><path class="cls-1" d="M34.57,25.37v-.08h-.06c0,.05,0,.1.06.08"/><path class="cls-1" d="M34.68,25.37v-.08h-.06c0,.05,0,.1.06.08"/><path class="cls-1" d="M34.72,25.29v.08h.08c0-.06,0-.09-.08-.08"/><path class="cls-1" d="M34.84,25.29s0,0,0,.08h.08c0-.05,0-.09-.06-.08"/><path class="cls-1" d="M24.63,27.11c-.06,0-.05,0-.08.05s0-.14,0-.19h-.06a1.27,1.27,0,0,1,0,.29c0-.05,0-.18,0-.16s0,.1,0,.18,0,.15.12.14,0-.18.06-.22,0,.12,0,.1,0-.12,0-.19"/><path class="cls-1" d="M25.1,27c0,.19-.1.44,0,.57a1.56,1.56,0,0,0,.06-.57Z"/><path class="cls-1" d="M26,27.66c.08-.1,0-.44,0-.55H26c0,.18-.09.43,0,.55"/><path class="cls-1" d="M25,27.18H25c0,.06-.05.22,0,.22s0-.16,0-.22"/><path class="cls-1" d="M25.26,27.18H25.2c0,.09-.08.2,0,.22s0-.16,0-.22"/><path class="cls-1" d="M25.91,27.5s0-.17,0-.24h-.06c0,.07-.05.23,0,.24"/><path class="cls-1" d="M26.13,27.5c.07,0,.05-.2,0-.24h-.06c0,.07,0,.23,0,.24"/><path class="cls-1" d="M25.18,29.14c.1.05.23,0,.26.13s-.36.52-.61.53c-.07-.12,0-.15.07-.23-.13-.07-.21.12-.15.25s-.11.06-.1.15.17.17.2.07-.15,0-.12-.08c.26-.14.62-.22.75-.51s-.1-.51-.3-.31"/><path class="cls-1" d="M31.81,29.59c0,.08.09,0,.08.06v.12c-.32.06-.78-.36-.52-.63.09,0,.12.08.16,0a.23.23,0,0,0-.32.05c0,.42.28.65.68.71,0,0,.1,0,.09.12s-.12-.05-.13,0,.23,0,.21-.08,0-.5-.25-.37"/><path class="cls-1" d="M24.32,29.82c0-.07,0-.13.05-.15s.09.08.16.08c0-.26-.42-.14-.27.13a.81.81,0,0,0-.36.67c0,.08.08.18,0,.22s0-.12-.1-.1c-.12.21.25.24.24,0,.17.06.3-.11.18-.21-.05.05,0,.15-.14.15-.19-.23.14-.79.37-.73s0,.15.14.2c.12-.16-.07-.29-.23-.3"/><path class="cls-1" d="M32.36,29.67a.44.44,0,0,1,0,.17c-.18,0-.35.17-.2.28s0-.06,0-.14c.33-.17.53.26.53.63-.06,0-.09,0-.17,0s0-.09,0-.13,0,.1,0,.15.12.07.24.06c0,.22.35.14.22,0-.05,0,0,.09-.1.1s0-.16,0-.25a.87.87,0,0,0-.37-.66c.05-.08,0-.11,0-.21s-.36,0-.24.1.06-.1.16-.08"/><path class="cls-1" d="M23.62,30.83a.79.79,0,0,0-.71.36c-.08.12,0,.22-.19.21,0-.09.06-.14,0-.14s0,.09,0,.16.26-.05.45.06c0,0,.12-.09.08-.14s-.05.09-.16.06-.07,0-.06-.09a.66.66,0,0,1,.69-.4s.06.06.06.12-.11.07,0,.15.12-.31,0-.35"/><path class="cls-1" d="M33.05,31.15c.06,0-.07,0,0-.14a.2.2,0,0,1,.08-.1.63.63,0,0,1,.67.43s0,.06-.08.06,0-.09-.14-.06,0,.13.1.14.12,0,.18-.06a.23.23,0,0,0,.23,0c0-.06.05-.2,0-.21s0,.1,0,.15-.13-.16-.21-.27-.49-.4-.73-.28-.11.39,0,.3"/><path class="cls-1" d="M23,31.64c-.07.08.07.08,0,.18s-.17,0-.19,0-.11-.36-.24-.22c.53.2-.37.69-.61.37,0-.11.15-.05.16-.13s-.13,0-.18,0a.36.36,0,0,0,0,.19c-.12,0-.2.05-.18.2s.15.11.16,0-.11,0-.08-.12c.33,0,.78,0,1-.21.21.17.46-.18.19-.24"/><path class="cls-1" d="M33.88,31.82s-.16.06-.18,0,.11-.09,0-.16c-.27.07,0,.42.19.24.17.29.67.21,1,.23,0,.08-.11,0-.08.14s.11,0,.16-.08,0-.08,0-.14A.39.39,0,0,1,34.8,32c0-.08,0-.09,0-.16s-.19,0-.19,0,.18,0,.17.12c-.25.18-.78,0-.8-.28,0-.07.13-.05.19-.08-.11-.18-.33.07-.25.22"/><path class="cls-1" d="M21.46,32.47c.12,0,.05-.14.19-.1.15.27-.2.52-.53.51,0-.05-.06-.06-.06-.12s.11-.07.12-.15-.27.25-.1.33a.15.15,0,0,0,0,.2c.08,0,.16,0,.16-.08s-.14.06-.14-.06c.32-.09.76-.29.59-.67a.16.16,0,0,0-.27.14"/><path class="cls-1" d="M35.35,32.94c.08,0,.25,0,.22.12s-.1-.05-.14,0,.08.09.16.08a.18.18,0,0,0,0-.22c.19-.05,0-.45-.1-.31s.13.06.12.17c-.21.29-.82-.18-.57-.41.12,0,0,.14.17.1s-.12-.21-.25-.16c-.2.3.14.53.35.63"/><path class="cls-1" d="M19,34l.85-.58c.38.07.75.16,1.14.22a9.39,9.39,0,0,1-1.06.67,3.65,3.65,0,0,1-1.22.51c-.22,0-.46,0-.46-.21S18.83,34,19,34m.26.71a8.5,8.5,0,0,0,1.63-.91c.09-.06.25-.13.22-.2-.42-.1-.86-.16-1.26-.26-.3.17-.51.35-.87.6-.16.11-.76.43-.79.61-.1.58.83.27,1.07.16"/><path class="cls-1" d="M38.15,34.24c.16.12.58.34.24.51a.85.85,0,0,1-.33,0,3.41,3.41,0,0,1-1.21-.51c-.4-.22-.78-.45-1.08-.65.36-.1.77-.15,1.14-.24.34.22.81.57,1.24.87m-.67.41c.25.1,1.19.44,1.09-.15,0-.12-.24-.24-.36-.32L37,33.31c-.4,0-.88.17-1.32.24a6.57,6.57,0,0,0,1.85,1.1"/><path class="cls-1" d="M29.8,8.24h0"/><path class="cls-1" d="M29.3,7.53c.07.07.23.27.32.3s-.06,0,0,.07-.11,0-.14,0,0,0,0-.1a.71.71,0,0,0-.18-.12s-.09.06,0,.1,0,0,0-.06.08,0,.12,0,0,0,0,.1-.06,0-.06,0a3,3,0,0,1-.65-.63c.08,0,.1,0,.18,0-.1.14.12.18.1.24s.08,0,.15,0,.07.15,0,.1.08.11.1.06,0,0,0,0-.15-.31,0-.12m.34.44a0,0,0,1,0,0-.07c.09,0,.19.16.31.2-.23.16-.38-.1-.53-.19a.26.26,0,0,1,.22.06m-.93-.75a1.21,1.21,0,0,0-.16-.16s.05,0,0-.08.09,0,.12.08,0,0-.06,0a.09.09,0,0,0,.1,0c0,.06-.06,0,0,.1m-.37-.06c0-.08,0-.25,0-.36s.24-.16.33-.14a.49.49,0,0,1-.31.5m0,0a.5.5,0,0,1-.31,0V6.92a1.25,1.25,0,0,1,.31-.1Zm-.53,0c0-.15,0-.23,0-.38h.14c0,.17.11.53-.16.38m-.87,1s.05,0,0,0A.62.62,0,0,0,27,8,.3.3,0,0,0,27,8s0,0,0,0,0,.09-.05.08,0,0,0,0S27,8,27,7.9c0,.1.26,0,.31-.05s0,.06-.08,0,.07,0,.08,0,0,0,0,0,.05-.09.14-.08,0,0,0,.06a.18.18,0,0,1,.12-.12.07.07,0,0,1,0-.14c0,.09.06,0,.06,0s.13-.09.17-.16a.14.14,0,0,1,0-.07h-.06c.08,0,0,.12,0,.15s-.07,0-.06,0,0,0,0-.12.12-.16.23-.19-.07.1,0,.12,0,0,0,0,.1,0,.14,0a3.67,3.67,0,0,1-1,.92m-.27,0c.07-.09.19.05.28,0s-.22,0-.28,0M26.87,8s0,.05,0,.12-.06,0-.12,0,.09,0,.11-.1m.62-.57c0,.14-.2.28-.28.3s0,.06,0,.12-.08,0-.14,0c0-.18.29-.29.4-.46m0-.43a1.24,1.24,0,0,1,0-.22s.16,0,.25,0a1.4,1.4,0,0,0,0,.36A1.11,1.11,0,0,1,27.49,7M28,6.76a.19.19,0,0,1,.24,0,.52.52,0,0,1-.24.08Zm.12-.14c.09-.17.48,0,.51-.08-.07.15-.36.3-.51.14,0,0,0-.06,0-.06m.51-.43c-.06.11-.37.06-.49,0,.09-.09.34,0,.49,0m-.49-.14a1.93,1.93,0,0,1,.49,0v.06c-.08.09-.34,0-.49,0ZM28.65,6a3.7,3.7,0,0,1-.49,0,1.93,1.93,0,0,1,.49,0m-.1,0s-.22,0-.31,0,.19,0,.31,0m.1-.15a1,1,0,0,1-.49,0,2.53,2.53,0,0,1,.49,0m0-.08c0,.1-.45.1-.49,0a4,4,0,0,0,.49,0m-.1-.22c-.05,0-.05-.08-.06-.12s.09.08.06.12m.32.85c0,.05-.14,0-.2,0s.11,0,.2,0m0,.81s-.06,0,0,.06-.11,0-.14,0,0,0,0-.12-.06-.12-.16-.1,0,0,0-.08a3.45,3.45,0,0,0,.26.28m.2.29s0,0,0,0-.09.05-.09,0c0,.08-.06,0-.12,0s0,0,.06,0,0-.06-.06-.13.22.14.18.25m-1.19-1.1h0c.08,0-.38,0,0,0m-.2,0s0,0,0-.06,0,.33,0,.06m-.09-.49c-.11,0,.15-.11.19-.18.05.08-.23.11-.19.18m-.12-.48v-.1s.08,0,.08.12,0,0-.08,0m.08.16s-.05,0-.1,0a.11.11,0,0,0,0-.1l.08,0Zm-.18-.06s0-.05,0-.12l.08,0s0,0,0,.1Zm0-.29c-.07,0-.07,0-.06-.08h.06Zm-.08,0h.06a.13.13,0,0,1,0,.11c-.06,0-.09,0-.08-.11M27,4.51a.12.12,0,0,1,.08.14c-.06,0-.12-.1-.08-.14m.45.68a.1.1,0,0,0,.08,0v.1s0,0-.08,0Zm.22.21s.11.06.06.08,0,0,0,0,0,0-.08,0,0-.06,0-.08m-.06,1.07H27V6.23h.23c0,.06-.06,0-.08.08.06.2.19.12.32.08s-.05-.1-.08-.14.16,0,.22,0a.15.15,0,0,0,0,.24m1.57-1.09s0,0,.08,0,0,.08,0,.08-.08,0-.08.06,0-.09,0-.12m.06-.14c.06,0,0,.1,0,.12s0-.08,0-.12m0,0s.05,0,.06,0,0,.08,0,.11-.06,0-.06,0,0-.08,0-.1m.1.18a.1.1,0,0,1-.08,0s0-.08,0-.08.06,0,.06,0,0,.09,0,.08m0-.33h.06v.08c-.07,0-.07,0-.06-.08m0,.21a.13.13,0,0,1,0-.11h.06c0,.08,0,.1-.08.11m.4-.77c.09,0,0,.13-.06.14s.05-.1.06-.14m-.44,1.9s0-.06,0-.12,0,.1,0,.12m.16-.08a.11.11,0,0,0,0,.06c-.06,0,0-.1-.08-.1s.06,0,.1,0m-.41-.1h.39c-.05.07-.2,0-.24.1s.15,0,.26.1l.08-.08c0-.06-.06-.06-.08-.1s.14,0,.2,0,0,.14,0,.24h-.61a.13.13,0,0,0,0-.24m0,1c-.18-.21-.54-.48-.3-.8.12.07.18,0,.28,0v.16a3.64,3.64,0,0,0,.67,0V6.15a3.64,3.64,0,0,0-.67,0s0,.13,0,.14l-.08-.1a1.49,1.49,0,0,0,.21-.39s0,0,0,0c.09-.21.28-.43.28-.67,0,0,0,0,.06,0,.06-.31.39-.46.37-.79-.18,0-.24.24-.33.37-.29.42-.62.8-.87,1.24V5.54a.6.6,0,0,1-.16-.63s.06-.08.16-.06a.38.38,0,0,0-.29-.28c-.1.06-.21.12-.24.26.24,0,.2.61.1.65s.09-.07,0-.1-.08.48-.14.71C27.82,5.45,27.31,5,27,4.4c-.05,0-.08,0-.13,0-.08.15.06.24.13.35a9.59,9.59,0,0,0,.65,1.17s0,.08,0,.13.07,0,.09,0,0,.09,0,.16-.14,0-.21.06V6.13h-.65v.46h.65s0-.14,0-.16c.16.14.46-.06.51.27-.19.14-.71,0-.83.16.05.19.3.19.43.32a5.6,5.6,0,0,1-1.08.92c-.08.17-.4.19-.36.4,0-.09,0,0,0,0a.46.46,0,0,0,.43-.18c0,.09.27-.15.37-.22.33-.27.69-.62.95-.88a.82.82,0,0,0,.47-.16A5.35,5.35,0,0,0,29.8,8.24s-.07-.05,0-.06.2-.09.28,0c-.07,0-.19,0-.24.08h0c.08.12.44.39.62.19-.38-.35-1-.74-1.39-1.17"/><path class="cls-1" d="M29.77,8.14c.07,0,.08-.12,0-.12s0,.05,0,.06S29.71,8,29.68,8s.06,0,.06,0,0,0-.06,0,.07.11.09.18"/><path class="cls-1" d="M25.48,12c0-.08.07-.11.08-.2s.13.09.23.1-.08.14-.11.22a1.06,1.06,0,0,1-.2-.12m.61-.34c.08,0,.13.09.2.12a2.14,2.14,0,0,0-.1.22.82.82,0,0,0-.2-.12,1.47,1.47,0,0,1,.1-.22m.55-.08c.19.11.19.22,0,.34-.16-.13-.16-.2,0-.34m.51,0a1.13,1.13,0,0,0,.18.12c0,.1-.08.13-.1.22s-.12-.11-.2-.14a2.12,2.12,0,0,0,.12-.2m-1.26.36c.13.06.2.16.34.21a1.15,1.15,0,0,1,.18-.35,1.86,1.86,0,0,0,.27.29,1.16,1.16,0,0,1,.25-.29c.11.06.18.17.32.22.05-.11.15-.18.18-.32a1.66,1.66,0,0,0-.3-.24,3.45,3.45,0,0,1-.2.32c-.12-.08-.17-.22-.29-.28a2.43,2.43,0,0,1-.26.3.91.91,0,0,0-.33-.2,1,1,0,0,1-.18.32,1.38,1.38,0,0,0-.33-.2,2.57,2.57,0,0,0-.16.37c.14,0,.19.15.35.17a1.37,1.37,0,0,1,.16-.32"/><path class="cls-1" d="M22.48,7.06a.22.22,0,0,1-.08.39c-.24,0-.31-.44.08-.39m-.35.25c.06.11.11.19.23.2.41,0,.34-.56,0-.51a.2.2,0,0,0-.19.2,2.3,2.3,0,0,1,2.32-2.47c0,.16-.11.26-.12.42-.38-.5-.77.54-.13.35,0,.23-.26.21-.36.24a1.54,1.54,0,0,0-1,1.59,2,2,0,0,0,.33.93,1.53,1.53,0,0,0-.39.61,2.22,2.22,0,0,0,.53.28c0,.14-.11.18-.12.31a.47.47,0,0,0,.93.14h.15a.63.63,0,0,1-.92.59c-.24-.16-.28-.52-.28-.94a1.85,1.85,0,0,1-.23,0c-.2-.23-.36-.51-.58-.72,0-.46-.14-.78-.11-1.26m1.81-1.93c0-.26.1-.3.2-.29.35,0,0,.62-.2.29m1.56,3c-.08,0-.05,0,0-.1s0,.05,0,.1m2.11-4.63c0,.49-.7,0-.24-.16a.17.17,0,0,1,.24.16m-.18-.46a1.31,1.31,0,0,0,.2.3c-.12-.13-.47-.08-.46.18a.25.25,0,1,0,.48-.12,7,7,0,0,1,.41.65c-.13.18-.28,0-.41-.08A1.58,1.58,0,0,0,26.84,4c-1.47,0-2.11,2.31-1.09,3.33a.82.82,0,0,0-.2.61c0,.23.38.29.46.48-.42.76.84,1.15.86.32a.64.64,0,0,0,.24,0c.13.14.17.32.32.39.49.22.88-.48.49-.83a.71.71,0,0,1,.2-.18s.16-.19.2-.19.31.32.43.35c-.61.65.59,1.31.77.46a1.27,1.27,0,0,0,.29,0c0,.85,1.26.43.85-.36a2.55,2.55,0,0,0,.46-.41.89.89,0,0,0-.22-.66c1.26-1.18.07-4-1.72-3.15-.18.08-.34.28-.53.18,0-.19.23-.35.3-.55a.27.27,0,0,0,.53,0,.26.26,0,0,0-.37-.24.86.86,0,0,1,.17-.24,2.28,2.28,0,0,1,2,.42A2.44,2.44,0,0,1,32.34,5.6a17.34,17.34,0,0,1-.28,2,1.18,1.18,0,0,0-.59.51,3.14,3.14,0,0,0,.18.46c-.12.16-.3.24-.32.45a.48.48,0,0,0,.81.43c.07,0,.09.11.18.12-.62.89-1.67-.51-1-1.12a3.54,3.54,0,0,0-.16-.34c-.09.09-.16.19-.25.28a.76.76,0,0,1-.71,1.08c-.33,0-.43-.36-.53-.67-.15.12-.16.32-.28.42a.78.78,0,0,1-.24.13.72.72,0,0,1-.63-1.12A2.75,2.75,0,0,0,28.34,8a.86.86,0,0,0-.18.26.76.76,0,0,1-.42,1.14c-.35,0-.55-.21-.71-.45a.66.66,0,0,1-1,.46c-.28-.18-.57-.75-.39-1,0-.15-.16-.21-.26-.3a3,3,0,0,1-.12.32c0,.12.15.16.22.24.31.86-.55,1.62-1.19,1,.08,0,.12-.06.18-.1.66.49,1.15-.63.48-.88.05-.18.2-.3.19-.46s-.39-.41-.59-.53c0-.7-.34-1.24-.26-1.89a2.71,2.71,0,0,1,3.12-2.45M31,7.9c-.13.15-.33.26-.46.42.38.71-.67,1.12-.65.3-.13,0-.29,0-.43,0-.12.16-.17.41-.41.42-.42,0-.49-.59-.16-.79-.18-.16-.38-.3-.57-.47-.21.13-.37.32-.58.45.31.22.27.81-.15.81-.23,0-.31-.23-.4-.42-.15,0-.27,0-.43,0,0,.81-1.08.45-.65-.26-.14-.17-.34-.29-.49-.44a.8.8,0,0,1,.27-.63c-1.09-.85-.47-3.16.87-3.21a1.76,1.76,0,0,1,1.14.45c.17-.21.67-.31.81,0a2,2,0,0,1,1.1-.45c1.38,0,2,2.35.93,3.18A1,1,0,0,1,31,7.9M29.18,3.59c.17,0,.23,0,.24.14.06.52-.72,0-.24-.14M28,2.15a1.39,1.39,0,0,1,.28.39,4.93,4.93,0,0,1-.34.54c.12.22.27.42.41.63a3.07,3.07,0,0,0,.44-.61,2.73,2.73,0,0,0-.34-.54c.09-.15.18-.29.28-.43.19.29.38.56.55.87-.23.41-.51.78-.75,1.18-.11,0-.29,0-.39,0-.21-.4-.49-.74-.71-1.14.17-.33.39-.61.57-.93m.67.93a1.77,1.77,0,0,1-.32.47,3.46,3.46,0,0,0-.29-.45,5.6,5.6,0,0,1,.3-.48,4.63,4.63,0,0,1,.31.46m-1-1.72c.21-.41.49-.74.71-1.14.29.34.49.75.76,1.1-.23.39-.51.73-.73,1.11-.27-.34-.49-.72-.74-1.07m4.71,3.81c.31-.33.51.43.06.29,0-.08,0-.2-.06-.29m0,3.72c.46-.09.46.59.1.63S32,9,32.4,8.89m-.32.51a.4.4,0,0,1-.65-.35c0-.21.23-.3.38-.43-.07-.14-.23-.31-.22-.46s.38-.38.57-.49c0-.72.29-1.17.28-1.91a1.55,1.55,0,0,1,.9,2.54,1,1,0,0,1,.4.55c-.18.08-.35.19-.55.26.26.27.2.83-.24.77-.16,0-.21-.15-.3-.28.29-.16.29-.73-.07-.81a.44.44,0,0,0-.52.28,1.2,1.2,0,0,0,0,.33M34.62,7a10.83,10.83,0,0,1-.11,1.32.81.81,0,0,1,0,.22c-.08.27-.46.41-.57.71a2.72,2.72,0,0,0-.3,0c0,.1.1.16.12.27-.21.28-.27.72-.73.73a.67.67,0,0,1-.65-.69c.28,0,.25.33.51.38a.48.48,0,0,0,.45-.79,4.68,4.68,0,0,1,.54-.3,1.31,1.31,0,0,0-.4-.61,1.69,1.69,0,0,0-.59-2.5l-.26-.08c-.06,0-.22,0-.19-.14s.35-.08.35-.28a.25.25,0,0,0-.41-.19,2.12,2.12,0,0,1-.1-.36A2.37,2.37,0,0,1,34.62,7M33.8,9.44s0,0,0-.08h.08s0,.08-.06.08m-.53,1.09c-.12,0-.19-.11-.32-.14.14,0,.32,0,.41-.12,0,.06-.07.18-.09.26M31.79,10a.89.89,0,0,0,.51-.22c.07.16.11.36.25.45-.22,0-.48-.19-.76-.23M25.2,9.8A.82.82,0,0,0,25.62,9c.13.15.17.34.35.47A.72.72,0,0,0,27,9.11a.75.75,0,0,0,1.34-.26A.66.66,0,0,0,29.64,9,.71.71,0,0,0,31,9c.06.38.15.72.45.85a15.64,15.64,0,0,0-5.26-.22c-.34.05-.79.14-1,.18m-1.14.43a1.18,1.18,0,0,0,.25-.49,1.16,1.16,0,0,0,.56.16c-.26.12-.57.19-.81.33m-.2-1a.28.28,0,0,1,.24-.38.3.3,0,0,1,.39.36.32.32,0,0,1-.63,0m-1-.42a.91.91,0,0,1,.4-.53,1.57,1.57,0,0,1,.88-2.56s0,0,0,0c0,.7.28,1.16.29,1.87a2,2,0,0,1,.59.47,1.91,1.91,0,0,1-.23.5c.16.14.38.23.39.47a.39.39,0,0,1-.67.28c.26-.74-.95-.75-.77-.06a.36.36,0,0,0,.22.25c-.08.14-.13.29-.28.32-.45.09-.58-.5-.27-.75l-.56-.28m.42,1.42a.56.56,0,0,0,.49,0c0,.08-.34.17-.41.28a.94.94,0,0,0-.08-.32m9.48.4a12.82,12.82,0,0,0-8.91,0c-.15.07-.3.25-.49.16,0-.19.22-.24.35-.31a8.49,8.49,0,0,1,3.61-.89,12.42,12.42,0,0,1,5.48.83c.18.08.47.15.47.39-.19.08-.36-.09-.51-.17m-4.55-.57a8.19,8.19,0,0,1,.77.45,7.4,7.4,0,0,1-.69.53c-.26-.13-.49-.31-.75-.45.18-.22.48-.32.67-.53m-4.32,1.39c.13-.27.29-.5.43-.76l.85.19c-.13.27-.32.48-.47.73-.27-.05-.53-.12-.81-.16m8.95,0a2.74,2.74,0,0,0-.22.55c0,.11.08.47-.07.44.06-.4-.39-.55-.79-.71-2.1-.85-6-.79-7.69.32,0-.15-.15-.38-.2-.58.31,0,.58.22.83.16s.23-.3.3-.41.21-.29.29-.42c-.32-.09-.67-.13-1-.22-.2.22-.31.54-.51.77-.06-.17-.12-.34-.18-.49A8.68,8.68,0,0,1,28.22,10c-.25.22-.55.4-.81.62a8.92,8.92,0,0,0,.89.56,9.16,9.16,0,0,0,.88-.61,9.54,9.54,0,0,0-.86-.54,8.88,8.88,0,0,1,4.75.93c-.06.16-.12.36-.2.57m-.63,1.15a.62.62,0,0,1-.08-.24.33.33,0,0,0,.18-.08c.08,0,.07.15.1.22s-.14.06-.2.1m-.49-.06a1.13,1.13,0,0,1,.33-.16,2.29,2.29,0,0,1,.08.28c-.2,0-.28-.07-.41-.12m-3.47,1.12a7.23,7.23,0,0,1-3.61-1,9.54,9.54,0,0,1,7.29.07,7.33,7.33,0,0,1-3.68.89M32,12.4c-.08,0-.12.09-.21.1s-.06-.14-.08-.22a.39.39,0,0,0,.18-.1c.07,0,.08.14.11.22m-7.51,0a1.67,1.67,0,0,0,.08-.2c.11,0,.12.07.22.08s-.08.12-.08.22a1.12,1.12,0,0,1-.22-.1m-.15.34c0-.08.06-.2.07-.3a3,3,0,0,1,.3.18c.09-.08.11-.23.17-.34s-.22-.14-.33-.2a1.83,1.83,0,0,0-.14.32l-.29-.12c1.88-1.29,6.36-1.22,8.3,0a1.09,1.09,0,0,1-.32.17c0-.1-.09-.22-.14-.32s-.21.13-.35.15a1.6,1.6,0,0,0,.14.35,10.64,10.64,0,0,0-6.61-.12,2.39,2.39,0,0,1-.8.28m-.1-.06-.2-.1c0-.09.05-.14.06-.22l.23.1c0,.07,0,.15-.09.22M22.86,9.37H23c0,.09,0,.11,0,.19a.59.59,0,0,1-.11-.19m-.08.09a3.74,3.74,0,0,1,.49,1c0,.13-.05.25,0,.37s.19.12.3.16c.15.51.53,1,.35,1.6.11,0,.11.13.22.18s.25,0,.41,0a6.52,6.52,0,0,1,.79.4,7.86,7.86,0,0,0,3,.59,7.24,7.24,0,0,0,3-.59c.27-.12.52-.3.81-.4s.38,0,.51-.21.05-.33.08-.56.34-.7.38-1.06c.26,0,.35-.23.23-.47A6.79,6.79,0,0,1,34.25,9a3.21,3.21,0,0,0,.37-.45,1.92,1.92,0,0,0,0-.24,9.71,9.71,0,0,0,.1-1.4,2.42,2.42,0,0,0-2.5-2.31,2.78,2.78,0,0,0-2.86-1.49c0-.06.11-.11.06-.18-.19-.32-.41-.61-.59-1,.14-.24.32-.44.45-.69C29,.9,28.71.41,28.38,0c-.27.46-.58.88-.85,1.34.13.25.31.43.43.69-.18.38-.56.76-.63,1.11a2.9,2.9,0,0,0-2.84,1.49A2.48,2.48,0,0,0,22,7.33c0,.45.11.8.12,1.27a6.66,6.66,0,0,1,.65.86"/><path class="cls-1" d="M18.1,34.42a2.17,2.17,0,0,1,.46-.32A12.68,12.68,0,0,0,19.94,33c.14,0,.32,0,.43.12s.11,0,.2,0a.83.83,0,0,0,.16.12.43.43,0,0,1,.41.11c.69-.1-.13.42-.28.52a7.38,7.38,0,0,1-1.34.75,1.81,1.81,0,0,1-1.24.29.3.3,0,0,1-.18-.49m7.28-6a47.08,47.08,0,0,1-3.79,3.54,8.42,8.42,0,0,1-1.4,1,43.51,43.51,0,0,0,5.19-4.57m-1.32-.67a3.84,3.84,0,0,1,.2-1.19c.45,0,.82,0,1.26,0a17.2,17.2,0,0,0-.12,1.82,8.57,8.57,0,0,1-1.34-.61m-.12-.06a2,2,0,0,1,.2-1.15,6.14,6.14,0,0,1-.14.87c0,.1,0,.22-.06.28m-.24-.48c-.08,0-.07.17,0,.18s0,.11-.1.12a2.87,2.87,0,0,1,.06-.61s0,.14.1.1c-.05,0-.1.07-.08.16a.08.08,0,0,0,.14,0c0-.06-.05,0-.08-.05s0,0,.1,0,0-.14,0-.17-.06-.09-.12-.1.16,0,.19-.1a4,4,0,0,0-.11.87c-.14-.06.12-.38-.14-.42m-.14-.05c-.06,0-.15-.09-.13-.12a.3.3,0,0,1,.14,0c0,.07,0,.1,0,.14m0,.29s-.1,0-.1-.08.07,0,.08,0,0,.08,0,.12m-.2-.35c.09,0,.11.11.18.15a.48.48,0,0,1-.16.08.3.3,0,0,1,0-.23m-.14-.24a.12.12,0,0,0,.12-.06c.05,0,0,.1,0,.18s-.09-.05-.1-.12m.22-.06c.07,0,.07.1.12.12s-.13,0-.18.06l.06-.18m.15-.26c.06,0,.06.06.1.08s-.14,0-.21.06.08-.09.11-.14m.12.16a.48.48,0,0,0-.06.18c-.05,0-.11-.07-.13-.14a1.06,1.06,0,0,0,.19,0m.08-.2a.08.08,0,0,0,0,.06c-.06,0,0,0-.08,0s.07,0,.1,0m.1,0s0,.11,0,.16-.08,0-.1,0,0-.2.1-.2m.12.06s0,0,0,0,0,.07,0,.12-.07-.05-.08-.1a.11.11,0,0,0,.06,0m2.38-.15c0,.22,0,.53.2.61,0,.53-.08,1-.08,1.59a4.19,4.19,0,0,1-1-.23,12.3,12.3,0,0,1,.12-1.88,4.28,4.28,0,0,0,.76-.09m.08,0c.31-.15.1.28.14.49-.17,0-.14-.28-.14-.49m1.66.21a9.43,9.43,0,0,1,0,1.84,3.28,3.28,0,0,1-1.54.17A13.88,13.88,0,0,1,26.64,27a4.64,4.64,0,0,0,1.46-.4m-1.4-.26a4.61,4.61,0,0,0,.59-.15l.79.33a4.21,4.21,0,0,1-1.44.4c0-.18,0-.41.06-.58m.37-1c.09-.11.29-.12.48-.14,0,.21-.31.21-.48.14m-.06.08a.42.42,0,0,1,.26.31c-.11-.08-.16-.22-.26-.31m-.27-.2c0-.05-.13-.06-.14-.14a1.2,1.2,0,0,1,1-.2c-.33.06-.78.06-.91.34M26.5,25a1.45,1.45,0,0,1,.4-.16c-.14,0-.3.23-.4.16m-.12-.06a.52.52,0,0,1,.49-.2,1.94,1.94,0,0,1-.49.2m-.09-.18h-.91s0-.05,0,0h.81s.13,0,.06,0M25,24.8s0,0,0,0,.19.27.4.24.17-.15.31-.1c-.16.33-.68.14-.75-.12m-.61-.1c-.1,0-.1,0,0,0h.55c.05,0,.08,0,.18,0a4.39,4.39,0,0,1-.73,0m.18.32H21.4V23.83h3.13v.22h-.35v.71c.08,0,.24,0,.35,0Zm0,.47c-1,0-2.15.05-3.11,0,.11-.14,0-.18.06-.24s-.1,0-.06-.1h3.13c0,.14,0,.25,0,.38m-3.09-2.07c1,0,2.16-.06,3.11,0-.14.08.09.17-.08.2s.11,0,.08.13H21.4c0-.13,0-.24,0-.35m3.64.73a5.24,5.24,0,0,1-.8,0,2.13,2.13,0,0,1,.8,0m-.8.12a2.62,2.62,0,0,1,.41,0h.41a5.48,5.48,0,0,1-.82,0m0,.11a1.36,1.36,0,0,1,.41,0h.41c-.23,0-.55,0-.82,0m.82.18a1.63,1.63,0,0,1-.82,0Zm-.82-.1h.82a1.89,1.89,0,0,1-.82,0M25.42,24c0,.06-.11.07-.12.14a1.63,1.63,0,0,0,0,.77c-.07,0-.09,0-.14,0-.11-.2,0-.66-.12-.81,0-.14.26-.2.34-.08m.26.06c-.18-.07-.3-.39-.58-.22.13-.21.59,0,.58.22m.17.16h.51a3.8,3.8,0,0,1-.76,0c-.13,0-.33,0-.12,0h.37m.18-.55c-.06,0-.15,0-.16-.08s.21-.12.16.08m-.24.15a1.33,1.33,0,0,0-.21-.33c.39-.27.83-.49,1.22-.77,0,.1.49.57.51.71s0,.1,0,.14c-.23.09-.38.27-.63.35a4.76,4.76,0,0,1,.57-.39,3.13,3.13,0,0,0-.45-.69c-.37.2-.71.43-1.05.65a4.26,4.26,0,0,0,.34.55c-.16.07-.22-.12-.28-.22m.95-1.2s0,0,0,.06a13.08,13.08,0,0,1-1.24.71c.39-.28.83-.5,1.22-.77m-2.21-.87c.43-.24.81-.52,1.26-.74.32.5.6,1,.93,1.53-.39.27-.83.49-1.22.77-.34-.5-.65-1-1-1.56m-.1-.15c.36-.29.83-.49,1.21-.77.06,0,.06.06.09.08a9.52,9.52,0,0,1-1,.63c-.09.06-.23.21-.3.06m-.08-.14c0-.1.18-.14.28-.2l.65-.41c.1-.05.22-.17.32-.12s-.17.14-.28.2l-.65.41c-.09.05-.22.18-.32.12m0-.55c.12.07.22.16.34.23a1.9,1.9,0,0,1-.34.2c0-.1,0-.27,0-.43m-.06.37a1.78,1.78,0,0,1-.17-.27c.14-.23.18.08.17.27m.42-.22a3.53,3.53,0,0,1-.32-.21c.07-.09.2-.12.28-.2s0,.28,0,.41m.1-.47c.09-.06.22-.18.33-.16a1.43,1.43,0,0,0,0,.36,2.91,2.91,0,0,1-.35-.2m0,.06a2.26,2.26,0,0,0,.37.22,2.43,2.43,0,0,1-.35.2,2.88,2.88,0,0,0,0-.42m-.51,0,.94-.57s0,.06.08.06a9.14,9.14,0,0,1-1.22.73c-.09-.12.13-.17.2-.22m-.16-.47c.15.06.29.14.43.21a3.3,3.3,0,0,1-.55.32,4.12,4.12,0,0,0,.12-.53M23.62,20c.11,0,.24.09.36.12a2.19,2.19,0,0,1-.08.47,5.34,5.34,0,0,1-.28-.59m0-.65c.17,0,.26.11.42.12a3.46,3.46,0,0,1-.06.59,2.71,2.71,0,0,0-.43-.14c0-.19,0-.39.07-.57m-.47-.26a1.24,1.24,0,0,1,0-.47c.14,0,.24.08.38.1a4.25,4.25,0,0,1,0,.51c-.13,0-.27-.08-.39-.14m.34.69c-.1-.18-.18-.39-.28-.57a1.34,1.34,0,0,1,.33.1c0,.16,0,.31,0,.47M23.15,18l-.35-.1c.05-.08,0-.23,0-.35a3.18,3.18,0,0,1,.33.09Zm0,.49c-.3,0-.37-.21-.31-.51a3.18,3.18,0,0,0,.33.08,3,3,0,0,1,0,.43m0,.36a1.62,1.62,0,0,1-.17-.32c.09,0,.11.05.19,0s0,.17,0,.28M22.54,17a.79.79,0,0,1,0-.23.29.29,0,0,1,.22.29c-.09,0-.15-.06-.24-.06m.22.44a.84.84,0,0,0-.24-.06,2.83,2.83,0,0,0,0-.3.84.84,0,0,1,.24.06c0,.11,0,.18,0,.3m0,.43a.75.75,0,0,1-.24-.08,2,2,0,0,1,0-.35l.24.08c0,.12,0,.22,0,.35m0,.28c-.06-.06-.08-.15-.14-.22s.1,0,.14,0Zm-.24-1.48-.2-.06c0-.11.24-.15.2.06m0,.28a.38.38,0,0,1-.22-.06s0-.13,0-.2l.2.06Zm0,.39c-.1,0-.15,0-.22-.06a1.37,1.37,0,0,0,0-.3.8.8,0,0,0,.2.06Zm0,.31a1.38,1.38,0,0,1-.14-.27c.05,0,.08,0,.14,0Zm-.25-.78a.79.79,0,0,1-.22-.06c.08-.09.29-.24.22.06m0,.29a.83.83,0,0,1-.12-.25c.05,0,.08,0,.14,0s0,.12,0,.21m-.28-.53c.18,0,.37-.37.49-.18a2.65,2.65,0,0,0-.43.28s-.05-.05-.06-.1m.39-.34a3.18,3.18,0,0,1-.43.28,1.6,1.6,0,0,1,.43-.28m-1.22-1a1.31,1.31,0,0,0,.3-.2c.21.3.38.63.59.93-.06.08-.17.11-.24.18a10,10,0,0,1-.65-.91m-.08.08a5.9,5.9,0,0,1,.65.9,3.7,3.7,0,0,1-.65-.9m.34-.36c-.08.09-.2.13-.28.22a.83.83,0,0,1,0-.33,1.51,1.51,0,0,1,.32.11M22,16a6,6,0,0,1-.58-1A4.31,4.31,0,0,1,22,16m.14.29c.07,0-.2.14-.26.2s.19-.15.26-.2m.68.93c.17.06.24.22.32.38a1.07,1.07,0,0,1-.32-.08Zm.36.93.36.11v.42c-.14,0-.24-.08-.38-.1,0-.17,0-.27,0-.43m0-.44a.81.81,0,0,1,.34.46,1.89,1.89,0,0,1-.36-.1c0-.13,0-.22,0-.36m.43,1.09c.16,0,.28.11.44.14a2.83,2.83,0,0,0,0,.51c-.14-.06-.31-.09-.44-.16a3.93,3.93,0,0,1,0-.49m0-.51a1.31,1.31,0,0,1,.44.57c-.17,0-.28-.11-.44-.14Zm1,1.45c0,.2,0,.42-.08.63a2.45,2.45,0,0,0-.49-.23c0-.2.05-.39.06-.59.17.06.35.12.51.19M24.16,19c.23.11.33.36.51.52a.32.32,0,0,0,0,.14c-.16-.07-.34-.11-.51-.18a1.87,1.87,0,0,0,0-.48m1,1a2.19,2.19,0,0,1-.47.29,5.14,5.14,0,0,0,.06-.55.62.62,0,0,1,.41.26m-.39-.43c.05,0,.07.08.1.1s-.13,0-.1-.1m.77,1a2.16,2.16,0,0,1-.3.18c0-.12,0-.28,0-.4a4,4,0,0,0,.34.22m-.06-.14c-.06,0-.16-.12-.26-.15s.05-.06.12-.06a1.53,1.53,0,0,0,.14.21m1.87,3.47c0,.06-.11.06-.2.06a.56.56,0,0,1,.2-.12s0,.06,0,.06m.32.77c-.06.07-.35,0-.42,0l.42,0m-.54-.32a1.76,1.76,0,0,1,.4.06c-.13,0-.29,0-.4-.06M26.44,24s0,0,0-.06.18.19.3.28a2.3,2.3,0,0,0,.87.31A1.35,1.35,0,0,1,26.44,24m.1.55v-.16a1.33,1.33,0,0,0,.53.2c-.15,0-.33-.07-.53,0m.2.08c.09,0-.09,0-.1,0s-.24.08-.26.16c0-.14.22-.24.36-.18m-.28-.08h-1.1v-.22h1.1Zm-.08-.49c.14.07.29.31.5.39-.22,0-.39-.22-.5-.39m.06.18a9.6,9.6,0,0,1-1.08,0,3.88,3.88,0,0,1,1.08,0M26.7,24c.05,0,.2.2.18.16S26.77,24,26.7,24m.12.22a.68.68,0,0,1-.28-.3c.12.07.17.22.28.3m.1-.85v-.12H27s0,0,0,0a.15.15,0,0,1-.12.08m-.36.22a.46.46,0,0,1-.18.13v-.15c.08,0,.1,0,.18,0m-.16-.1v-.14c.08,0,.1,0,.18,0v.16s-.14,0-.18,0m.16-.38s.07.14,0,.2a.48.48,0,0,1-.22-.08c.13-.11.29-.18.42-.28a.18.18,0,0,1,.09.2c-.14,0-.22-.13-.31,0m.26.32a.25.25,0,0,1-.16.1v-.14s.11,0,.16,0m-.16-.1c0-.05,0-.11,0-.14s.09,0,.16,0a.33.33,0,0,1,0,.14c-.07,0-.1,0-.18,0m.45.08s0,0,0,.06a6.74,6.74,0,0,1-.95.55c.29-.23.63-.4.94-.61m-1,.32c.09,0,.11,0,.2,0s-.13.08-.18.14,0-.11,0-.17m0-.32a1.53,1.53,0,0,1,.21-.14s0,.12,0,.2a.36.36,0,0,1-.24-.06m0,.1a.71.71,0,0,0,.2,0v.12s-.13,0-.22,0,0-.07,0-.14m1.5,1.83a.81.81,0,0,0-.38-1.18c-.1,0-.22,0-.31-.06s0,0,0,0c.65-.08,1.25.83.64,1.28m-.24-2.94c.1-.06.31,0,.45,0,.66,0,1.49-.05,2,0,0,.16-.16.11-.25.12a9.1,9.1,0,0,1-2,0c-.1,0-.27,0-.21-.14m.18-.21c-.09,0,0-.07,0-.1s0,.18.07.18.21-.27.3-.12,0,0-.1,0,.15.14.24.1-.06-.15-.12-.2a2.33,2.33,0,0,1,.47,0c0,.08-.13,0-.19,0s0,.07.06.06,0,.07-.12.06v-.1c-.08,0-.09.05-.08.12.15.22.3-.2.43-.06s-.06-.05-.1,0,.16.12.24.08-.06-.12-.1-.18.2,0,.24,0,0,.17-.08.18.28.1.22,0-.07.07-.08,0,.2.08.26.1.22-.11.13-.18,0,.07,0,.1-.09,0-.13,0,.07,0,.06-.06-.13,0-.16,0a2.16,2.16,0,0,1,.45,0c-.06,0,0,.16-.12.18s.24.06.24,0-.09,0-.1,0,.24.25.43.07c0-.07,0-.16-.06-.15s0,.08,0,.1-.07,0-.12,0,.06,0,.06-.06-.13,0-.18,0,.23,0,.35,0v.28a18.66,18.66,0,0,1-2.48,0V22c.13,0,.31,0,.39,0s-.08.05-.15,0,.08.13-.06.14m-.16-.46c.81,0,1.64,0,2.46,0v.16a12.72,12.72,0,0,1-2.48,0c0-.06,0-.18,0-.2m2.46-.37v.29a20.19,20.19,0,0,1-2.46,0c0-.09,0-.22,0-.27.8,0,1.64,0,2.48,0M27.39,21h.19s0,.09,0,.08-.06.06-.12.06v-.1c-.08,0-.09.05-.08.12.17.22.29-.21.43-.06s-.06-.06-.1,0,.2.14.24.06a.46.46,0,0,1-.1-.21c.06.05.19,0,.28,0s0,.1,0,.08-.05.07-.12.06,0-.11,0-.1-.06.06-.06.12c.16.22.3-.2.42-.06s0,0-.08,0v.08c0,.06.14,0,.23,0a1,1,0,0,0-.1-.21c0-.05.21,0,.24,0s0,.17-.08.21.26,0,.24,0-.09,0-.1,0,.51.36.39-.08c-.08,0,0,.07-.05.1s-.08,0-.12,0,.08-.06,0-.13.2,0,.29,0a.45.45,0,0,1-.1.18c0,.08.25,0,.24,0s-.09,0-.1,0c.12-.21.24.25.43.06v-.14c-.12,0-.06.06-.09.1s-.07,0-.12,0,.08,0,.06-.1.17,0,.21,0v.26a20.19,20.19,0,0,1-2.46,0c0-.07,0-.13,0-.26m0-.59a.2.2,0,0,0,.12-.1s0,.12,0,.16a.43.43,0,0,0,.31.28c.14,0,.14-.06.26-.08s0-.13,0-.2a.5.5,0,0,0,.34.34,8.68,8.68,0,0,1-1,0Zm.26,0s0,0,0,0-.08,0-.08-.1.14.06.17-.07,0,.06,0,.11,0,0,0,0,0-.06.06-.09-.06.15.1.17c0,0-.05,0-.1,0s0,.09.06.1-.14,0-.2.1c0-.14-.07-.08-.15-.06s.08-.15-.08-.14c0-.09,0,0,.1,0m.45-.88c.06.1.09.21.2.25a.7.7,0,0,0-.24.55c0-.15-.29-.22-.43-.15a2.21,2.21,0,0,0,.47-.65m.22.07v-.11h.09s0,0,0,0,0,.06-.1.07m-.14-.17s0,0,0,0,.24,0,.31,0-.13-.1-.13-.22.44-.14.47,0-.1.12-.12.22.21-.05.3,0a.23.23,0,0,1-.08.28c.06-.15-.1-.4-.22-.14,0,.1.12.08.08.21a.3.3,0,0,0-.14,0s.06,0,.06-.08c0-.2-.31-.06-.16.06,0,0-.09,0-.15,0s.06-.11.07-.19c0-.29-.4,0-.19.11-.05,0-.13-.11-.12-.23m0-1.77c0-.14-.08-.23,0-.34a.19.19,0,0,0,.23.08s-.08.16,0,.21-.1,0-.16.05m-.08-.54s0-.21,0-.29,0,.21,0,.29M28,16.23a2.6,2.6,0,0,1,.49,0c-.16.07-.32.14-.33.36-.07-.09-.07-.26-.16-.35m0,1a3.13,3.13,0,0,0-.18-.87c.2.14.18.52.18.87m-.2-.35c0-.12,0-.27-.13-.32s.13.14.15.26,0,.38,0,.06m-.08.19c-.16,0,0-.29-.14-.35s0-.06,0-.12c.11.09.11.27.11.47m-.19,0h-.1c-.09-.09,0-.26,0-.33s.14.25.06.33m.79-1h.49c.14,0,.32,0,.35.08a3.88,3.88,0,0,1-1.08,0c0-.08.16-.06.24-.06m.49-.1c-.08.05-.26,0-.39,0,0-.21.33-.18.39,0m.43.27a1.73,1.73,0,0,0-.21.91c0,.13-.08-.12-.16-.12.27-.19.17-.76-.18-.78a3.28,3.28,0,0,1,.55,0m.12.1s0,0,0,0a1.56,1.56,0,0,0-.16.85,1.21,1.21,0,0,1,.12-.89m.06.46a1.4,1.4,0,0,0,0,.29c-.08,0,0-.34,0-.39s0,.1,0,.1m-.28.43c-.05,0,0-.28,0-.39s0,.28,0,.39m-.11.5a.74.74,0,0,0-.18,0,.24.24,0,0,0,0-.23c.06,0,.21,0,.2-.1.08.09,0,.24,0,.36m-.81,1.37a.34.34,0,0,0,0-.15c.21,0,.75-.15.75.15a1.82,1.82,0,0,0-.77,0m.1.06c0,.08,0,.16.05.2s-.1,0-.17,0,0-.24.12-.22m.33-.69s.1-.1,0-.15,0,.06.12,0,0-.07-.08-.09a.59.59,0,0,1-.35,0s0,0-.06,0,0,.11.05.09-.14,0-.13,0,0-.13,0-.19a1.82,1.82,0,0,1,.77,0v.29l-.34,0m.32.28v.12a2.24,2.24,0,0,0-.73,0c0-.26.52-.1.73-.12m-.18-.2c-.09,0-.26,0-.38,0,.08-.05.26,0,.38,0m-.37-.21s.12,0,.19,0-.13,0-.14,0,0,0,.06,0-.08,0-.15,0,.11-.09,0-.15M29,18v.14a1.91,1.91,0,0,0-.79,0c0-.05,0,0,0-.1A1,1,0,0,1,29,18m0-.08a1.59,1.59,0,0,0-.81,0,.83.83,0,0,1,.81,0m-.44-.33v-.06s.05,0,.08,0,0,0-.08,0m-.21-.74a.23.23,0,0,1,.05-.39.22.22,0,0,1,.11-.05.32.32,0,0,0-.16.44m.06.44h-.08v-.08s.09,0,.08.08m.41,0c-.07,0,0-.07,0-.1s0,.07,0,.1m-.34-.37h.14a.28.28,0,0,0,.12-.48.24.24,0,0,0-.14-.06.27.27,0,0,1,.26.32.25.25,0,0,1-.38.22m.28-.34c.11.35-.43.34-.39,0,0-.05,0-.11.17-.14a.17.17,0,0,1,.22.1m-.61.28c.15.11.14.18,0,.31-.05-.06,0-.21,0-.31m.06.51a.29.29,0,0,1,.08-.26s0,.08,0,.12.22.16.25,0-.09-.08-.09-.18,0,.2.19.16.09-.1.06-.16.08,0,.08,0-.05.11,0,.18.35,0,.2-.12a.22.22,0,0,1,.08.22c-.07.09-.21,0-.3,0s.11.09.12.18-.07.09-.16.09.08-.06.06-.15-.19-.1-.22,0,0,.15.06.15-.16,0-.17,0,.09-.12.13-.19-.21,0-.29,0m.81,2c0,.07-.1-.05-.12,0s.06-.14,0-.22.05,0,.08,0a.32.32,0,0,0,0,.18m.06.28a3.47,3.47,0,0,0,.53.61.56.56,0,0,0-.44.11.49.49,0,0,0-.25-.49c.06-.07.15-.11.16-.23m.59.86c0,.05-.07,0-.1.06s.08,0,.06.1-.17-.09-.14.08c-.09,0-.08-.13-.2-.06.06-.1,0-.14-.08-.16s.09,0,.12,0,0,.15.12.14c.28-.19-.14-.14-.18-.26s.14.11.14-.05h.06c0,.07,0,.08,0,.11s0-.09.1-.06,0,.13.06.14m-.87-.92c.07-.06.13,0,.08.1s-.09,0-.08-.1m-.18,1.24a.48.48,0,0,1-.08-.95c.71-.12.73.95.08.95m1.22-.36v.4h-1c.13-.08.26-.15.31-.3.09,0,.07.13.12.18a.51.51,0,0,0,.42,0,.42.42,0,0,0,0-.38.49.49,0,0,1,.15.1M28.79,24.6c0-.14.2-.09.28-.1a1.28,1.28,0,0,0,.78-.45h.06a1.5,1.5,0,0,1-1.12.55M30,22.67c.42.24.82.51,1.24.75,0,.11-.14.23-.23.22s.09-.1.09-.18a12,12,0,0,0-1-.67c-.11,0-.09.17-.2.19a.58.58,0,0,1,.12-.31m.1-.08c.41.23.8.48,1.2.73-.09,0-.21-.06-.31-.12-.29-.18-.61-.41-.91-.57,0,0,0,0,0,0s.06-.07.06,0m.85-.85c.05,0-.05.09-.06.14s-.15-.06-.2,0,.05-.06.06-.1.18.08.2,0m.65.42c0-.06.06,0,0-.1s.08.12.14.14,0,.07-.06.11,0-.15-.12-.15m-.38.49a3.07,3.07,0,0,1-.53-.31c.13-.23.28-.43.41-.66a5.21,5.21,0,0,1,.52.28c-.12.24-.28.44-.4.69m.3-.39s0,.08.06.08-.23.16-.06.21.07-.1,0-.08,0,0,.1,0-.09.13-.12.22-.06-.18-.16-.12a2.29,2.29,0,0,0,.18-.31m.26-.44c0,.08.06,0,0,.1s-.09-.06-.1,0c-.25-.11-.45-.34-.73-.37,0-.08.05,0,.11,0a.14.14,0,0,0-.07-.1c-.07,0-.09,0-.12.08s0,.06,0,.13,0-.06-.1-.05c.08-.12.15-.24.22-.36.35.17.65.38,1,.57a1.56,1.56,0,0,0-.16.28.18.18,0,0,1-.07-.1c.06,0,.07,0,.11,0s0-.17-.13-.14m-1,.16s.07,0,.08,0-.11.21-.16.3-.16-.05-.17,0,.1-.15.11-.25.07.05.08.1a.07.07,0,0,0-.1,0c0,.16.24,0,.16-.1m-.14.55c-.11.09.05.14.1.2s.07-.07.16-.06-.12-.15-.16-.08,0-.17-.19-.14c0-.06,0-.06,0-.11a6.82,6.82,0,0,1,.74.41c.05,0,.07-.09.1-.14s0,.1,0,.14-.13,0-.12.12.05,0,.08.07,0-.09,0-.13,0,.05.06,0-.09.14-.12.23-.21-.15-.35-.19c.07,0,.15.07.21,0s0,0,0,.09a.1.1,0,0,0,.08-.09c0-.1-.14-.09-.21-.06s0-.14-.14-.12,0,.11,0,.18c-.19-.11-.38-.24-.59-.34,0-.05.06-.06.06-.12s.09,0,.09.08,0-.06-.09,0,.17.1.25.08M31.08,21c.43.23.83.5,1.24.74-.29.54-.64,1-.93,1.56-.41-.27-.72-.39-1-.61-.12-.09.12,0,.13,0,.23.14.54.33.77.49.35-.41.58-.94.89-1.38-.35-.23-.72-.45-1.1-.65-.29.45-.55.91-.85,1.36,0,0,.06,0,.08.06s-.09-.06-.14-.06c.31-.52.6-1.05.93-1.55m.11-.18c.43.23.81.51,1.25.73l-.06.13c-.43-.23-.81-.52-1.25-.73,0-.07,0-.08.06-.13m1.05.43c.1.06.24.09.26.2s-.22-.06-.32-.12l-.65-.41c-.1-.05-.28-.09-.26-.22a5.3,5.3,0,0,1,1,.55m-.59-.83c.11.07,0,.25,0,.38-.11,0-.19-.11-.3-.16.07-.1.21-.13.28-.22m-.08-.17.1.07c-.06.07-.17.11-.24.18s.12-.15.14-.25m.18.53c0-.15,0-.25,0-.38a.56.56,0,0,1,.31.2,3.47,3.47,0,0,0-.33.18m.37.28c-.14,0-.22-.13-.35-.18a3.78,3.78,0,0,1,.33-.22c0,.1,0,.28,0,.4m-.47-.93s.06,0,.06,0l.92.53c.08.05.22.1.22.2s-.22-.07-.3-.12a6.71,6.71,0,0,1-.92-.57s0,0,0,0m.51-.36a2.38,2.38,0,0,0,.06.55c-.14,0-.33-.2-.49-.27a.58.58,0,0,1,.43-.28m0-.17s0,.06,0,.09l-.12,0c0-.06.08-.07.1-.13m.57,0c.09.14,0,.42.1.59a2.64,2.64,0,0,0-.51.23c0-.24-.05-.42-.06-.65a3.26,3.26,0,0,0,.47-.17m0-.56a1.87,1.87,0,0,1,0,.5,2.35,2.35,0,0,0-.49.16c0-.31.29-.46.45-.66m.1-.05c.16,0,.27-.11.44-.14a3.78,3.78,0,0,0,0,.49c-.13.06-.29.1-.42.16a1.6,1.6,0,0,1,0-.51m.44-.65v.43c-.16,0-.28.11-.44.14a1.15,1.15,0,0,1,.44-.57m.09,0a3,3,0,0,0,.32-.11c.1.07,0,.33.06.43a1.41,1.41,0,0,0-.38.12.93.93,0,0,1,0-.44m.32-.53c0,.07,0,.23,0,.34a1.91,1.91,0,0,1-.34.1.62.62,0,0,1,.32-.44m.08,0c.12,0,.2-.07.33-.09,0,.14,0,.23,0,.37a3.18,3.18,0,0,0-.33.08c0-.14,0-.22,0-.36m.27-.47c.07,0,0,.2.06.3a1.23,1.23,0,0,1-.33.08.81.81,0,0,1,.27-.38m-.23,1.32a2.68,2.68,0,0,0,0-.41c.12,0,.25-.11.35-.08,0,.32,0,.49-.33.49m.57-1.71V17c-.09,0-.15,0-.24.06,0-.14.09-.26.24-.29m0,.61c-.09,0-.16.05-.24.06v-.3a.57.57,0,0,1,.24-.06Zm-.2.49a1.45,1.45,0,0,1,0-.37.43.43,0,0,0,.2-.06c.1.18.08.46-.18.43m.3-1.38c.06,0,.09.09.16.1s-.15.06-.22.08,0-.12.06-.18m.1-.12c.14.11.43.16.41.36-.16-.08-.28-.2-.45-.28,0-.06,0,0,0-.08m.49.22-.43-.28a.85.85,0,0,1,.43.28m0-.12c-.07,0-.19-.12-.28-.16.07,0,.18.12.28.16M35.39,15s0,0,0,0c-.23.28-.36.65-.61.91a10,10,0,0,1,.57-1m.42.26c-.2.32-.44.6-.65.91L34.92,16c.16-.33.38-.6.55-.93.14,0,.21.14.34.18m.07-.36a1.13,1.13,0,0,0,0,.3,3.13,3.13,0,0,1-.3-.2c.08-.06.21-.15.33-.1m0,.48c-.23.27-.39.61-.64.86a8,8,0,0,1,.63-.92s0,0,0,.06m-1.21,1.5s0-.16,0-.18.19.06.22.14-.12,0-.2,0m0,.31c-.05,0,0-.16,0-.23s.1,0,.12,0-.1.16-.1.27M34.39,17v-.22c.17-.05.24,0,.2.18-.08,0-.1.06-.2,0m.23.35c-.1,0-.12.05-.21,0s0-.18,0-.3.11-.06.2,0a1.39,1.39,0,0,1,0,.3m-.17.31a.34.34,0,0,1,0-.19s.1,0,.12,0-.07.15-.08.23m-.28.52s0-.1,0-.18.08,0,.14,0-.08.14-.1.22m-.41.69v-.26a1.16,1.16,0,0,1,.18,0c-.06.09-.08.24-.18.3m-.08.27c-.13,0-.25.08-.38.12a2.32,2.32,0,0,0,0-.47c.09-.08.25-.09.37-.14a.64.64,0,0,1,0,.49m-.34.65a3.62,3.62,0,0,1,0-.47c.11,0,.17-.06.26-.08a1.15,1.15,0,0,1-.24.55m-.49.3-.06-.57c.12-.07.3-.09.42-.16.06.17,0,.41.09.59a3,3,0,0,0-.45.14m.08.63a4.83,4.83,0,0,1-.55-.3.83.83,0,0,1,.43-.21,1.91,1.91,0,0,0,.12.51m.06-.12a1,1,0,0,1-.12-.45,1,1,0,0,0,.34-.12c0,.19-.17.36-.22.57m-.34.63c0-.08,0-.25,0-.37l.16.1c0,.1-.11.17-.14.27m-.47-.2a2.68,2.68,0,0,0,0-.41c.11,0,.21.13.32.18a1.36,1.36,0,0,1-.34.23m.37.28-.33-.18c.08-.11.23-.16.33-.25,0,.09,0,.28,0,.43m-1.71,2.15s.1.07.16.08-.09.07-.14.1,0-.17,0-.18m.51.35a.68.68,0,0,0-.29,0c-.17,0-.21.24-.36.26a.43.43,0,0,1,.65-.22m.79.34c-.19.1-.55,0-.81,0a3.46,3.46,0,0,1,.81,0m-.29-.51c0-.08.09-.11,0-.18.95-.08,2.13,0,3.11,0a1.73,1.73,0,0,1,0,.35H31.85c0-.09.09,0,.09-.11s-.08,0-.09,0m3.07,1.59c.1.06,0,.1.06.26-1,0-2.13,0-3.13,0a.87.87,0,0,0,0-.36H35c0,.09-.08,0-.06.1m-3.15-.51h-.42c-.11,0,.08,0,.12,0h.61s0,0,0,0-.1,0-.14,0Zm-1.09.24c.12-.07.21,0,.28.08.25,0,.32-.13.43-.24.07.24-.55.48-.71.16m-.61-.18s0-.05,0,0H31c.07,0,0,0,0,0Zm0,.35s0-.05,0-.09h.08c0,.05-.06.05-.06.09m-.53-.33c.17-.11.39.06.49.14-.17,0-.28-.15-.49-.14m-1,.39a1.87,1.87,0,0,1-.67,0,3.64,3.64,0,0,1,.67,0m-.08-.23a2.09,2.09,0,0,1-.51,0c0-.15.56-.17.51,0m0-.24a.53.53,0,0,1-.46,0Zm-.48-.08v0a.65.65,0,0,1,.51,0c-.09.09-.36,0-.51,0m-.06-.26h.65c-.05.19-.43.06-.63.1,0-.05,0-.05,0-.1m.79-.23s-.09.12-.12.16c-.37,0-.79.06-.92-.18.3,0,.76.05,1,0M28,24a7.74,7.74,0,0,1,1,0c-.25.13-.67,0-1,0m.79.67c.08-.07.35-.05.43-.06a.63.63,0,0,1-.43.06m.57.63c-.13.12-.49.08-.49-.12a1,1,0,0,1,.49.12m.2-.47a.68.68,0,0,1,.37.16c-.11,0-.23-.13-.37-.16m.29.25-.13.1a1.4,1.4,0,0,0-.95-.31c.07-.1.24-.09.34-.08a1.56,1.56,0,0,1,.74.29m.06-.69v.16a2.76,2.76,0,0,0-.53.06,4.31,4.31,0,0,0,.53-.22m.12-.35a.66.66,0,0,1-.49.43,1.69,1.69,0,0,0,.49-.43m.47-.08a.72.72,0,0,1-.53-.33,3.15,3.15,0,0,0,.53.33m-.51.3a6.15,6.15,0,0,1,1.07,0,4.61,4.61,0,0,1-1.07,0m.08.53s-.35-.2-.41-.16c.13-.08.33,0,.41.16m-.1-.46H31v.22H29.93ZM31,24.17a3.7,3.7,0,0,1-.75,0c-.13,0-.33,0-.12,0H31Zm.19.65c-.07,0-.08.07-.17,0,.07-.2.17-.82-.1-.87,0-.15.32-.12.37,0-.13.19-.06.57-.1.83m.1-.55c.24,0,.56,0,.83,0a5.65,5.65,0,0,1-.83,0m.83.33a3.6,3.6,0,0,1-.83,0,3.67,3.67,0,0,1,.83,0m-.81-.22a5.12,5.12,0,0,1,.81,0,6.69,6.69,0,0,1-.81,0m.81.12a3.6,3.6,0,0,1-.83,0,2.79,2.79,0,0,1,.83,0m-.29-.45c0-.07,0-.19,0-.22H35V25H31.85v-.24h.35v-.71c-.07-.05-.24,0-.35,0m-1.32-.59c0-.09,0-.14,0-.22s.21.11.2.16-.15.05-.23.06m0,.22v-.14a1.77,1.77,0,0,0,.2,0v.14c-.09,0-.13,0-.2,0m.22,0c0,.1-.07.06-.06.13s-.12,0-.14-.1.11,0,.2,0m-.16.27a1.88,1.88,0,0,1-.69-.47,3.81,3.81,0,0,1,.69.47M30,23.34V23.2c.08,0,.1,0,.18,0v.14c-.08,0-.1,0-.18,0m.2.18c-.08,0-.11-.07-.18-.08s.12,0,.14-.06,0,.1,0,.14m.06-.22c.06-.3-.07-.22-.26-.16a.29.29,0,0,1,0-.2c.16.07.29.18.45.26,0,.07-.14.08-.23.1m.21.26v.15c-.07,0-.12-.08-.19-.11a.53.53,0,0,1,.19,0m-.21-.06v-.14c.09,0,.11,0,.19,0s0,.08,0,.14a.47.47,0,0,1-.21,0m-.95.83a.91.91,0,0,1-.43.11c.06-.09.3,0,.43-.11m-.51,1c-.17,0-.29-.26-.3-.45,0-.51.52-.79,1-.85.09,0-.09.1-.12.14-.63-.08-.87.73-.55,1.16m.71-1.15s.06-.16.16-.19c-.08.06-.11.16-.16.19m.33-.25c0,.13-.16.18-.23.28a.81.81,0,0,1,.23-.28m-2.48-.31a17.1,17.1,0,0,0,2.48,0v.21c-.2.18-.5.12-.88.12s-1.09,0-1.6,0Zm0-.73h2.46v.65a15.79,15.79,0,0,1-2.48,0,4.56,4.56,0,0,1,0-.65m0-.28a16.83,16.83,0,0,0,2.46,0v.16c-.74.1-1.66,0-2.48,0,0-.06,0-.17,0-.2m2.54,3a6.72,6.72,0,0,1-1.28.73,1.5,1.5,0,0,1-.45.21c-.26,0-.58-.31-.85-.35v-.67a.7.7,0,0,0,.47-.22,1.79,1.79,0,0,0,.73,0,1,1,0,0,0,1.38-.18c.06.14,0,.31,0,.48M28.2,28.43c0-.57,0-1.22,0-1.86a7.76,7.76,0,0,0,1.71-.92,2.55,2.55,0,0,1-1.71,2.78M30.05,27A37.22,37.22,0,0,0,33,30a36.56,36.56,0,0,1-3.14-3.21s.13.08.18.14m6.35,6c0,.12-.16.06-.28.06-.14.16-.43,0-.55.21-.1,0-.2-.05-.29,0a38.93,38.93,0,0,1-5.09-4.49c.06,0,.31.06.31-.1.16.18.54.16.83.16,0,.1-.08.07-.1.12.18.16.25-.24,0-.22,0-.17-.09-.25-.23-.2s.17,0,.15.12v0a.52.52,0,0,1-.76-.33c0-.08.14-.06.19-.08-.11-.16-.26,0-.27.12s.1.17.11.27a.19.19,0,0,1-.21,0c0-.12.05-.11.06-.19s-.18.12-.12.23c-.3-.29-.56-.61-.85-.89.07-.15.19-.25.26-.39a.64.64,0,0,1,.55.55c-.1.08-.13-.05-.2-.06s0,.15.06.16.2,0,.36,0,.11-.15.06-.22,0,.12-.08.14-.1-.14-.14-.22a.74.74,0,0,0-.57-.45,4.25,4.25,0,0,0,.21-.49A43.61,43.61,0,0,0,36.4,33m.12-.06a1.13,1.13,0,0,1-.48-.29,34.25,34.25,0,0,1-2.82-2.42,40.59,40.59,0,0,0,3.3,2.71m.23.08c.23.2.56.48.91.73a6.23,6.23,0,0,1,.93.65c.3.34-.12.56-.6.51a4.35,4.35,0,0,1-1.51-.63,7.29,7.29,0,0,1-1.22-.89c.07-.11.19,0,.29,0s.13-.11.2-.12.32.05.39-.11l.16,0c.1,0,.13-.09.22-.12s.18.07.23,0m-7.51-5.13a42.75,42.75,0,0,0,6,5.46,33.6,33.6,0,0,1-6-5.46m-2.54.85a34.31,34.31,0,0,1-5.22,4.61c.07-.13.22-.19.33-.27a36.1,36.1,0,0,0,4.87-4.38c.05,0,0,0,0,0m-1.06.08c-.2,0-.17.3,0,.26,0-.12-.16-.07-.09-.18a1.34,1.34,0,0,0,.57-.08c.14-.06.2-.19.39-.12,0,.07-.07.11-.1.14-.34.35-.69.73-1.06,1.08a37.66,37.66,0,0,1-4,3.35c-.19,0-.35,0-.46-.13s-.14.07-.18,0-.36,0-.47-.14a42.42,42.42,0,0,0,5.15-4.59,6.07,6.07,0,0,0,.79.23.55.55,0,0,1-.54.14c0-.15.09-.13.14-.18-.12-.13-.28.07-.21.2m3.94-12.24c.05,0,0,.06.06.06s-.1.22-.08.41c0,0,0,0,0,0-.1-.12,0-.38.06-.47m.12.16a.22.22,0,0,1,.09.33c-.07,0-.08,0-.15,0a.55.55,0,0,1,.06-.31M18.66,35A3.61,3.61,0,0,0,20,34.5,15.05,15.05,0,0,0,22.09,33c.37-.27.71-.53,1-.79a34.72,34.72,0,0,0,3.29-3c.13-.15.33-.44.44-.47a6,6,0,0,1,.74,0A3.77,3.77,0,0,0,29.2,28a34.44,34.44,0,0,0,6,5.4,5.57,5.57,0,0,0,1.38,1,3.94,3.94,0,0,0,1.53.59c.38,0,.64-.07.68-.34s-.25-.39-.42-.51A10.87,10.87,0,0,1,36.83,33c-.07,0-.17,0-.21,0a34.8,34.8,0,0,1-3.55-3,32.31,32.31,0,0,1-3.18-3.33A11.63,11.63,0,0,0,30,25.27c.09-.21.33-.28.57-.35a.46.46,0,0,0,.75.1c.14-.13.18-.31.46-.24,0,.24,0,.54,0,.75a24.56,24.56,0,0,0,3.21,0,19.64,19.64,0,0,0,0-2.17c-1,0-2.18,0-3.21,0-.09.2.09.63-.08.71s-.17-.15-.26-.26-.18-.1-.24-.19a37.21,37.21,0,0,0,2.09-3.55,37.19,37.19,0,0,1,1.93-3.71,9.27,9.27,0,0,0,.7-.92c0-.22.1-.6-.12-.65s-.32.14-.51.17a15.51,15.51,0,0,1-1.21,1.88c-.61.82-1.21,1.72-1.85,2.46-.22.26-.47.49-.67.75-.63.84-1.06,1.78-1.68,2.64V20.42c-.21-.28-.78-.57-.84-1.14s-.12-2,.41-2.15c.13,0,.27,0,.39,0,.12-.24-.1-.41-.19-.53s-.4-.34-.5-.57c-.31.1-.35-.26-.55-.26s-.26.35-.57.26c-.06.19-.27.26-.41.41s-.14.21-.22.3-.17.23-.08.39c.32,0,.55.07.67.28a4.61,4.61,0,0,1,.14,1.81,1.55,1.55,0,0,1-.4.81c-.12.13-.41.32-.45.45a3.17,3.17,0,0,0,0,.69v2.11a43.55,43.55,0,0,0-2.5-3.7c-1-1.11-1.76-2.36-2.68-3.53a8.61,8.61,0,0,0-.59-1c-.18,0-.34-.24-.5-.21s-.12.36-.14.65a8.66,8.66,0,0,0,.73,1c.74,1.23,1.39,2.56,2,3.9s1.51,2.5,2.17,3.73c-.14-.08-.23-.33-.43-.37a.51.51,0,0,0-.53.23c0,.12-.05.25-.24.2s0-.55-.06-.71c-1,0-2.23-.06-3.21,0,0,.67,0,1.48,0,2.15a24.56,24.56,0,0,0,3.21,0c.1-.17,0-.55.06-.75.28-.06.27.11.39.22a.51.51,0,0,0,.81-.08.82.82,0,0,0,.59.08.93.93,0,0,0,.48.39c.12.26.42.33.37.75a9.82,9.82,0,0,1-3.11.3,2.92,2.92,0,0,0-.5-.05c-.12,0-.2.13-.29.22s-.2.16-.26.24c.14.13.08.35.18.49a2.07,2.07,0,0,0,.45.3,10.11,10.11,0,0,0,1.54.71A38.26,38.26,0,0,1,20.06,33h-.18a6,6,0,0,1-1,.81c-.22.16-1,.51-.94.88s.34.37.71.34"/><path class="cls-1" d="M27.84,20.58a.18.18,0,0,0,0-.16c-.17-.17-.31.19,0,.16"/><path class="cls-1" d="M26.25,22.53c.07,0,.22,0,.25-.06s-.06,0,0-.1a.27.27,0,0,1,.08.14,2.23,2.23,0,0,0-.33.2c0-.06.16-.1,0-.18m-.08.08c0-.09-.14-.05-.18,0s.1.09.18.08-.17.09-.22.16.05-.11,0-.2-.16,0-.14.12c-.13-.08-.28.07-.15.15s.08-.06,0-.07.1.07.2,0a1.36,1.36,0,0,1-.35.21c0-.07,0-.1-.08-.14s.09,0,.12-.05v-.06c0-.08-.07-.07-.12-.1a.08.08,0,0,0,0-.12c0-.05.07.11.1.14a2.54,2.54,0,0,0,.63-.41.18.18,0,0,0,.11,0c0,.13-.23.05-.17.24m-.85.06a.44.44,0,0,0-.12-.18s.06,0,.1,0,0,0,0,.06,0,0,0,0,.06,0,.1,0-.05-.14-.12-.17a.08.08,0,0,0,0-.06c.11,0,.12.2.2.27s-.09.09-.16.12M25,22.22s.13-.08.13-.18,0,.1.08.1a.3.3,0,0,0-.12.17s0-.08-.09-.09m-.22-.42c.35-.16.62-.4,1-.55.05.14.15.22.2.36-.14,0,0-.18-.16-.16s-.08,0-.08.08.07,0,.1,0-.09,0-.06.06c-.22,0-.45.24-.67.33-.05-.07-.05-.05-.12,0s.05,0,0-.08-.1,0-.12,0,0,.16.12.16-.05,0,0,.1a.77.77,0,0,1-.19-.3m1.32,0a.25.25,0,0,0-.2,0c0-.05,0-.09-.06-.1a1.43,1.43,0,0,1,.22,0c0,.06.06,0,0,.1m0,.53a3.77,3.77,0,0,0-.48.28,3.48,3.48,0,0,1-.43-.69,3,3,0,0,1,.53-.28c.1.25.29.42.38.69m0-.27S26.05,22,26,22s.1,0,.08,0-.05.12,0,.14m.08,0c-.07,0,.06,0,0-.08s.08.15.15.2,0,0,0,0-.16,0-.17.06,0-.08-.08-.1.13.05.14-.08-.06,0-.06,0m-.38-.93c-.39.18-.73.43-1.1.63.26.49.57.92.83,1.4.39-.2.73-.44,1.1-.65-.26-.48-.57-.91-.83-1.38"/><path class="cls-1" d="M25.08,21.84c.13,0,.38-.1.28-.29a.18.18,0,0,0-.16.15c-.1-.09-.23.07-.12.14"/><path class="cls-1" d="M19.17,34c-.08.19.31.37.41.1,0,0,0,.1.08.11.22.05.2-.28,0-.25,0-.16.23-.39.38-.2a.16.16,0,0,1,0,.16.12.12,0,1,0-.24,0c0,.25.42.13.41-.12,0,.06,0,.13.12.14a8.08,8.08,0,0,1-1.5.75s0-.14,0-.2c.15,0,.48.05.46-.16a.13.13,0,0,0-.22-.08s0,.16,0,.14c-.25,0-.68.1-.39.35-.14,0-.28,0-.32-.09a8.17,8.17,0,0,1,.81-.61m.27-.16c-.06.08.06.18.14.12a.33.33,0,0,1-.19.21c.07,0,.11-.26-.08-.25.05,0,.06-.07.13-.08m.81-.2a.71.71,0,0,1-.15.08c-.07-.2-.4-.08-.42.08s-.06,0-.12,0c.12-.2.42-.2.69-.12m.36.06c0,.07-.13.08-.18.14s0-.14-.06-.16.17,0,.24,0m-1.89,1.06a7.38,7.38,0,0,0,2.08-1.1c-.29,0-.85-.26-1.06-.12L19,34c-.11.07-.71.41-.71.54s.28.2.44.17"/><path class="cls-1" d="M36.34,33.61s-.07.06-.06.14,0,0,0,0-.13-.09-.2-.1.17,0,.24-.06m.16.12c.11.05.09.22.2.25.47.11,0-.61,0-.13,0,0-.06-.08-.06-.14.16-.18.35,0,.39.2a.13.13,0,0,0-.14.11c0,.1,0,.15.14.14s.07,0,.08-.11c.07.2.51.19.41-.1.28.2.57.38.83.59,0,.12-.24.12-.34.08.31-.17-.09-.36-.37-.3,0,0,0-.07,0-.14a.12.12,0,0,0-.22.1c0,.18.3.08.42.14s-.06.13,0,.16a7.49,7.49,0,0,1-1.52-.71s.13,0,.1-.14m.65,0a.23.23,0,0,1-.12.06c0-.17-.34-.28-.43-.08-.07,0-.07-.06-.14-.06a.59.59,0,0,1,.69.08m.14.1c.05,0,0,.07.11.06s-.13.06-.15.14,0,.11.09.11c-.09,0-.18-.1-.21-.19s.16,0,.16-.12m-.4.43A4.77,4.77,0,0,0,38,34.7c.16,0,.44,0,.45-.14s-.63-.54-.73-.61a3,3,0,0,0-.83-.5,4.74,4.74,0,0,0-.94.18,8.75,8.75,0,0,0,1,.59"/><path class="cls-1" d="M23.25,48.94c-.73-1-.22-2.66.07-3.83a4,4,0,0,1,.88,2.35,2.56,2.56,0,0,1-.95,1.48m19.1-6.48a4.48,4.48,0,0,0-.12,1.71,12.83,12.83,0,0,0,.42,3.14c.06-1.13-.21-2.49-.23-3.79a5,5,0,0,1,1.44,3.41,3.1,3.1,0,0,1-3.37,2.58c-1.08-.19-1.64-1.85-1.06-3.07a1,1,0,0,0,1.21-.15c.61-.57.86-2.13.76-3.45A5.34,5.34,0,0,0,40,40.15s0,0,0,0a1.88,1.88,0,0,0-.08,1c0,.68-.05,1.3,0,1.85,0,.38-.06.81.19,1,0-.91,0-1.75,0-2.73a3.65,3.65,0,0,1,1.14,2.61c-.07.85-.62,2-1.44,1.86a.71.71,0,0,1-.57-1c-.6.37-.91,1.05-1.4,1.6A9.63,9.63,0,0,1,31.7,49.4,6.21,6.21,0,0,1,27,48.22c-.31-.27-.88-.64-1-.95-.26-.52-.2-1.11-.6-1.55-.59,1,.68,1.89.45,3-.16.77-1.34,1.68-2.08.76,1.13-1.3.59-4.61-.5-5.38a7.46,7.46,0,0,1-.41,2.12,5.13,5.13,0,0,0,0,3.15,4.49,4.49,0,0,1-2.35,1c.09.21.46.17.72.19a3.25,3.25,0,0,0,2-.46c.38.38.79.86,1.48.72.88-.17,1.2-1.52,1.29-2.5a6.09,6.09,0,0,0,5.5,2,9.84,9.84,0,0,0,6.14-3.07c.49-.54.77-1.25,1.36-1.67a1.6,1.6,0,0,0,.27.87c-.78,1.68-.28,4.07,1.67,4.06,2.16,0,3.2-2,3.06-4.44a5.44,5.44,0,0,0-1.7-3.56"/><path class="cls-1" d="M1.8,41.89c0-.36.19-.59.11-.87-.2-.07-.33-.22-.57-.26a2.22,2.22,0,0,0-.15.87c.22.07.38.2.61.26"/><path class="cls-1" d="M38.67,40.94s0-.06-.07-.07c-1.57,3.42-8.34,1.84-9,6.1,1.13-3.89,7.73-2.3,9-6"/><path class="cls-1" d="M27,41.44c-1,.65-2.64.84-2.84,2.23A4.22,4.22,0,0,1,25,42.8c.91-.6,2.28-.72,2.5-1.89h-.11a.77.77,0,0,1-.42.53"/><path class="cls-1" d="M6.69,49.51c0-.82.69-1.2,1.36-1.44.12.76-.76,1.15-1.36,1.44m8.94-3.9c.11-1.69-.81-3.22-1.44-4.67a7.83,7.83,0,0,0,0,2.2c0,.79-.09,1.66.3,2.09,0-.79-.17-1.88-.07-2.73.22.83,1.13,1.94.87,3a2.63,2.63,0,0,1-.91,1.4c0-.14,0-.32-.12-.34-.1.47-.12,1-.56,1.14.1-.14-.05-.29,0-.49-.23.14-.14.47-.23.68a1.22,1.22,0,0,1-.61.53c0-.19.08-.51-.07-.57a1.33,1.33,0,0,1-1.78,1,1.42,1.42,0,0,1-.58-.56c-.59-1-.67-3-.94-4.14-.38.41,0,1.1,0,1.67a8.19,8.19,0,0,1,.19,1.33,3.08,3.08,0,0,1-.65,1.36,4.23,4.23,0,0,1-1.29,1,3,3,0,0,0,.42-2.35c-.47,0-.64.32-1,.41A6.51,6.51,0,0,0,5.74,42a6.41,6.41,0,0,0,.15,2.57,3.71,3.71,0,0,0,.42,1.75c-.08-1.14-.39-2.24-.42-3.3a6.17,6.17,0,0,1,1.18,4.78c-.48.34-.53,1.12-.69,1.78-2-.09-1.47-3.12-1.89-5a5,5,0,0,0,0,2.46c.11,1.63.35,3,1.44,3.42.13,0,.35-.05.42,0,0,.3-.11.81.11.94.07-.31.07-.71.12-1.06.3-.09.84-.29,1.09-.19,0,0-.14,0-.15,0,.34.19.61-.14.68-.19s.2-.07.27-.11a3.19,3.19,0,0,0,1.4-2.35c.09.52.31.9.38,1.44.38.51.7,1,1.55.83a3.89,3.89,0,0,0,1.79-1c1-.86,2-1.65,2.08-3.25"/><path class="cls-1" d="M45.08,41.44c.12,0,.17,0,.27,0s.06-.29.11-.42c-.7-.4-.63.8-.76,1.32-.17-.35-.33-.7-.76-.79a1,1,0,0,0-.19.72,1.86,1.86,0,0,1,.34.19c.07,0,0-.23.12-.23.26.23.31.68.57.91.22-.46,0-1.33.3-1.74"/><path class="cls-1" d="M48.07,44.17l3-1.82c.3-.2.79-.34.83-.8h-.08c-1.2.77-2.5,1.43-3.67,2.24,0,.16-.07.21,0,.38"/><path class="cls-1" d="M8.43,42.61c.05,0,0-.14.07-.15.32.27.44.73.72,1,.13-.48,0-1.18.38-1.44.11,0,.25.21.35.12s.11-.39-.08-.5c-.69-.07-.46.79-.72,1.14-.16-.23-.48-1-.87-.95a.53.53,0,0,0-.15.72c.08-.12.21,0,.3,0"/><path class="cls-1" d="M21.85,41.89c-.2.3-.57,1.37.18,1.33a1,1,0,0,0,.12-.46c-.14,0-.18.06-.3,0-.23-.24.07-.66,0-.87"/><path class="cls-1" d="M54.85,43.64c.13-.07.12-.29.19-.42-.6,0-.23-1-.15-1.25-.3.31-.66,1.43,0,1.67"/><path class="cls-1" d="M50,48.64c-.67-.61-.52-2.19-.26-3.15A2.49,2.49,0,0,1,50,48.64m5.87-3.22c-1.67-1-2.54,2.89-1.06,3.33a2.61,2.61,0,0,0,.08-.87.87.87,0,0,1,.42-1.67,1.09,1.09,0,0,1,.86,1.18,3.13,3.13,0,0,1-1.39,1.93,6.37,6.37,0,0,1-2.84,1c.69-.67.84-1.88.79-3.3.84-1.07,1-3.83-.42-4.39a4.4,4.4,0,0,0,.16,2.12,5.76,5.76,0,0,0,0-1.1,1.77,1.77,0,0,1,0,2.69c-.12-.27-.33-.58-.72-.49s-.68,1.33-.23,1.67.6,0,.88-.11c.61,1.45-1.14,3-2,1.74a4.74,4.74,0,0,0-.61-4.59c-.31,1.29-.79,3.22-.15,4.47a3.34,3.34,0,0,1-2.88,1.22c.83-.33,1.44-1.85,1.29-3.19-.06-.6-.43-1.19-1.17-1.09-.37.15-.4.93-.27,1.36.18-.82,1.2-.33,1.25.26a2,2,0,0,1-.94,1.56c-1.11.56-1.8-.39-1.9-1.36-.25-2.35,1.55-2.75,1.74-4.67.54-.4-.1-.87-.45-1.06-.09.29-.3.46-.34.8.16.22.43.32.57.57,0,.9-.65,1.19-1,1.74a5.14,5.14,0,0,0-.75,2.8,2.77,2.77,0,0,0,.87,2.13c.26.18.53.13.87.18.14,0,.3.13.45.16A3.44,3.44,0,0,0,50,49.77c.29.35.72.85,1.29.84.19,0,.32-.2.53-.08,0,.08-.18,0-.19.12a9.51,9.51,0,0,1,1.85,0c1.87,0,2.85-2.15,3-3.79a1.39,1.39,0,0,0-.61-1.44"/><path class="cls-1" d="M29.84,42.54c-.52-.53-1,.6-1,1.1-.31-.35-.35-1-1-1a2.44,2.44,0,0,0-.19.72c.24,0,.52.32.65.08a2.91,2.91,0,0,1,.53,1.25c.31-.5-.05-1.67.53-1.9.2,0,.26.2.49.19,0-.25.11-.34,0-.45"/><path class="cls-1" d="M12.41,42.92a.39.39,0,0,1,.3-.08.39.39,0,0,0-.3.08m.45-.42c-.63-.09-.87.87-.34,1.06-.17.36-.56.5-.68.91.48-.31,1.3-1.15,1-2"/><path class="cls-1" d="M16.88,49.24a4.12,4.12,0,0,0,.95-3c0-1.54-.79-2.44-1.4-3.6-.22.25-.13.6-.12,1,.06,1.26-.09,3.07.3,3.87,0-1.13-.17-2.55-.11-3.72.41.93,1.27,1.8,1.1,3.07s-1.33,2-2.35,2.58a6.43,6.43,0,0,1-3,.91c.27.33.88.06,1.22.08.12,0,.24.09.38.11a3.63,3.63,0,0,0,3-1.33"/><path class="cls-1" d="M12.67,45.19c-.05.24,0,.54-.41.45-.11-.07-.09-.27-.15-.37-.16.38-.08.8.22.83s.25-.18.42-.3.34-.1.42-.23c.05-.29.13-.63-.12-.76-.09.11,0,.37-.11.49s-.1-.12-.27-.11"/><path class="cls-1" d="M34.54,45.38c-.26.3-1,1.44-.11,1.59a2.6,2.6,0,0,0,.15-.42c-.86-.09.09-.94,0-1.17"/><path class="cls-1" d="M5.36,48.07c.35-.54.49-1.92-.19-2.2-.08.09-.08.26-.11.38a1.41,1.41,0,0,1,.45.87c0,.35-.21.64-.15,1"/><path class="cls-1" d="M53.11,48.22c.1.09.3.08.38.19,0,.29-.16.45-.16.76a3.57,3.57,0,0,0,.57.23,1.41,1.41,0,0,0,.2-.91c-.11-.08-.29-.1-.39-.19a1.74,1.74,0,0,0,.12-.76c-.17-.07-.28-.21-.53-.19,0,.29-.29.57-.19.87"/><path class="cls-1" d="M37.38,49.74a1.32,1.32,0,0,0,.54.45c.06-.33.35-.43.41-.76-.21-.15-.37-.35-.6-.49-.1.28-.33.43-.35.8"/><path class="cls-1" d="M3.43,51.37c.41-.32,1.11-.9.72-1.67-.37.43-1,.78-.72,1.67"/><path class="cls-1" d="M56.59,49.77c-.36.43-.89.68-1.17,1.18a2.21,2.21,0,0,0,1.29-1.14c-.05,0-.06,0-.12,0"/><path class="cls-1" d="M3.16,46.82c-.28-.13-.74.14-.83-.19.28-.86,1.45-1.39,1.59-2.62.11-1-.06-2.29-1.21-2,0,.37-.08,1.19.22,1.41,0-.18-.06-.47.08-.53.31,0,.66.08.72.38.16.8-.9,1.28-1.36,2-.32.5-.63,2.19.22,2.39.25.06.34-.12.65,0a.25.25,0,0,0,.11.12C3.4,49.4,1.25,50.17.43,49c-.66-1-.09-2.48.15-3.37-.79,1.39-.95,4.22.65,4.77a1.82,1.82,0,0,0,2.31-1.59,2.64,2.64,0,0,0-.38-2"/><path class="cls-1" d="M21.16,47.84a5.53,5.53,0,0,1-1.59,1.33,2.79,2.79,0,0,1,2-2.5,1.48,1.48,0,0,1-.38,1.17m.57-2.12c-.55.06-.73.68-1.13.76A7.57,7.57,0,0,0,19,41.63h-.12a18.74,18.74,0,0,0,.08,2.95c0,.67-.12,1.35.22,1.78,0-1.06-.14-2.46-.07-3.56a6,6,0,0,1,1.25,4,4,4,0,0,0-.95,2.54,7.2,7.2,0,0,1-2.88,1,7.51,7.51,0,0,0,2.88,0c0,.4-.08.94.15,1.13V50.23a4.41,4.41,0,0,0,2.2-4.51"/></g></g></svg>