<svg xmlns="http://www.w3.org/2000/svg" viewBox="0 0 1864 216.01"><defs><style>.cls-1{fill:#707171;fill-rule:evenodd;opacity:0.2;isolation:isolate;}</style></defs><title>Ресурс 1</title><g id="Слой_2" data-name="Слой 2"><g id="Слой_1-2" data-name="Слой 1"><polygon class="cls-1" points="801 216.01 813.5 187 826 216.01 801 216.01"/><polygon class="cls-1" points="794.5 136 799 146.01 790 146.01 794.5 136 794.5 136"/><polygon class="cls-1" points="780.5 54 789 73.01 772 73.01 780.5 54 780.5 54"/><polygon class="cls-1" points="784 139.01 764 139.01 774 117 784 139.01"/><polygon class="cls-1" points="754.5 35 759 45.01 750 45.01 754.5 35"/><polygon class="cls-1" points="718.5 171 726 188.01 711 188.01 718.5 171 718.5 171"/><polygon class="cls-1" points="678.5 78 685 92.01 672 92.01 678.5 78"/><polygon class="cls-1" points="648 180 664 216.01 632 216.01 648 180"/><polygon class="cls-1" points="633.5 120 641 137.01 626 137.01 633.5 120"/><polygon class="cls-1" points="595 0 604 20.01 586 20.01 595 0"/><polygon class="cls-1" points="593 93.01 584 93.01 588.5 83 593 93.01"/><polygon class="cls-1" points="537.5 123 550 150.01 525 150.01 537.5 123"/><polygon class="cls-1" points="501.5 34 506 44.01 497 44.01 501.5 34"/><polygon class="cls-1" points="484 65 491 80.01 477 80.01 484 65"/><polygon class="cls-1" points="459 183.01 475 147 491 183.01 459 183.01"/><polygon class="cls-1" points="431 89 437 102.01 425 102.01 431 89"/><polygon class="cls-1" points="409 185.01 418.5 165 428 185.01 409 185.01"/><polygon class="cls-1" points="400.5 66 408 82.01 393 82.01 400.5 66"/><polygon class="cls-1" points="349 30 353 39.01 345 39.01 349 30"/><polygon class="cls-1" points="336 156.01 343.5 140 351 156.01 336 156.01"/><polygon class="cls-1" points="330.5 110 338 126.01 323 126.01 330.5 110"/><polygon class="cls-1" points="308 50 312 59.01 304 59.01 308 50"/><polygon class="cls-1" points="285.5 134 295 155.01 276 155.01 285.5 134"/><polygon class="cls-1" points="247.5 50 259 75.01 236 75.01 247.5 50"/><polygon class="cls-1" points="253 122.01 245 122.01 249 113 253 122.01 253 122.01"/><polygon class="cls-1" points="258 183.01 226 183.01 242 147 258 183.01"/><polygon class="cls-1" points="196 152 204 170.01 188 170.01 196 152"/><polygon class="cls-1" points="193 45.01 197 54.01 189 54.01 193 45.01"/><polygon class="cls-1" points="163 192 169 206.01 157 206.01 163 192"/><polygon class="cls-1" points="163.5 8 167 16.01 160 16.01 163.5 8 163.5 8"/><polygon class="cls-1" points="143.5 140 151 157.01 136 157.01 143.5 140"/><polygon class="cls-1" points="139.5 86 143 94.01 136 94.01 139.5 86 139.5 86"/><polygon class="cls-1" points="91 180 107 216.01 75 216.01 91 180"/><polygon class="cls-1" points="66.5 110 73 124.01 60 124.01 66.5 110"/><polygon class="cls-1" points="8.5 189 16 206.01 1 206.01 8.5 189 8.5 189"/><polygon class="cls-1" points="4 130 8 139.01 0 139.01 4 130 4 130"/><polygon class="cls-1" points="331 216.01 291 216.01 311 173.02 331 216.01"/><polygon class="cls-1" points="1845 87 1861 123.01 1829 123.01 1845 87"/><polygon class="cls-1" points="1788.5 165 1798 185.01 1779 185.01 1788.5 165"/><polygon class="cls-1" points="1777.5 23 1790 50.01 1765 50.01 1777.5 23"/><polygon class="cls-1" points="1741.5 134 1750 153.01 1733 153.01 1741.5 134"/><polygon class="cls-1" points="1715.5 115 1720 125.01 1711 125.01 1715.5 115 1715.5 115"/><polygon class="cls-1" points="1682.5 187 1695 216.01 1670 216.01 1682.5 187 1682.5 187"/><polygon class="cls-1" points="1663.5 136 1668 146.01 1659 146.01 1663.5 136"/><polygon class="cls-1" points="1649.5 54 1658 73.01 1641 73.01 1649.5 54"/><polygon class="cls-1" points="1653 139.01 1633 139.01 1643 117 1653 139.01"/><polygon class="cls-1" points="1623.5 35 1628 45.01 1619 45.01 1623.5 35"/><polygon class="cls-1" points="1587.5 171 1595 188.01 1580 188.01 1587.5 171"/><polygon class="cls-1" points="1547.5 78 1554 92.01 1541 92.01 1547.5 78"/><polygon class="cls-1" points="1517 180 1533 216.01 1501 216.01 1517 180"/><polygon class="cls-1" points="1502.5 120 1510 137.01 1495 137.01 1502.5 120"/><polygon class="cls-1" points="1464 0 1473 20.01 1455 20.01 1464 0"/><polygon class="cls-1" points="1462 93.01 1453 93.01 1457.5 83 1462 93.01"/><polygon class="cls-1" points="1406.5 123 1419 150.01 1394 150.01 1406.5 123"/><polygon class="cls-1" points="1370.5 34 1375 44.01 1366 44.01 1370.5 34"/><polygon class="cls-1" points="1353 65 1360 80.01 1346 80.01 1353 65"/><polygon class="cls-1" points="1328 183.01 1344 147 1360 183.01 1328 183.01 1328 183.01"/><polygon class="cls-1" points="1300 89 1306 102.01 1294 102.01 1300 89"/><polygon class="cls-1" points="1278 185.01 1287.5 165 1297 185.01 1278 185.01"/><polygon class="cls-1" points="1269.5 66 1277 82.01 1262 82.01 1269.5 66"/><polygon class="cls-1" points="1218 30 1222 39.01 1214 39.01 1218 30"/><polygon class="cls-1" points="1205 156.01 1212.5 140 1220 156.01 1205 156.01"/><polygon class="cls-1" points="1199.5 110 1207 126.01 1192 126.01 1199.5 110"/><polygon class="cls-1" points="1177 50 1181 59.01 1173 59.01 1177 50"/><polygon class="cls-1" points="1154.5 134 1164 155.01 1145 155.01 1154.5 134 1154.5 134"/><polygon class="cls-1" points="1116.5 50 1128 75.01 1105 75.01 1116.5 50"/><polygon class="cls-1" points="1122 122.01 1114 122.01 1118 113 1122 122.01"/><polygon class="cls-1" points="1127 183.01 1095 183.01 1111 147 1127 183.01"/><polygon class="cls-1" points="1065 152 1073 170.01 1057 170.01 1065 152 1065 152"/><polygon class="cls-1" points="1062 45.01 1066 54.01 1058 54.01 1062 45.01"/><polygon class="cls-1" points="1032 192 1038 206.01 1026 206.01 1032 192"/><polygon class="cls-1" points="1032.5 8 1036 16.01 1029 16.01 1032.5 8"/><polygon class="cls-1" points="1012.5 140 1020 157.01 1005 157.01 1012.5 140 1012.5 140"/><polygon class="cls-1" points="1008.5 86 1012 94.01 1005 94.01 1008.5 86"/><polygon class="cls-1" points="960 180 976 216.01 944 216.01 960 180 960 180"/><polygon class="cls-1" points="935.5 110 942 124.01 929 124.01 935.5 110 935.5 110"/><polygon class="cls-1" points="877.5 189 885 206.01 870 206.01 877.5 189 877.5 189"/><polygon class="cls-1" points="873 130 877 139.01 869 139.01 873 130"/><polygon class="cls-1" points="1200 216.01 1160 216.01 1180 173.02 1200 216.01"/><polygon class="cls-1" points="1864 216.01 1832 216.01 1848 180 1864 216.01"/></g></g></svg>