<svg xmlns="http://www.w3.org/2000/svg" viewBox="0 0 31.79 31.08"><defs><style>.cls-1{isolation:isolate;}.cls-2{fill:#fff;}</style></defs><title>Ресурс 1</title><g id="Слой_2" data-name="Слой 2"><g id="Слой_1-2" data-name="Слой 1"><g class="cls-1"><path class="cls-2" d="M12.87,0V5.89A10.14,10.14,0,0,0,9.26,9.18a15.71,15.71,0,0,0-1.88,4.16,17.67,17.67,0,0,0-.63,4.87h6.12V31.08H0v-8q0-7.23,1.37-11a21.67,21.67,0,0,1,4.2-6.95A20.82,20.82,0,0,1,12.87,0ZM31.79,0V5.89a9.76,9.76,0,0,0-3.57,3.29,16.64,16.64,0,0,0-1.85,4.16,17.69,17.69,0,0,0-.62,4.87h6V31.08H18.92v-8q0-7.23,1.37-11a21.67,21.67,0,0,1,4.2-6.95A20.72,20.72,0,0,1,31.79,0Z"/></g></g></g></svg>