<svg xmlns="http://www.w3.org/2000/svg" viewBox="0 0 180.99 156.41"><defs><style>.cls-1{fill:#fff;}</style></defs><title>Ресурс 8</title><g id="Слой_2" data-name="Слой 2"><g id="Layer_1" data-name="Layer 1"><polygon class="cls-1" points="92.93 0 90.33 5.29 95.63 5.29 92.93 0"/><polygon class="cls-1" points="92.93 8.12 90.33 13.41 95.63 13.41 92.93 8.12"/><polygon class="cls-1" points="92.89 19.26 87.79 29.65 98.17 29.65 92.89 19.26"/><polygon class="cls-1" points="92.93 32.47 90.33 37.77 95.63 37.77 92.93 32.47"/><polygon class="cls-1" points="95.63 45.88 92.93 40.59 90.33 45.88 95.63 45.88"/><polygon class="cls-1" points="91.44 48.71 87.39 56.94 95.63 56.94 91.44 48.71"/><polygon class="cls-1" points="104.47 61.22 101.87 66.52 107.17 66.52 104.47 61.22"/><polygon class="cls-1" points="104.47 52.34 101.87 57.63 107.17 57.63 104.47 52.34"/><polygon class="cls-1" points="104.47 35.84 101.87 41.13 107.17 41.13 104.47 35.84"/><polygon class="cls-1" points="104.47 20.35 101.87 25.64 107.17 25.64 104.47 20.35"/><polygon class="cls-1" points="90.33 70.24 99.35 70.24 94.76 61.22 90.33 70.24"/><polygon class="cls-1" points="88.87 74.11 86.28 79.4 91.57 79.4 88.87 74.11"/><polygon class="cls-1" points="89.6 86.16 84.75 96.04 94.62 96.04 89.6 86.16"/><polygon class="cls-1" points="92.93 97.42 90.33 102.71 95.63 102.71 92.93 97.42"/><polygon class="cls-1" points="95.63 127.07 90.87 117.72 86.28 127.07 95.63 127.07"/><polygon class="cls-1" points="95.63 135.19 92.93 129.89 90.33 135.19 95.63 135.19"/><polygon class="cls-1" points="118.25 145.19 115.56 139.9 112.96 145.19 118.25 145.19"/><polygon class="cls-1" points="92.93 138.01 90.33 143.3 95.63 143.3 92.93 138.01"/><polygon class="cls-1" points="134.54 60.53 131.94 65.83 137.24 65.83 134.54 60.53"/><polygon class="cls-1" points="144.02 156.24 149.31 156.24 146.62 150.95 144.02 156.24"/><polygon class="cls-1" points="146.62 141.35 144.02 146.65 149.31 146.65 146.62 141.35"/><polygon class="cls-1" points="175.7 156.24 180.99 156.24 178.3 150.95 175.7 156.24"/><polygon class="cls-1" points="146.62 131.76 144.02 137.05 149.31 137.05 146.62 131.76"/><polygon class="cls-1" points="146.62 122.17 144.02 127.46 149.31 127.46 146.62 122.17"/><polygon class="cls-1" points="146.62 112.58 144.02 117.87 149.31 117.87 146.62 112.58"/><polygon class="cls-1" points="146.62 102.98 144.02 108.28 149.31 108.28 146.62 102.98"/><polygon class="cls-1" points="146.62 93.39 144.02 98.68 149.31 98.68 146.62 93.39"/><polygon class="cls-1" points="125.56 57.12 122.96 62.41 128.25 62.41 125.56 57.12"/><polygon class="cls-1" points="92.93 146.13 90.33 151.42 95.63 151.42 92.93 146.13"/><polygon class="cls-1" points="51.31 81.85 48.71 87.14 54 87.14 51.31 81.85"/><polygon class="cls-1" points="51.31 65.83 48.71 71.12 54 71.12 51.31 65.83"/><polygon class="cls-1" points="78.8 156.24 84.09 156.24 81.39 150.95 78.8 156.24"/><polygon class="cls-1" points="81.39 139.9 78.8 145.19 84.09 145.19 81.39 139.9"/><polygon class="cls-1" points="81.39 128.86 78.8 134.15 84.09 134.15 81.39 128.86"/><polygon class="cls-1" points="81.39 117.82 78.8 123.11 84.09 123.11 81.39 117.82"/><polygon class="cls-1" points="81.39 106.78 78.8 112.07 84.09 112.07 81.39 106.78"/><polygon class="cls-1" points="48.71 156.24 54 156.24 51.31 150.95 48.71 156.24"/><polygon class="cls-1" points="81.39 83.42 78.8 88.71 84.09 88.71 81.39 83.42"/><polygon class="cls-1" points="35.97 67.64 33.37 72.93 38.67 72.93 35.97 67.64"/><polygon class="cls-1" points="20.68 156.24 25.98 156.24 23.28 150.95 20.68 156.24"/><polygon class="cls-1" points="23.28 142.55 20.68 147.84 25.98 147.84 23.28 142.55"/><polygon class="cls-1" points="23.28 134.15 20.68 139.44 25.98 139.44 23.28 134.15"/><polygon class="cls-1" points="23.28 125.75 20.68 131.05 25.98 131.05 23.28 125.75"/><polygon class="cls-1" points="23.28 117.36 20.68 122.65 25.98 122.65 23.28 117.36"/><polygon class="cls-1" points="23.28 100.04 20.68 105.33 25.98 105.33 23.28 100.04"/><polygon class="cls-1" points="65.15 2.65 62.55 7.94 67.84 7.94 65.15 2.65"/><polygon class="cls-1" points="51.31 43.24 48.71 48.53 54 48.53 51.31 43.24"/><polygon class="cls-1" points="81.39 60.06 78.8 65.35 84.09 65.35 81.39 60.06"/><polygon class="cls-1" points="81.39 36.7 78.8 41.99 84.09 41.99 81.39 36.7"/><polygon class="cls-1" points="81.39 14.99 78.8 20.28 84.09 20.28 81.39 14.99"/><polygon class="cls-1" points="15.58 146.64 12.98 151.94 18.28 151.94 15.58 146.64"/><polygon class="cls-1" points="15.58 134.41 12.98 139.7 18.28 139.7 15.58 134.41"/><polygon class="cls-1" points="104.45 148.04 100.42 156.24 108.62 156.24 104.45 148.04"/><polygon class="cls-1" points="115.98 148.04 111.96 156.24 120.16 156.24 115.98 148.04"/><polygon class="cls-1" points="115.53 129.76 111.51 137.95 119.7 137.95 115.53 129.76"/><polygon class="cls-1" points="115.53 116.73 111.51 124.92 119.7 124.92 115.53 116.73"/><polygon class="cls-1" points="115.53 103.7 111.51 111.89 119.7 111.89 115.53 103.7"/><polygon class="cls-1" points="115.53 90.67 111.51 98.86 119.7 98.86 115.53 90.67"/><polygon class="cls-1" points="115.53 77.64 111.51 85.83 119.7 85.83 115.53 77.64"/><polygon class="cls-1" points="115.53 64.61 111.51 72.8 119.7 72.8 115.53 64.61"/><polygon class="cls-1" points="125.53 141.78 121.51 149.97 129.7 149.97 125.53 141.78"/><polygon class="cls-1" points="51.28 139.9 47.26 148.09 55.45 148.09 51.28 139.9"/><polygon class="cls-1" points="51.28 127.8 47.26 135.99 55.45 135.99 51.28 127.8"/><polygon class="cls-1" points="51.28 115.7 47.26 123.89 55.45 123.89 51.28 115.7"/><polygon class="cls-1" points="51.28 103.6 47.26 111.79 55.45 111.79 51.28 103.6"/><polygon class="cls-1" points="51.28 91.5 47.26 99.69 55.45 99.69 51.28 91.5"/><polygon class="cls-1" points="155.15 148.04 151.13 156.24 159.32 156.24 155.15 148.04"/><polygon class="cls-1" points="155.15 137.92 151.13 146.11 159.32 146.11 155.15 137.92"/><polygon class="cls-1" points="155.15 127.8 151.13 135.99 159.32 135.99 155.15 127.8"/><polygon class="cls-1" points="155.15 117.68 151.13 125.87 159.32 125.87 155.15 117.68"/><polygon class="cls-1" points="155.15 107.56 151.13 115.75 159.32 115.75 155.15 107.56"/><polygon class="cls-1" points="125.53 122.55 121.51 130.74 129.7 130.74 125.53 122.55"/><polygon class="cls-1" points="125.53 105.58 121.51 113.77 129.7 113.77 125.53 105.58"/><polygon class="cls-1" points="125.53 88.58 121.51 96.77 129.7 96.77 125.53 88.58"/><polygon class="cls-1" points="125.53 70.01 121.51 78.21 129.7 78.21 125.53 70.01"/><polygon class="cls-1" points="115.53 51.58 111.51 59.77 119.7 59.77 115.53 51.58"/><polygon class="cls-1" points="115.53 38.55 111.51 46.74 119.7 46.74 115.53 38.55"/><polygon class="cls-1" points="110.95 145.88 104.4 133.01 98.09 145.88 110.95 145.88"/><polygon class="cls-1" points="110.95 129.9 104.4 117.03 98.09 129.9 110.95 129.9"/><polygon class="cls-1" points="67.72 143.54 61.41 156.41 74.27 156.41 67.72 143.54"/><polygon class="cls-1" points="6.32 143.54 0 156.41 12.87 156.41 6.32 143.54"/><polygon class="cls-1" points="67.72 125.98 61.41 138.85 74.27 138.85 67.72 125.98"/><polygon class="cls-1" points="67.72 108.42 61.41 121.28 74.27 121.28 67.72 108.42"/><polygon class="cls-1" points="36.4 143.54 30.08 156.41 42.95 156.41 36.4 143.54"/><polygon class="cls-1" points="36.4 126.7 30.09 139.57 42.95 139.57 36.4 126.7"/><polygon class="cls-1" points="36.4 109.87 30.09 122.74 42.95 122.74 36.4 109.87"/><polygon class="cls-1" points="36.4 93.03 30.09 105.9 42.95 105.9 36.4 93.03"/><polygon class="cls-1" points="67.72 90.86 61.41 103.72 74.27 103.72 67.72 90.86"/><polygon class="cls-1" points="67.72 73.3 61.41 86.16 74.27 86.16 67.72 73.3"/><polygon class="cls-1" points="67.72 36.8 61.41 49.67 74.27 49.67 67.72 36.8"/><polygon class="cls-1" points="110.95 113.93 104.4 101.06 98.09 113.93 110.95 113.93"/><polygon class="cls-1" points="104.4 85.08 98.09 97.95 110.95 97.95 104.4 85.08"/><polygon class="cls-1" points="98.09 81.98 110.95 81.98 104.4 69.11 98.09 81.98"/><polygon class="cls-1" points="134.59 143.37 128.27 156.24 141.14 156.24 134.59 143.37"/><polygon class="cls-1" points="128.16 138.96 141.03 138.96 134.47 126.09 128.16 138.96"/><polygon class="cls-1" points="128.04 121.69 140.91 121.69 134.36 108.82 128.04 121.69"/><polygon class="cls-1" points="167.68 143.37 161.37 156.24 174.24 156.24 167.68 143.37"/><polygon class="cls-1" points="166.29 126.58 159.98 139.44 172.84 139.44 166.29 126.58"/><polygon class="cls-1" points="127.92 104.42 140.79 104.42 134.24 91.55 127.92 104.42"/><polygon class="cls-1" points="127.81 87.14 140.67 87.14 134.12 74.27 127.81 87.14"/></g></g></svg>