<svg xmlns="http://www.w3.org/2000/svg" viewBox="0 0 225.53 161.57"><defs><style>.cls-1{fill:#56308d;}</style></defs><title>Ресурс 1</title><g id="Слой_2" data-name="Слой 2"><g id="Layer_1" data-name="Layer 1"><rect class="cls-1" y="122.93" width="2.37" height="2.37"/><rect class="cls-1" x="4.75" y="122.93" width="2.37" height="2.37"/><rect class="cls-1" x="9.5" y="122.93" width="2.37" height="2.37"/><rect class="cls-1" x="14.25" y="122.93" width="2.37" height="2.37"/><rect class="cls-1" x="2.37" y="118.19" width="2.37" height="2.37"/><rect class="cls-1" x="7.12" y="118.19" width="2.37" height="2.37"/><rect class="cls-1" x="11.87" y="118.19" width="2.37" height="2.37"/><rect class="cls-1" x="16.62" y="118.19" width="2.37" height="2.37"/><rect class="cls-1" x="4.75" y="113.45" width="2.37" height="2.37"/><rect class="cls-1" x="9.5" y="108.7" width="2.37" height="2.37"/><rect class="cls-1" x="14.25" y="108.7" width="2.37" height="2.37"/><rect class="cls-1" x="19" y="108.7" width="2.37" height="2.37"/><rect class="cls-1" x="23.75" y="108.7" width="2.37" height="2.37"/><rect class="cls-1" x="9.5" y="103.95" width="2.37" height="2.37"/><rect class="cls-1" x="14.25" y="103.95" width="2.37" height="2.37"/><rect class="cls-1" x="19" y="103.95" width="2.37" height="2.37"/><rect class="cls-1" x="23.75" y="103.95" width="2.37" height="2.37"/><rect class="cls-1" x="28.49" y="103.95" width="2.37" height="2.37"/><rect class="cls-1" x="9.5" y="99.25" width="2.37" height="2.37"/><rect class="cls-1" x="14.25" y="99.25" width="2.37" height="2.37"/><rect class="cls-1" x="19" y="99.25" width="2.37" height="2.37"/><rect class="cls-1" x="23.75" y="99.25" width="2.37" height="2.37"/><rect class="cls-1" x="28.49" y="99.25" width="2.37" height="2.37"/><rect class="cls-1" x="4.75" y="94.55" width="2.37" height="2.37"/><rect class="cls-1" x="14.25" y="94.55" width="2.37" height="2.37"/><rect class="cls-1" x="19" y="94.55" width="2.37" height="2.37"/><rect class="cls-1" x="23.75" y="94.55" width="2.37" height="2.37"/><rect class="cls-1" x="28.49" y="94.55" width="2.37" height="2.37"/><rect class="cls-1" x="33.25" y="94.55" width="2.37" height="2.37"/><rect class="cls-1" x="56.99" y="94.55" width="2.37" height="2.37"/><rect class="cls-1" x="66.49" y="94.55" width="2.37" height="2.37"/><rect class="cls-1" x="71.24" y="94.55" width="2.37" height="2.37"/><rect class="cls-1" x="71.24" y="99.25" width="2.37" height="2.37"/><rect class="cls-1" x="75.99" y="99.25" width="2.37" height="2.37"/><rect class="cls-1" x="75.99" y="94.55" width="2.37" height="2.37"/><rect class="cls-1" x="80.74" y="94.55" width="2.37" height="2.37"/><rect class="cls-1" x="33.25" y="99.25" width="2.37" height="2.37"/><rect class="cls-1" x="56.99" y="99.25" width="2.37" height="2.37"/><rect class="cls-1" x="61.74" y="103.95" width="2.37" height="2.37"/><rect class="cls-1" x="61.74" y="108.7" width="2.37" height="2.37"/><rect class="cls-1" x="66.49" y="113.45" width="2.37" height="2.37"/><rect class="cls-1" x="66.49" y="118.19" width="2.37" height="2.37"/><rect class="cls-1" x="71.24" y="118.19" width="2.37" height="2.37"/><rect class="cls-1" x="71.24" y="122.93" width="2.37" height="2.37"/><rect class="cls-1" x="75.99" y="122.93" width="2.37" height="2.37"/><rect class="cls-1" x="75.99" y="130.68" width="2.37" height="2.37"/><rect class="cls-1" x="80.74" y="130.68" width="2.37" height="2.37"/><rect class="cls-1" x="80.74" y="135.43" width="2.37" height="2.37"/><rect class="cls-1" x="80.74" y="140.18" width="2.37" height="2.37"/><rect class="cls-1" x="85.48" y="140.18" width="2.37" height="2.37"/><rect class="cls-1" x="85.48" y="144.93" width="2.37" height="2.37"/><rect class="cls-1" x="90.23" y="144.93" width="2.37" height="2.37"/><rect class="cls-1" x="90.23" y="149.68" width="2.37" height="2.37"/><rect class="cls-1" x="90.23" y="154.43" width="2.37" height="2.37"/><rect class="cls-1" x="94.98" y="154.43" width="2.37" height="2.37"/><rect class="cls-1" x="94.98" y="159.19" width="2.37" height="2.37"/><rect class="cls-1" x="99.73" y="159.19" width="2.37" height="2.37"/><rect class="cls-1" x="104.48" y="159.19" width="2.37" height="2.37"/><rect class="cls-1" x="99.73" y="154.43" width="2.37" height="2.37"/><rect class="cls-1" x="104.48" y="154.43" width="2.37" height="2.37"/><rect class="cls-1" x="109.23" y="154.43" width="2.37" height="2.37"/><rect class="cls-1" x="94.98" y="149.68" width="2.37" height="2.37"/><rect class="cls-1" x="99.73" y="149.68" width="2.37" height="2.37"/><rect class="cls-1" x="104.48" y="149.68" width="2.37" height="2.37"/><rect class="cls-1" x="109.23" y="149.68" width="2.37" height="2.37"/><rect class="cls-1" x="94.98" y="144.93" width="2.37" height="2.37"/><rect class="cls-1" x="99.73" y="144.93" width="2.37" height="2.37"/><rect class="cls-1" x="104.48" y="144.93" width="2.37" height="2.37"/><rect class="cls-1" x="109.23" y="144.93" width="2.37" height="2.37"/><rect class="cls-1" x="113.98" y="144.93" width="2.37" height="2.37"/><rect class="cls-1" x="90.23" y="140.18" width="2.37" height="2.37"/><rect class="cls-1" x="94.98" y="140.18" width="2.37" height="2.37"/><rect class="cls-1" x="99.73" y="140.18" width="2.37" height="2.37"/><rect class="cls-1" x="104.48" y="140.18" width="2.37" height="2.37"/><rect class="cls-1" x="109.23" y="140.18" width="2.37" height="2.37"/><rect class="cls-1" x="113.98" y="140.18" width="2.37" height="2.37"/><rect class="cls-1" x="118.73" y="140.18" width="2.37" height="2.37"/><rect class="cls-1" x="85.48" y="135.43" width="2.37" height="2.37"/><rect class="cls-1" x="90.23" y="135.43" width="2.37" height="2.37"/><rect class="cls-1" x="94.98" y="135.43" width="2.37" height="2.37"/><rect class="cls-1" x="99.73" y="135.43" width="2.37" height="2.37"/><rect class="cls-1" x="85.48" y="130.68" width="2.37" height="2.37"/><rect class="cls-1" x="90.23" y="130.68" width="2.37" height="2.37"/><rect class="cls-1" x="94.98" y="130.68" width="2.37" height="2.37"/><rect class="cls-1" x="99.73" y="130.68" width="2.37" height="2.37"/><rect class="cls-1" x="104.48" y="130.68" width="2.37" height="2.37"/><rect class="cls-1" x="104.48" y="135.43" width="2.37" height="2.37"/><rect class="cls-1" x="109.23" y="130.68" width="2.37" height="2.37"/><rect class="cls-1" x="109.23" y="135.43" width="2.37" height="2.37"/><rect class="cls-1" x="113.98" y="130.68" width="2.37" height="2.37"/><rect class="cls-1" x="113.98" y="135.43" width="2.37" height="2.37"/><rect class="cls-1" x="118.73" y="130.68" width="2.37" height="2.37"/><rect class="cls-1" x="118.73" y="135.43" width="2.37" height="2.37"/><rect class="cls-1" x="123.48" y="130.68" width="2.37" height="2.37"/><rect class="cls-1" x="80.74" y="122.93" width="2.37" height="2.37"/><rect class="cls-1" x="85.48" y="122.93" width="2.37" height="2.37"/><rect class="cls-1" x="90.23" y="122.93" width="2.37" height="2.37"/><rect class="cls-1" x="94.98" y="122.93" width="2.37" height="2.37"/><rect class="cls-1" x="104.48" y="122.93" width="2.37" height="2.37"/><rect class="cls-1" x="109.23" y="122.93" width="2.37" height="2.37"/><rect class="cls-1" x="113.98" y="122.93" width="2.37" height="2.37"/><rect class="cls-1" x="118.73" y="122.93" width="2.37" height="2.37"/><rect class="cls-1" x="123.48" y="122.93" width="2.37" height="2.37"/><rect class="cls-1" x="128.23" y="122.93" width="2.37" height="2.37"/><rect class="cls-1" x="137.74" y="122.93" width="2.37" height="2.37"/><rect class="cls-1" x="137.72" y="118.19" width="2.37" height="2.37"/><rect class="cls-1" x="142.47" y="118.19" width="2.37" height="2.37"/><rect class="cls-1" x="142.5" y="113.45" width="2.37" height="2.37"/><rect class="cls-1" x="147.22" y="118.19" width="2.37" height="2.37"/><rect class="cls-1" x="152.01" y="118.19" width="2.37" height="2.37"/><rect class="cls-1" x="152.01" y="113.45" width="2.37" height="2.37"/><rect class="cls-1" x="152.01" y="108.7" width="2.37" height="2.37"/><rect class="cls-1" x="156.76" y="108.7" width="2.37" height="2.37"/><rect class="cls-1" x="147.22" y="108.7" width="2.37" height="2.37"/><rect class="cls-1" x="147.22" y="103.95" width="2.37" height="2.37"/><rect class="cls-1" x="152.01" y="103.95" width="2.37" height="2.37"/><rect class="cls-1" x="152.01" y="99.2" width="2.37" height="2.37"/><rect class="cls-1" x="152.01" y="94.55" width="2.37" height="2.37"/><rect class="cls-1" x="156.76" y="94.55" width="2.37" height="2.37"/><rect class="cls-1" x="156.76" y="89.85" width="2.37" height="2.37"/><rect class="cls-1" x="161.5" y="85.1" width="2.37" height="2.37"/><rect class="cls-1" x="161.5" y="80.35" width="2.37" height="2.37"/><rect class="cls-1" x="166.25" y="80.35" width="2.37" height="2.37"/><rect class="cls-1" x="166.25" y="75.6" width="2.37" height="2.37"/><rect class="cls-1" x="166.25" y="70.85" width="2.37" height="2.37"/><rect class="cls-1" x="171" y="70.85" width="2.37" height="2.37"/><rect class="cls-1" x="171" y="66.1" width="2.37" height="2.37"/><rect class="cls-1" x="182.82" y="66.1" width="2.37" height="2.37"/><rect class="cls-1" x="187.57" y="66.1" width="2.37" height="2.37"/><rect class="cls-1" x="175.75" y="70.85" width="2.37" height="2.37"/><rect class="cls-1" x="185.2" y="70.85" width="2.37" height="2.37"/><rect class="cls-1" x="189.95" y="70.85" width="2.37" height="2.37"/><rect class="cls-1" x="171" y="75.6" width="2.37" height="2.37"/><rect class="cls-1" x="175.75" y="75.6" width="2.37" height="2.37"/><rect class="cls-1" x="180.5" y="75.6" width="2.37" height="2.37"/><rect class="cls-1" x="189.8" y="75.6" width="2.37" height="2.37"/><rect class="cls-1" x="194.44" y="75.6" width="2.37" height="2.37"/><rect class="cls-1" x="171" y="80.35" width="2.37" height="2.37"/><rect class="cls-1" x="175.75" y="80.35" width="2.37" height="2.37"/><rect class="cls-1" x="180.5" y="80.35" width="2.37" height="2.37"/><rect class="cls-1" x="189.8" y="80.35" width="2.37" height="2.37"/><rect class="cls-1" x="194.44" y="85.1" width="2.37" height="2.37"/><rect class="cls-1" x="194.44" y="89.85" width="2.37" height="2.37"/><rect class="cls-1" x="194.44" y="94.55" width="2.37" height="2.37"/><rect class="cls-1" x="203.94" y="99.3" width="2.37" height="2.37"/><rect class="cls-1" x="203.94" y="104.05" width="2.37" height="2.37"/><rect class="cls-1" x="208.69" y="113.55" width="2.37" height="2.37"/><rect class="cls-1" x="218.19" y="122.93" width="2.37" height="2.37"/><rect class="cls-1" x="213.44" y="118.3" width="2.37" height="2.37"/><rect class="cls-1" x="218.19" y="118.3" width="2.37" height="2.37"/><rect class="cls-1" x="223.16" y="119.37" width="2.37" height="2.37"/><rect class="cls-1" x="213.44" y="113.55" width="2.37" height="2.37"/><rect class="cls-1" x="218.19" y="113.55" width="2.37" height="2.37"/><rect class="cls-1" x="218.53" y="89.85" width="2.37" height="2.37"/><rect class="cls-1" x="208.69" y="108.8" width="2.37" height="2.37"/><rect class="cls-1" x="213.44" y="108.8" width="2.37" height="2.37"/><rect class="cls-1" x="208.69" y="104.05" width="2.37" height="2.37"/><rect class="cls-1" x="208.69" y="99.3" width="2.37" height="2.37"/><rect class="cls-1" x="199.19" y="94.55" width="2.37" height="2.37"/><rect class="cls-1" x="203.94" y="94.55" width="2.37" height="2.37"/><rect class="cls-1" x="199.19" y="89.85" width="2.37" height="2.37"/><rect class="cls-1" x="203.94" y="89.85" width="2.37" height="2.37"/><rect class="cls-1" x="199.29" y="85.1" width="2.37" height="2.37"/><rect class="cls-1" x="194.44" y="80.35" width="2.37" height="2.37"/><rect class="cls-1" x="166.25" y="85.1" width="2.37" height="2.37"/><rect class="cls-1" x="171" y="85.1" width="2.37" height="2.37"/><rect class="cls-1" x="161.5" y="89.85" width="2.37" height="2.37"/><rect class="cls-1" x="166.25" y="89.85" width="2.37" height="2.37"/><rect class="cls-1" x="161.5" y="94.55" width="2.37" height="2.37"/><rect class="cls-1" x="166.25" y="94.55" width="2.37" height="2.37"/><rect class="cls-1" x="156.69" y="99.2" width="2.37" height="2.37"/><rect class="cls-1" x="161.37" y="99.2" width="2.37" height="2.37"/><rect class="cls-1" x="156.79" y="103.95" width="2.37" height="2.37"/><rect class="cls-1" x="142.5" y="122.93" width="2.37" height="2.37"/><rect class="cls-1" x="147.26" y="122.93" width="2.37" height="2.37"/><rect class="cls-1" x="80.74" y="108.7" width="2.37" height="2.37"/><rect class="cls-1" x="85.48" y="108.7" width="2.37" height="2.37"/><rect class="cls-1" x="85.48" y="103.95" width="2.37" height="2.37"/><rect class="cls-1" x="90.23" y="103.95" width="2.37" height="2.37"/><rect class="cls-1" x="84.95" y="99.25" width="2.37" height="2.37"/><rect class="cls-1" x="90.23" y="99.25" width="2.37" height="2.37"/><rect class="cls-1" x="90.23" y="94.55" width="2.37" height="2.37"/><rect class="cls-1" x="94.98" y="94.55" width="2.37" height="2.37"/><rect class="cls-1" x="94.98" y="89.85" width="2.37" height="2.37"/><rect class="cls-1" x="94.98" y="85.07" width="2.37" height="2.37"/><rect class="cls-1" x="99.73" y="85.07" width="2.37" height="2.37"/><rect class="cls-1" x="99.73" y="80.32" width="2.37" height="2.37"/><rect class="cls-1" x="104.48" y="80.32" width="2.37" height="2.37"/><rect class="cls-1" x="109.23" y="80.32" width="2.37" height="2.37"/><rect class="cls-1" x="113.98" y="80.32" width="2.37" height="2.37"/><rect class="cls-1" x="118.73" y="80.32" width="2.37" height="2.37"/><rect class="cls-1" x="123.48" y="80.32" width="2.37" height="2.37"/><rect class="cls-1" x="130.6" y="80.35" width="2.37" height="2.37"/><rect class="cls-1" x="135.35" y="75.6" width="2.37" height="2.37"/><rect class="cls-1" x="140.09" y="66.1" width="2.37" height="2.37"/><rect class="cls-1" x="140.09" y="61.35" width="2.37" height="2.37"/><rect class="cls-1" x="144.83" y="61.35" width="2.37" height="2.37"/><rect class="cls-1" x="149.58" y="61.35" width="2.37" height="2.37"/><rect class="cls-1" x="154.33" y="61.35" width="2.37" height="2.37"/><rect class="cls-1" x="159.08" y="61.35" width="2.37" height="2.37"/><rect class="cls-1" x="163.83" y="61.35" width="2.37" height="2.37"/><rect class="cls-1" x="144.85" y="61.35" width="2.37" height="2.37"/><rect class="cls-1" x="144.83" y="56.57" width="2.37" height="2.37"/><rect class="cls-1" x="149.58" y="51.82" width="2.37" height="2.37"/><rect class="cls-1" x="149.6" y="47.05" width="2.37" height="2.37"/><rect class="cls-1" x="154.3" y="42.3" width="2.37" height="2.37"/><rect class="cls-1" x="158.99" y="42.3" width="2.37" height="2.37"/><rect class="cls-1" x="158.99" y="37.55" width="2.37" height="2.37"/><rect class="cls-1" x="163.69" y="37.55" width="2.37" height="2.37"/><rect class="cls-1" x="166.07" y="35.18" width="2.37" height="2.37"/><rect class="cls-1" x="163.69" y="42.3" width="2.37" height="2.37"/><rect class="cls-1" x="168.39" y="42.3" width="2.37" height="2.37"/><rect class="cls-1" x="173.09" y="42.3" width="2.37" height="2.37"/><rect class="cls-1" x="154.3" y="47.05" width="2.37" height="2.37"/><rect class="cls-1" x="158.99" y="47.05" width="2.37" height="2.37"/><rect class="cls-1" x="163.69" y="47.05" width="2.37" height="2.37"/><rect class="cls-1" x="168.39" y="47.05" width="2.37" height="2.37"/><rect class="cls-1" x="173.09" y="47.05" width="2.37" height="2.37"/><rect class="cls-1" x="154.33" y="51.82" width="2.37" height="2.37"/><rect class="cls-1" x="159.08" y="51.82" width="2.37" height="2.37"/><rect class="cls-1" x="163.83" y="51.82" width="2.37" height="2.37"/><rect class="cls-1" x="168.58" y="51.82" width="2.37" height="2.37"/><rect class="cls-1" x="173.33" y="51.82" width="2.37" height="2.37"/><rect class="cls-1" x="178.08" y="51.82" width="2.37" height="2.37"/><rect class="cls-1" x="149.57" y="56.57" width="2.37" height="2.37"/><rect class="cls-1" x="154.3" y="56.57" width="2.37" height="2.37"/><rect class="cls-1" x="159.04" y="56.57" width="2.37" height="2.37"/><rect class="cls-1" x="163.77" y="56.57" width="2.37" height="2.37"/><rect class="cls-1" x="168.5" y="56.57" width="2.37" height="2.37"/><rect class="cls-1" x="173.23" y="56.57" width="2.37" height="2.37"/><rect class="cls-1" x="177.97" y="56.57" width="2.37" height="2.37"/><rect class="cls-1" x="168.58" y="61.35" width="2.37" height="2.37"/><rect class="cls-1" x="149.6" y="61.35" width="2.37" height="2.37"/><rect class="cls-1" x="173.33" y="61.35" width="2.37" height="2.37"/><rect class="cls-1" x="154.35" y="61.35" width="2.37" height="2.37"/><rect class="cls-1" x="178.08" y="61.35" width="2.37" height="2.37"/><rect class="cls-1" x="159.1" y="61.35" width="2.37" height="2.37"/><rect class="cls-1" x="182.82" y="61.35" width="2.37" height="2.37"/><rect class="cls-1" x="144.84" y="66.1" width="2.37" height="2.37"/><rect class="cls-1" x="149.59" y="66.1" width="2.37" height="2.37"/><rect class="cls-1" x="154.34" y="66.1" width="2.37" height="2.37"/><rect class="cls-1" x="159.09" y="66.1" width="2.37" height="2.37"/><rect class="cls-1" x="135.35" y="70.85" width="2.37" height="2.37"/><rect class="cls-1" x="140.09" y="70.85" width="2.37" height="2.37"/><rect class="cls-1" x="144.83" y="70.85" width="2.37" height="2.37"/><rect class="cls-1" x="149.57" y="70.85" width="2.37" height="2.37"/><rect class="cls-1" x="154.31" y="70.85" width="2.37" height="2.37"/><rect class="cls-1" x="159.05" y="70.85" width="2.37" height="2.37"/><rect class="cls-1" x="140.1" y="75.6" width="2.37" height="2.37"/><rect class="cls-1" x="144.85" y="75.6" width="2.37" height="2.37"/><rect class="cls-1" x="149.6" y="75.6" width="2.37" height="2.37"/><rect class="cls-1" x="154.35" y="75.6" width="2.37" height="2.37"/><rect class="cls-1" x="135.35" y="80.35" width="2.37" height="2.37"/><rect class="cls-1" x="140.1" y="80.35" width="2.37" height="2.37"/><rect class="cls-1" x="144.85" y="80.35" width="2.37" height="2.37"/><rect class="cls-1" x="149.6" y="80.35" width="2.37" height="2.37"/><rect class="cls-1" x="154.35" y="80.35" width="2.37" height="2.37"/><rect class="cls-1" x="104.48" y="75.57" width="2.37" height="2.37"/><rect class="cls-1" x="109.23" y="70.82" width="2.37" height="2.37"/><rect class="cls-1" x="113.98" y="70.82" width="2.37" height="2.37"/><rect class="cls-1" x="109.23" y="66.07" width="2.37" height="2.37"/><rect class="cls-1" x="109.23" y="61.32" width="2.37" height="2.37"/><rect class="cls-1" x="121.1" y="66.07" width="2.37" height="2.37"/><rect class="cls-1" x="123.48" y="70.82" width="2.37" height="2.37"/><rect class="cls-1" x="128.23" y="70.82" width="2.37" height="2.37"/><rect class="cls-1" x="125.85" y="66.07" width="2.37" height="2.37"/><rect class="cls-1" x="130.6" y="66.07" width="2.37" height="2.37"/><rect class="cls-1" x="121.1" y="61.32" width="2.37" height="2.37"/><rect class="cls-1" x="116.35" y="56.57" width="2.37" height="2.37"/><rect class="cls-1" x="121.1" y="56.57" width="2.37" height="2.37"/><rect class="cls-1" x="125.85" y="56.57" width="2.37" height="2.37"/><rect class="cls-1" x="130.6" y="56.57" width="2.37" height="2.37"/><rect class="cls-1" x="116.35" y="51.82" width="2.37" height="2.37"/><rect class="cls-1" x="121.1" y="51.82" width="2.37" height="2.37"/><rect class="cls-1" x="121.1" y="47.05" width="2.37" height="2.37"/><rect class="cls-1" x="121.1" y="42.3" width="2.37" height="2.37"/><rect class="cls-1" x="125.85" y="42.3" width="2.37" height="2.37"/><rect class="cls-1" x="125.85" y="37.55" width="2.37" height="2.37"/><rect class="cls-1" x="130.6" y="28.06" width="2.37" height="2.37"/><rect class="cls-1" x="135.35" y="28.06" width="2.37" height="2.37"/><rect class="cls-1" x="135.35" y="23.31" width="2.37" height="2.37"/><rect class="cls-1" x="135.35" y="18.56" width="2.37" height="2.37"/><rect class="cls-1" x="140.09" y="18.56" width="2.37" height="2.37"/><rect class="cls-1" x="140.1" y="13.81" width="2.37" height="2.37"/><rect class="cls-1" x="144.84" y="13.81" width="2.37" height="2.37"/><rect class="cls-1" x="140.09" width="2.37" height="2.37"/><rect class="cls-1" x="165.86" y="11.43" width="2.37" height="2.37"/><rect class="cls-1" x="125.85" y="10.68" width="2.37" height="2.37"/><rect class="cls-1" x="154.28" y="9.06" width="2.37" height="2.37"/><rect class="cls-1" x="149.58" y="13.81" width="2.37" height="2.37"/><rect class="cls-1" x="154.32" y="13.81" width="2.37" height="2.37"/><rect class="cls-1" x="144.83" y="18.56" width="2.37" height="2.37"/><rect class="cls-1" x="149.57" y="18.56" width="2.37" height="2.37"/><rect class="cls-1" x="154.31" y="18.56" width="2.37" height="2.37"/><rect class="cls-1" x="159.05" y="18.56" width="2.37" height="2.37"/><rect class="cls-1" x="140.1" y="23.31" width="2.37" height="2.37"/><rect class="cls-1" x="144.85" y="23.31" width="2.37" height="2.37"/><rect class="cls-1" x="149.6" y="23.31" width="2.37" height="2.37"/><rect class="cls-1" x="154.35" y="23.31" width="2.37" height="2.37"/><rect class="cls-1" x="159.1" y="23.31" width="2.37" height="2.37"/><rect class="cls-1" x="140.1" y="28.06" width="2.37" height="2.37"/><rect class="cls-1" x="144.84" y="28.06" width="2.37" height="2.37"/><rect class="cls-1" x="149.59" y="28.06" width="2.37" height="2.37"/><rect class="cls-1" x="154.34" y="28.06" width="2.37" height="2.37"/><rect class="cls-1" x="159.09" y="28.06" width="2.37" height="2.37"/><rect class="cls-1" x="163.84" y="28.06" width="2.37" height="2.37"/><rect class="cls-1" x="128.23" y="35.18" width="2.37" height="2.37"/><rect class="cls-1" x="130.6" y="32.81" width="2.37" height="2.37"/><rect class="cls-1" x="135.35" y="32.81" width="2.37" height="2.37"/><rect class="cls-1" x="140.1" y="32.81" width="2.37" height="2.37"/><rect class="cls-1" x="144.85" y="32.81" width="2.37" height="2.37"/><rect class="cls-1" x="149.6" y="32.81" width="2.37" height="2.37"/><rect class="cls-1" x="154.35" y="32.81" width="2.37" height="2.37"/><rect class="cls-1" x="130.6" y="37.55" width="2.37" height="2.37"/><rect class="cls-1" x="135.35" y="37.55" width="2.37" height="2.37"/><rect class="cls-1" x="140.1" y="37.55" width="2.37" height="2.37"/><rect class="cls-1" x="144.84" y="37.55" width="2.37" height="2.37"/><rect class="cls-1" x="130.6" y="42.3" width="2.37" height="2.37"/><rect class="cls-1" x="135.35" y="42.3" width="2.37" height="2.37"/><rect class="cls-1" x="140.1" y="42.3" width="2.37" height="2.37"/><rect class="cls-1" x="144.85" y="42.3" width="2.37" height="2.37"/><rect class="cls-1" x="125.85" y="47.05" width="2.37" height="2.37"/><rect class="cls-1" x="130.6" y="47.05" width="2.37" height="2.37"/><rect class="cls-1" x="135.35" y="47.05" width="2.37" height="2.37"/><rect class="cls-1" x="140.1" y="47.05" width="2.37" height="2.37"/><rect class="cls-1" x="125.85" y="51.82" width="2.37" height="2.37"/><rect class="cls-1" x="130.6" y="51.82" width="2.37" height="2.37"/><rect class="cls-1" x="135.35" y="51.82" width="2.37" height="2.37"/><rect class="cls-1" x="135.35" y="56.57" width="2.37" height="2.37"/><rect class="cls-1" x="125.85" y="61.32" width="2.37" height="2.37"/><rect class="cls-1" x="130.6" y="61.32" width="2.37" height="2.37"/><rect class="cls-1" x="113.98" y="66.07" width="2.37" height="2.37"/><rect class="cls-1" x="109.23" y="75.57" width="2.37" height="2.37"/><rect class="cls-1" x="113.98" y="75.57" width="2.37" height="2.37"/><rect class="cls-1" x="118.73" y="75.57" width="2.37" height="2.37"/><rect class="cls-1" x="104.48" y="85.07" width="2.37" height="2.37"/><rect class="cls-1" x="109.23" y="85.07" width="2.37" height="2.37"/><rect class="cls-1" x="113.98" y="85.07" width="2.37" height="2.37"/><rect class="cls-1" x="118.73" y="85.07" width="2.37" height="2.37"/><rect class="cls-1" x="130.6" y="85.07" width="2.37" height="2.37"/><rect class="cls-1" x="135.35" y="85.07" width="2.37" height="2.37"/><rect class="cls-1" x="135.35" y="89.85" width="2.37" height="2.37"/><rect class="cls-1" x="135.35" y="94.55" width="2.37" height="2.37"/><rect class="cls-1" x="140.1" y="94.55" width="2.37" height="2.37"/><rect class="cls-1" x="140.1" y="99.25" width="2.37" height="2.37"/><rect class="cls-1" x="144.85" y="99.25" width="2.37" height="2.37"/><rect class="cls-1" x="144.85" y="94.55" width="2.37" height="2.37"/><rect class="cls-1" x="140.1" y="89.85" width="2.37" height="2.37"/><rect class="cls-1" x="144.85" y="89.85" width="2.37" height="2.37"/><rect class="cls-1" x="149.6" y="89.85" width="2.37" height="2.37"/><rect class="cls-1" x="140.1" y="85.07" width="2.37" height="2.37"/><rect class="cls-1" x="144.85" y="85.07" width="2.37" height="2.37"/><rect class="cls-1" x="149.6" y="85.07" width="2.37" height="2.37"/><rect class="cls-1" x="99.73" y="89.85" width="2.37" height="2.37"/><rect class="cls-1" x="104.48" y="89.85" width="2.37" height="2.37"/><rect class="cls-1" x="109.23" y="89.85" width="2.37" height="2.37"/><rect class="cls-1" x="113.98" y="89.85" width="2.37" height="2.37"/><rect class="cls-1" x="99.73" y="94.55" width="2.37" height="2.37"/><rect class="cls-1" x="104.48" y="94.55" width="2.37" height="2.37"/><rect class="cls-1" x="109.23" y="94.55" width="2.37" height="2.37"/><rect class="cls-1" x="113.98" y="94.55" width="2.37" height="2.37"/><rect class="cls-1" x="94.98" y="99.25" width="2.37" height="2.37"/><rect class="cls-1" x="99.73" y="99.25" width="2.37" height="2.37"/><rect class="cls-1" x="104.48" y="99.25" width="2.37" height="2.37"/><rect class="cls-1" x="109.23" y="99.25" width="2.37" height="2.37"/><rect class="cls-1" x="94.98" y="103.95" width="2.37" height="2.37"/><rect class="cls-1" x="99.73" y="103.95" width="2.37" height="2.37"/><rect class="cls-1" x="104.48" y="103.95" width="2.37" height="2.37"/><rect class="cls-1" x="90.23" y="108.7" width="2.37" height="2.37"/><rect class="cls-1" x="94.98" y="108.7" width="2.37" height="2.37"/><rect class="cls-1" x="99.73" y="108.7" width="2.37" height="2.37"/><rect class="cls-1" x="104.48" y="108.7" width="2.37" height="2.37"/><rect class="cls-1" x="75.99" y="118.19" width="2.37" height="2.37"/><rect class="cls-1" x="80.74" y="118.19" width="2.37" height="2.37"/><rect class="cls-1" x="85.48" y="118.19" width="2.37" height="2.37"/><rect class="cls-1" x="90.23" y="118.19" width="2.37" height="2.37"/><rect class="cls-1" x="94.98" y="118.19" width="2.37" height="2.37"/><rect class="cls-1" x="99.73" y="118.19" width="2.37" height="2.37"/><rect class="cls-1" x="109.23" y="118.19" width="2.37" height="2.37"/><rect class="cls-1" x="109.23" y="113.45" width="2.37" height="2.37"/><rect class="cls-1" x="113.98" y="113.45" width="2.37" height="2.37"/><rect class="cls-1" x="118.73" y="108.7" width="2.37" height="2.37"/><rect class="cls-1" x="118.73" y="103.95" width="2.37" height="2.37"/><rect class="cls-1" x="123.48" y="103.95" width="2.37" height="2.37"/><rect class="cls-1" x="128.23" y="103.95" width="2.37" height="2.37"/><rect class="cls-1" x="132.98" y="103.95" width="2.37" height="2.37"/><rect class="cls-1" x="123.48" y="99.25" width="2.37" height="2.37"/><rect class="cls-1" x="123.48" y="94.55" width="2.37" height="2.37"/><rect class="cls-1" x="128.23" y="94.55" width="2.37" height="2.37"/><rect class="cls-1" x="123.48" y="89.85" width="2.37" height="2.37"/><rect class="cls-1" x="128.23" y="89.85" width="2.37" height="2.37"/><rect class="cls-1" x="128.23" y="99.25" width="2.37" height="2.37"/><rect class="cls-1" x="132.98" y="99.25" width="2.37" height="2.37"/><rect class="cls-1" x="118.73" y="99.25" width="2.37" height="2.37"/><rect class="cls-1" x="123.48" y="108.7" width="2.37" height="2.37"/><rect class="cls-1" x="128.23" y="108.7" width="2.37" height="2.37"/><rect class="cls-1" x="132.98" y="108.7" width="2.37" height="2.37"/><rect class="cls-1" x="137.72" y="108.7" width="2.37" height="2.37"/><rect class="cls-1" x="113.98" y="108.7" width="2.37" height="2.37"/><rect class="cls-1" x="118.73" y="113.45" width="2.37" height="2.37"/><rect class="cls-1" x="123.48" y="113.45" width="2.37" height="2.37"/><rect class="cls-1" x="128.23" y="113.45" width="2.37" height="2.37"/><rect class="cls-1" x="132.98" y="113.45" width="2.37" height="2.37"/><rect class="cls-1" x="113.98" y="118.19" width="2.37" height="2.37"/><rect class="cls-1" x="118.73" y="118.19" width="2.37" height="2.37"/><rect class="cls-1" x="123.48" y="118.19" width="2.37" height="2.37"/><rect class="cls-1" x="128.23" y="118.19" width="2.37" height="2.37"/><rect class="cls-1" x="71.24" y="113.45" width="2.37" height="2.37"/><rect class="cls-1" x="75.99" y="113.45" width="2.37" height="2.37"/><rect class="cls-1" x="80.74" y="113.45" width="2.37" height="2.37"/><rect class="cls-1" x="85.48" y="113.45" width="2.37" height="2.37"/><rect class="cls-1" x="90.23" y="113.45" width="2.37" height="2.37"/><rect class="cls-1" x="94.98" y="113.45" width="2.37" height="2.37"/><rect class="cls-1" x="99.73" y="113.45" width="2.37" height="2.37"/><rect class="cls-1" x="66.49" y="108.7" width="2.37" height="2.37"/><rect class="cls-1" x="71.24" y="108.7" width="2.37" height="2.37"/><rect class="cls-1" x="61.74" y="99.25" width="2.37" height="2.37"/><rect class="cls-1" x="9.5" y="87.47" width="2.37" height="2.37"/><rect class="cls-1" x="14.25" y="89.85" width="2.37" height="2.37"/><rect class="cls-1" x="16.62" y="87.47" width="2.37" height="2.37"/><rect class="cls-1" x="33.25" y="89.85" width="2.37" height="2.37"/><rect class="cls-1" x="38" y="89.85" width="2.37" height="2.37"/><rect class="cls-1" x="42.74" y="89.85" width="2.37" height="2.37"/><rect class="cls-1" x="52.24" y="89.85" width="2.37" height="2.37"/><rect class="cls-1" x="56.99" y="89.85" width="2.37" height="2.37"/><rect class="cls-1" x="66.49" y="89.85" width="2.37" height="2.37"/><rect class="cls-1" x="71.24" y="89.85" width="2.37" height="2.37"/><rect class="cls-1" x="75.99" y="89.85" width="2.37" height="2.37"/><rect class="cls-1" x="80.74" y="89.85" width="2.37" height="2.37"/><rect class="cls-1" x="19" y="89.85" width="2.37" height="2.37"/><rect class="cls-1" x="23.75" y="85.1" width="2.37" height="2.37"/><rect class="cls-1" x="28.54" y="80.35" width="2.37" height="2.37"/><rect class="cls-1" x="28.54" y="75.6" width="2.37" height="2.37"/><rect class="cls-1" x="28.54" y="70.85" width="2.37" height="2.37"/><rect class="cls-1" x="33.3" y="66.1" width="2.37" height="2.37"/><rect class="cls-1" x="30.93" y="63.73" width="2.37" height="2.37"/><rect class="cls-1" x="32.12" y="55.38" width="2.37" height="2.37"/><rect class="cls-1" x="38.04" y="66.1" width="2.37" height="2.37"/><rect class="cls-1" x="42.77" y="66.1" width="2.37" height="2.37"/><rect class="cls-1" x="45.15" y="68.48" width="2.37" height="2.37"/><rect class="cls-1" x="33.29" y="70.85" width="2.37" height="2.37"/><rect class="cls-1" x="38.04" y="70.85" width="2.37" height="2.37"/><rect class="cls-1" x="42.79" y="70.85" width="2.37" height="2.37"/><rect class="cls-1" x="47.54" y="70.85" width="2.37" height="2.37"/><rect class="cls-1" x="33.29" y="75.6" width="2.37" height="2.37"/><rect class="cls-1" x="38.04" y="75.6" width="2.37" height="2.37"/><rect class="cls-1" x="42.79" y="75.6" width="2.37" height="2.37"/><rect class="cls-1" x="47.54" y="75.6" width="2.37" height="2.37"/><rect class="cls-1" x="33.29" y="80.35" width="2.37" height="2.37"/><rect class="cls-1" x="38.04" y="80.35" width="2.37" height="2.37"/><rect class="cls-1" x="42.79" y="80.35" width="2.37" height="2.37"/><rect class="cls-1" x="47.54" y="80.35" width="2.37" height="2.37"/><rect class="cls-1" x="52.24" y="80.35" width="2.37" height="2.37"/><rect class="cls-1" x="28.49" y="85.1" width="2.37" height="2.37"/><rect class="cls-1" x="33.24" y="85.1" width="2.37" height="2.37"/><rect class="cls-1" x="37.99" y="85.1" width="2.37" height="2.37"/><rect class="cls-1" x="42.74" y="85.1" width="2.37" height="2.37"/><rect class="cls-1" x="47.49" y="85.1" width="2.37" height="2.37"/><rect class="cls-1" x="52.24" y="85.1" width="2.37" height="2.37"/><rect class="cls-1" x="56.99" y="85.1" width="2.37" height="2.37"/><rect class="cls-1" x="61.74" y="85.1" width="2.37" height="2.37"/><rect class="cls-1" x="61.74" y="80.32" width="2.37" height="2.37"/><rect class="cls-1" x="61.74" y="47.65" width="2.37" height="2.37"/><rect class="cls-1" x="71.24" y="32.81" width="2.37" height="2.37"/><rect class="cls-1" x="66.49" y="80.35" width="2.37" height="2.37"/><rect class="cls-1" x="66.49" y="75.57" width="2.37" height="2.37"/><rect class="cls-1" x="66.49" y="70.82" width="2.37" height="2.37"/><rect class="cls-1" x="71.24" y="70.82" width="2.37" height="2.37"/><rect class="cls-1" x="71.24" y="66.07" width="2.37" height="2.37"/><rect class="cls-1" x="75.99" y="66.07" width="2.37" height="2.37"/><rect class="cls-1" x="75.99" y="56.57" width="2.37" height="2.37"/><rect class="cls-1" x="80.74" y="56.57" width="2.37" height="2.37"/><rect class="cls-1" x="80.74" y="51.82" width="2.37" height="2.37"/><rect class="cls-1" x="85.48" y="51.82" width="2.37" height="2.37"/><rect class="cls-1" x="85.49" y="47.05" width="2.37" height="2.37"/><rect class="cls-1" x="85.49" y="39.93" width="2.37" height="2.37"/><rect class="cls-1" x="88" y="37.55" width="2.37" height="2.37"/><rect class="cls-1" x="94.98" y="37.55" width="2.37" height="2.37"/><rect class="cls-1" x="94.98" y="22.12" width="2.37" height="2.37"/><rect class="cls-1" x="90.23" y="47.05" width="2.37" height="2.37"/><rect class="cls-1" x="94.96" y="47.05" width="2.37" height="2.37"/><rect class="cls-1" x="90.23" y="51.82" width="2.37" height="2.37"/><rect class="cls-1" x="94.98" y="51.82" width="2.37" height="2.37"/><rect class="cls-1" x="99.73" y="51.82" width="2.37" height="2.37"/><rect class="cls-1" x="104.48" y="51.82" width="2.37" height="2.37"/><rect class="cls-1" x="104.48" y="42.7" width="2.37" height="2.37"/><rect class="cls-1" x="85.48" y="56.57" width="2.37" height="2.37"/><rect class="cls-1" x="90.23" y="56.57" width="2.37" height="2.37"/><rect class="cls-1" x="94.98" y="56.57" width="2.37" height="2.37"/><rect class="cls-1" x="99.73" y="56.57" width="2.37" height="2.37"/><rect class="cls-1" x="104.48" y="56.57" width="2.37" height="2.37"/><rect class="cls-1" x="75.99" y="61.32" width="2.37" height="2.37"/><rect class="cls-1" x="80.74" y="61.32" width="2.37" height="2.37"/><rect class="cls-1" x="85.48" y="61.32" width="2.37" height="2.37"/><rect class="cls-1" x="90.23" y="61.32" width="2.37" height="2.37"/><rect class="cls-1" x="94.98" y="61.32" width="2.37" height="2.37"/><rect class="cls-1" x="99.73" y="61.32" width="2.37" height="2.37"/><rect class="cls-1" x="80.74" y="66.07" width="2.37" height="2.37"/><rect class="cls-1" x="85.48" y="66.07" width="2.37" height="2.37"/><rect class="cls-1" x="90.23" y="66.07" width="2.37" height="2.37"/><rect class="cls-1" x="94.98" y="66.07" width="2.37" height="2.37"/><rect class="cls-1" x="99.73" y="66.07" width="2.37" height="2.37"/><rect class="cls-1" x="75.99" y="70.82" width="2.37" height="2.37"/><rect class="cls-1" x="80.74" y="70.82" width="2.37" height="2.37"/><rect class="cls-1" x="85.48" y="70.82" width="2.37" height="2.37"/><rect class="cls-1" x="90.23" y="70.82" width="2.37" height="2.37"/><rect class="cls-1" x="94.98" y="70.82" width="2.37" height="2.37"/><rect class="cls-1" x="71.24" y="75.57" width="2.37" height="2.37"/><rect class="cls-1" x="75.99" y="75.57" width="2.37" height="2.37"/><rect class="cls-1" x="80.74" y="75.57" width="2.37" height="2.37"/><rect class="cls-1" x="85.48" y="75.57" width="2.37" height="2.37"/><rect class="cls-1" x="90.23" y="75.57" width="2.37" height="2.37"/><rect class="cls-1" x="71.24" y="80.35" width="2.37" height="2.37"/><rect class="cls-1" x="75.99" y="80.32" width="2.37" height="2.37"/><rect class="cls-1" x="80.74" y="80.35" width="2.37" height="2.37"/><rect class="cls-1" x="85.48" y="80.35" width="2.37" height="2.37"/><rect class="cls-1" x="90.23" y="80.35" width="2.37" height="2.37"/><rect class="cls-1" x="66.49" y="85.1" width="2.37" height="2.37"/><rect class="cls-1" x="71.24" y="85.1" width="2.37" height="2.37"/><rect class="cls-1" x="75.99" y="85.1" width="2.37" height="2.37"/><rect class="cls-1" x="80.74" y="85.1" width="2.37" height="2.37"/><rect class="cls-1" x="85.48" y="85.1" width="2.37" height="2.37"/><rect class="cls-1" x="85.48" y="89.85" width="2.37" height="2.37"/><rect class="cls-1" x="23.75" y="89.85" width="2.37" height="2.37"/><rect class="cls-1" x="28.49" y="89.85" width="2.37" height="2.37"/><rect class="cls-1" x="9.5" y="113.45" width="2.37" height="2.37"/><rect class="cls-1" x="14.25" y="113.45" width="2.37" height="2.37"/><rect class="cls-1" x="19" y="113.45" width="2.37" height="2.37"/><rect class="cls-1" x="23.75" y="113.45" width="2.37" height="2.37"/><rect class="cls-1" x="21.37" y="118.19" width="2.37" height="2.37"/><rect class="cls-1" x="19" y="122.93" width="2.37" height="2.37"/><rect class="cls-1" x="37.99" y="122.93" width="2.37" height="2.37"/><rect class="cls-1" x="37.99" y="118.19" width="2.37" height="2.37"/><rect class="cls-1" x="35.62" y="111.08" width="2.37" height="2.37"/><rect class="cls-1" x="42.74" y="113.45" width="2.37" height="2.37"/><rect class="cls-1" x="47.49" y="108.7" width="2.37" height="2.37"/><rect class="cls-1" x="47.49" y="103.95" width="2.37" height="2.37"/><rect class="cls-1" x="49.87" y="99.25" width="2.37" height="2.37"/><rect class="cls-1" x="52.24" y="103.95" width="2.37" height="2.37"/><rect class="cls-1" x="52.24" y="108.7" width="2.37" height="2.37"/><rect class="cls-1" x="47.49" y="113.45" width="2.37" height="2.37"/><rect class="cls-1" x="52.24" y="113.45" width="2.37" height="2.37"/><rect class="cls-1" x="56.99" y="113.45" width="2.37" height="2.37"/><rect class="cls-1" x="42.74" y="118.19" width="2.37" height="2.37"/><rect class="cls-1" x="47.49" y="118.19" width="2.37" height="2.37"/><rect class="cls-1" x="54.62" y="118.19" width="2.37" height="2.37"/><rect class="cls-1" x="59.36" y="118.19" width="2.37" height="2.37"/><rect class="cls-1" x="42.74" y="122.93" width="2.37" height="2.37"/><rect class="cls-1" x="47.49" y="122.93" width="2.37" height="2.37"/><rect class="cls-1" x="52.24" y="122.93" width="2.37" height="2.37"/><rect class="cls-1" x="56.99" y="122.93" width="2.37" height="2.37"/><rect class="cls-1" x="61.74" y="122.93" width="2.37" height="2.37"/></g></g></svg>