<svg xmlns="http://www.w3.org/2000/svg" viewBox="0 0 234.85 208.71"><defs><style>.cls-1{fill:#8ec7be;}.cls-2{fill:#f0c534;}</style></defs><title>Ресурс 4</title><g id="Слой_2" data-name="Слой 2"><g id="Layer_1" data-name="Layer 1"><polygon class="cls-1" points="102.39 0 0 208.55 208.55 208.55 102.39 0"/><polygon class="cls-2" points="146.79 52.3 144.2 57.59 149.49 57.59 146.79 52.3"/><polygon class="cls-2" points="146.8 60.42 144.2 65.71 149.49 65.71 146.8 60.42"/><polygon class="cls-2" points="146.75 71.56 141.65 81.94 152.04 81.94 146.75 71.56"/><polygon class="cls-2" points="146.8 84.77 144.2 90.06 149.49 90.06 146.8 84.77"/><polygon class="cls-2" points="149.49 98.18 146.8 92.89 144.2 98.18 149.49 98.18"/><polygon class="cls-2" points="145.3 101.01 141.26 109.24 149.49 109.24 145.3 101.01"/><polygon class="cls-2" points="158.34 113.52 155.74 118.81 161.03 118.81 158.34 113.52"/><polygon class="cls-2" points="158.34 104.64 155.74 109.93 161.03 109.93 158.34 104.64"/><polygon class="cls-2" points="158.34 88.14 155.74 93.43 161.03 93.43 158.34 88.14"/><polygon class="cls-2" points="158.34 72.65 155.74 77.94 161.03 77.94 158.34 72.65"/><polygon class="cls-2" points="144.2 122.54 153.21 122.54 148.62 113.52 144.2 122.54"/><polygon class="cls-2" points="142.74 126.41 140.14 131.7 145.43 131.7 142.74 126.41"/><polygon class="cls-2" points="143.46 138.46 138.61 148.34 148.49 148.34 143.46 138.46"/><polygon class="cls-2" points="146.8 149.72 144.2 155.01 149.49 155.01 146.8 149.72"/><polygon class="cls-2" points="149.49 179.37 144.73 170.02 140.14 179.37 149.49 179.37"/><polygon class="cls-2" points="149.49 187.48 146.8 182.19 144.2 187.48 149.49 187.48"/><polygon class="cls-2" points="172.12 197.49 169.42 192.2 166.82 197.49 172.12 197.49"/><polygon class="cls-2" points="146.8 190.31 144.2 195.6 149.49 195.6 146.8 190.31"/><polygon class="cls-2" points="188.41 112.83 185.81 118.13 191.1 118.13 188.41 112.83"/><polygon class="cls-2" points="197.88 208.53 203.17 208.53 200.48 203.25 197.88 208.53"/><polygon class="cls-2" points="200.48 193.65 197.88 198.94 203.17 198.94 200.48 193.65"/><polygon class="cls-2" points="229.56 208.53 234.85 208.53 232.16 203.25 229.56 208.53"/><polygon class="cls-2" points="200.48 184.06 197.88 189.35 203.17 189.35 200.48 184.06"/><polygon class="cls-2" points="200.48 174.47 197.88 179.76 203.17 179.76 200.48 174.47"/><polygon class="cls-2" points="200.48 164.88 197.88 170.17 203.17 170.17 200.48 164.88"/><polygon class="cls-2" points="200.48 155.28 197.88 160.57 203.17 160.57 200.48 155.28"/><polygon class="cls-2" points="200.48 145.69 197.88 150.98 203.17 150.98 200.48 145.69"/><polygon class="cls-2" points="179.42 109.42 176.82 114.71 182.11 114.71 179.42 109.42"/><polygon class="cls-2" points="146.8 198.43 144.2 203.72 149.49 203.72 146.8 198.43"/><polygon class="cls-2" points="105.17 134.15 102.57 139.44 107.86 139.44 105.17 134.15"/><polygon class="cls-2" points="105.17 118.13 102.57 123.42 107.86 123.42 105.17 118.13"/><polygon class="cls-2" points="132.66 208.53 137.95 208.53 135.26 203.25 132.66 208.53"/><polygon class="cls-2" points="135.26 192.2 132.66 197.49 137.95 197.49 135.26 192.2"/><polygon class="cls-2" points="135.26 181.16 132.66 186.45 137.95 186.45 135.26 181.16"/><polygon class="cls-2" points="135.26 170.12 132.66 175.41 137.95 175.41 135.26 170.12"/><polygon class="cls-2" points="135.26 159.07 132.66 164.37 137.95 164.37 135.26 159.07"/><polygon class="cls-2" points="102.57 208.53 107.86 208.53 105.17 203.25 102.57 208.53"/><polygon class="cls-2" points="135.26 135.72 132.66 141.01 137.95 141.01 135.26 135.72"/><polygon class="cls-2" points="89.84 119.94 87.24 125.23 92.53 125.23 89.84 119.94"/><polygon class="cls-2" points="74.55 208.53 79.84 208.53 77.15 203.25 74.55 208.53"/><polygon class="cls-2" points="77.15 194.85 74.55 200.14 79.84 200.14 77.15 194.85"/><polygon class="cls-2" points="77.15 186.45 74.55 191.74 79.84 191.74 77.15 186.45"/><polygon class="cls-2" points="77.15 178.05 74.55 183.34 79.84 183.34 77.15 178.05"/><polygon class="cls-2" points="77.15 169.66 74.55 174.95 79.84 174.95 77.15 169.66"/><polygon class="cls-2" points="77.15 152.34 74.55 157.63 79.84 157.63 77.15 152.34"/><polygon class="cls-2" points="119.01 54.94 116.41 60.23 121.7 60.23 119.01 54.94"/><polygon class="cls-2" points="105.17 95.54 102.57 100.83 107.86 100.83 105.17 95.54"/><polygon class="cls-2" points="135.26 112.36 132.66 117.65 137.95 117.65 135.26 112.36"/><polygon class="cls-2" points="135.26 89 132.66 94.29 137.95 94.29 135.26 89"/><polygon class="cls-2" points="135.26 67.29 132.66 72.58 137.95 72.58 135.26 67.29"/><polygon class="cls-2" points="69.45 198.94 66.85 204.24 72.14 204.24 69.45 198.94"/><polygon class="cls-2" points="69.45 186.71 66.85 192 72.14 192 69.45 186.71"/><polygon class="cls-2" points="158.31 200.34 154.29 208.54 162.48 208.54 158.31 200.34"/><polygon class="cls-2" points="169.85 200.34 165.83 208.54 174.02 208.54 169.85 200.34"/><polygon class="cls-2" points="169.39 182.06 165.37 190.25 173.56 190.25 169.39 182.06"/><polygon class="cls-2" points="169.39 169.03 165.37 177.22 173.56 177.22 169.39 169.03"/><polygon class="cls-2" points="169.39 156 165.37 164.19 173.56 164.19 169.39 156"/><polygon class="cls-2" points="169.39 142.97 165.37 151.16 173.56 151.16 169.39 142.97"/><polygon class="cls-2" points="169.39 129.94 165.37 138.13 173.56 138.13 169.39 129.94"/><polygon class="cls-2" points="169.39 116.91 165.37 125.1 173.56 125.1 169.39 116.91"/><polygon class="cls-2" points="179.39 194.08 175.37 202.27 183.56 202.27 179.39 194.08"/><polygon class="cls-2" points="105.14 192.2 101.12 200.39 109.31 200.39 105.14 192.2"/><polygon class="cls-2" points="105.14 180.1 101.12 188.29 109.31 188.29 105.14 180.1"/><polygon class="cls-2" points="105.14 168 101.12 176.19 109.31 176.19 105.14 168"/><polygon class="cls-2" points="105.14 155.9 101.12 164.09 109.31 164.09 105.14 155.9"/><polygon class="cls-2" points="105.14 143.79 101.12 151.99 109.31 151.99 105.14 143.79"/><polygon class="cls-2" points="209.01 200.34 204.99 208.54 213.18 208.54 209.01 200.34"/><polygon class="cls-2" points="209.01 190.22 204.99 198.41 213.18 198.41 209.01 190.22"/><polygon class="cls-2" points="209.01 180.1 204.99 188.29 213.18 188.29 209.01 180.1"/><polygon class="cls-2" points="209.01 169.98 204.99 178.17 213.18 178.17 209.01 169.98"/><polygon class="cls-2" points="209.01 159.86 204.99 168.05 213.18 168.05 209.01 159.86"/><polygon class="cls-2" points="179.39 174.85 175.37 183.04 183.56 183.04 179.39 174.85"/><polygon class="cls-2" points="179.39 157.87 175.37 166.07 183.56 166.07 179.39 157.87"/><polygon class="cls-2" points="179.39 140.88 175.37 149.07 183.56 149.07 179.39 140.88"/><polygon class="cls-2" points="179.39 122.31 175.37 130.5 183.56 130.5 179.39 122.31"/><polygon class="cls-2" points="169.39 103.88 165.37 112.07 173.56 112.07 169.39 103.88"/><polygon class="cls-2" points="169.39 90.85 165.37 99.04 173.56 99.04 169.39 90.85"/><polygon class="cls-2" points="164.82 198.18 158.27 185.31 151.95 198.18 164.82 198.18"/><polygon class="cls-2" points="164.82 182.2 158.27 169.33 151.95 182.2 164.82 182.2"/><polygon class="cls-2" points="121.59 195.84 115.27 208.71 128.14 208.71 121.59 195.84"/><polygon class="cls-2" points="60.18 195.84 53.86 208.71 66.73 208.71 60.18 195.84"/><polygon class="cls-2" points="121.59 178.28 115.27 191.15 128.14 191.15 121.59 178.28"/><polygon class="cls-2" points="121.59 160.72 115.27 173.58 128.14 173.58 121.59 160.72"/><polygon class="cls-2" points="90.27 195.84 83.95 208.71 96.82 208.71 90.27 195.84"/><polygon class="cls-2" points="90.27 179 83.95 191.87 96.82 191.87 90.27 179"/><polygon class="cls-2" points="90.27 162.17 83.95 175.03 96.82 175.03 90.27 162.17"/><polygon class="cls-2" points="90.27 145.33 83.95 158.2 96.82 158.2 90.27 145.33"/><polygon class="cls-2" points="121.59 143.16 115.27 156.02 128.14 156.02 121.59 143.16"/><polygon class="cls-2" points="121.59 125.59 115.27 138.46 128.14 138.46 121.59 125.59"/><polygon class="cls-2" points="121.59 89.1 115.27 101.97 128.14 101.97 121.59 89.1"/><polygon class="cls-2" points="164.82 166.23 158.27 153.36 151.95 166.23 164.82 166.23"/><polygon class="cls-2" points="158.27 137.38 151.95 150.25 164.82 150.25 158.27 137.38"/><polygon class="cls-2" points="151.95 134.28 164.82 134.28 158.27 121.41 151.95 134.28"/><polygon class="cls-2" points="188.46 195.67 182.14 208.54 195.01 208.54 188.46 195.67"/><polygon class="cls-2" points="182.02 191.26 194.89 191.26 188.34 178.39 182.02 191.26"/><polygon class="cls-2" points="181.9 173.99 194.77 173.99 188.22 161.12 181.9 173.99"/><polygon class="cls-2" points="221.55 195.67 215.23 208.54 228.1 208.54 221.55 195.67"/><polygon class="cls-2" points="220.16 178.87 213.84 191.74 226.71 191.74 220.16 178.87"/><polygon class="cls-2" points="181.79 156.71 194.65 156.71 188.1 143.85 181.79 156.71"/><polygon class="cls-2" points="181.67 139.44 194.54 139.44 187.99 126.57 181.67 139.44"/></g></g></svg>