<svg xmlns="http://www.w3.org/2000/svg" viewBox="0 0 141.74 258.65"><defs><style>.cls-1{fill:#56308d;}</style></defs><title>Ресурс 4</title><g id="Слой_2" data-name="Слой 2"><g id="Layer_1" data-name="Layer 1"><path class="cls-1" d="M40.16,258l92-54.17c6.22-3.42,9.7-9.25,9.6-15.94a18,18,0,0,0-9.57-15.65L88.83,147l32.44-19c7.36-4,11.56-10.58,11.56-18.12v-.11a21.23,21.23,0,0,0-11.52-18.57l-35.86-21,18.34-10.8c4.37-2.81,6.79-6.66,6.63-10.54-.15-3.73-2.54-7-6.69-9.23L40.27,2.51c-5.3-3-11.05-3.33-15-.94a8.33,8.33,0,0,0-4.14,7.5c.1,3.73,2.51,11.19,17.64,19.32L77.8,50.72c2.89,1.6,4.56,3.75,4.58,5.9s-1.61,4.35-4.6,6.09l-2.56,1.47-35-20.44c-2.19-1.13-5.36-2.45-7.6-.78-1.46,1.09-2,3.1-2,6,0,4,1.07,9.61,2.45,16.93,1.12,5.92,2.45,13,3.45,20.65-7.18,5.09-11.07,10.34-11.56,15.65L7.28,112.6c-4.7,3-7.28,6.75-7.28,10.62v.22c.07,2.66,1.4,6.55,7.32,9.92l26.12,15.39-.06.29c-2.87,16.75-4.08,24.92-.31,27.48,2.56,1.74,6.07-.39,7.24-1.1l19.23-11.29,46.67,27.5.1.05c3.39,1.68,5.42,4.17,5.57,6.82.15,2.88-1.88,5.8-5.67,8.23L38.82,246.24c-6.36,3.25-7.24,7.25-6.06,9.68S37.24,259.38,40.16,258ZM119.82,93.8a18.18,18.18,0,0,1,9.93,15.89v.1c0,6.37-3.62,12-10,15.44l-34,19.94L40.64,118.79c.23-3.06.38-6.12.42-9.17.06-4.44-.11-8.82-.43-13.08l41.78-24.6Zm-83,53.37c1.29-7.56,2.69-16.17,3.52-25L82.74,147,59.55,160.56Zm3.45-59.46,34.92-20,4.17,2.44-39,23c-.16-1.73-.35-3.43-.55-5.11Zm39-22.33c4-2.31,6.14-5.4,6.14-8.71v-.09c0-3.33-2.23-6.37-6.15-8.54L40.24,25.69C30.32,20.36,24.32,14.12,24.19,9a5.19,5.19,0,0,1,2.65-4.79c2.37-1.43,6.74-1.92,11.9,1l63.49,37.09c3.19,1.71,5,4.08,5.11,6.68,0,.07,0,.15,0,.23,0,2.69-1.89,5.45-5.18,7.56L82.41,68.38,78.28,66Zm-43.25,0c-1.72-9.09-3.5-18.49-1.6-19.91.22-.16,1.2-.58,4.28,1l33.38,19.5L39.36,84.69C38.37,77.51,37.13,70.93,36.07,65.34Zm.85,24.71c.18,1.59.34,3.19.48,4.82l-8.88,5.23C29.64,96.79,32.46,93.42,36.92,90.05Zm.74,8.24c.25,3.7.37,7.48.32,11.29,0,2.43-.14,4.87-.3,7.31-6.15-4.25-9.42-8.58-9.7-12.9ZM8.87,130.7c-3.72-2.12-5.72-4.65-5.79-7.34s2-5.72,5.81-8.13l16.2-9.54c1,5.11,5.09,10,12.33,14.72-.76,8.79-2.13,17.44-3.43,25.09Zm29.87,42.07h0C36,174.47,35,174.12,34.8,174c-2.23-1.52-.32-13.06,1.47-23.55l20.24,11.92Zm-3.21,81.8c-.6-1.23.61-3.51,4.77-5.63l67.52-39.59c4.82-3.08,7.35-7,7.13-11-.21-3.78-2.84-7.19-7.23-9.38l-45.14-26.6,23.21-13.62L130.7,175a14.91,14.91,0,0,1,8,13c.11,5.5-2.82,10.33-8,13.2L38.81,255.26C37.31,255.92,36,255.43,35.53,254.57Z"/></g></g></svg>