<svg xmlns="http://www.w3.org/2000/svg" viewBox="0 0 454.39 76.01"><defs><style>.cls-1{fill:#fff;}</style></defs><title>Ресурс 6</title><g id="Слой_2" data-name="Слой 2"><g id="Layer_1" data-name="Layer 1"><polygon class="cls-1" points="334.84 63.42 328.74 75.86 341.18 75.86 334.84 63.42"/><polygon class="cls-1" points="423.04 63.5 416.93 75.94 429.37 75.94 423.04 63.5"/><polygon class="cls-1" points="377.12 69.6 374 75.94 380.34 75.94 377.12 69.6"/><polygon class="cls-1" points="340.93 59.31 338.87 55.26 336.87 59.31 340.93 59.31"/><polygon class="cls-1" points="382.37 44.59 380.31 40.54 378.31 44.59 382.37 44.59"/><polygon class="cls-1" points="114.37 49.65 112.31 45.59 110.31 49.65 114.37 49.65"/><polygon class="cls-1" points="129.06 61.89 127 57.84 125.01 61.89 129.06 61.89"/><polygon class="cls-1" points="350.07 58.84 346.96 65.18 353.3 65.18 350.07 58.84"/><polygon class="cls-1" points="76.81 51.41 73.7 57.75 80.04 57.75 76.81 51.41"/><polygon class="cls-1" points="138.44 41.03 135.33 47.37 141.67 47.37 138.44 41.03"/><polygon class="cls-1" points="423.09 24.83 419.98 31.17 426.32 31.17 423.09 24.83"/><polygon class="cls-1" points="349.85 68.63 346.25 75.98 353.59 75.98 349.85 68.63"/><polygon class="cls-1" points="407.04 62.01 403.93 68.34 410.27 68.34 407.04 62.01"/><polygon class="cls-1" points="451.16 69.6 448.05 75.94 454.39 75.94 451.16 69.6"/><polygon class="cls-1" points="287.92 66.49 283.27 75.95 292.74 75.95 287.92 66.49"/><polygon class="cls-1" points="97.62 50.17 92.98 59.63 102.44 59.63 97.62 50.17"/><polygon class="cls-1" points="322.43 59.87 319.31 66.2 325.65 66.2 322.43 59.87"/><polygon class="cls-1" points="356.34 39.4 353.23 45.74 359.57 45.74 356.34 39.4"/><polygon class="cls-1" points="363.32 66.13 358.5 75.94 368.31 75.94 363.32 66.13"/><polygon class="cls-1" points="307.59 57.42 298.48 75.98 317.04 75.98 307.59 57.42"/><polygon class="cls-1" points="393.44 39.27 385.87 54.68 401.28 54.68 393.44 39.27"/><polygon class="cls-1" points="365.75 1.09 358.19 16.5 373.6 16.5 365.75 1.09"/><polygon class="cls-1" points="393.44 60.57 385.87 75.98 401.28 75.98 393.44 60.57"/><polygon class="cls-1" points="416.67 48.24 419.78 54.58 413.44 54.58 416.67 48.24"/><polygon class="cls-1" points="257.55 71.48 259.74 75.95 255.27 75.95 257.55 71.48"/><polygon class="cls-1" points="158.7 71.48 160.9 75.95 156.43 75.95 158.7 71.48"/><polygon class="cls-1" points="431.64 52.66 433.84 57.14 429.37 57.14 431.64 52.66"/><polygon class="cls-1" points="449.38 50.42 451.57 54.9 447.1 54.9 449.38 50.42"/><polygon class="cls-1" points="270.63 71.48 272.83 75.95 268.36 75.95 270.63 71.48"/><polygon class="cls-1" points="435.35 72.22 437.19 75.98 433.43 75.98 435.35 72.22"/><polygon class="cls-1" points="242.21 69.64 245.32 75.98 238.98 75.98 242.21 69.64"/><polygon class="cls-1" points="35.38 60.37 38.49 66.71 32.15 66.71 35.38 60.37"/><polygon class="cls-1" points="175.34 69.64 178.45 75.98 172.12 75.98 175.34 69.64"/><polygon class="cls-1" points="193.19 65.83 198.19 76.01 188.01 76.01 193.19 65.83"/><polygon class="cls-1" points="372.22 49.45 378.33 61.89 365.89 61.89 372.22 49.45"/><polygon class="cls-1" points="162 44.2 168.1 56.63 155.66 56.63 162 44.2"/><polygon class="cls-1" points="8.23 48.68 14.34 61.12 1.9 61.12 8.23 48.68"/><polygon class="cls-1" points="329.1 33.05 335.21 45.49 322.77 45.49 329.1 33.05"/><polygon class="cls-1" points="138.15 63.54 144.26 75.98 131.82 75.98 138.15 63.54"/><polygon class="cls-1" points="211.71 47.62 214.94 41.28 218.05 47.62 211.71 47.62"/><polygon class="cls-1" points="0 75.98 3.23 69.64 6.34 75.98 0 75.98"/><polygon class="cls-1" points="97.77 69.64 100.88 75.98 94.54 75.98 97.77 69.64"/><polygon class="cls-1" points="270.13 55.67 273.24 62.01 266.9 62.01 270.13 55.67"/><polygon class="cls-1" points="292.8 51.45 295.91 57.78 289.57 57.78 292.8 51.45"/><polygon class="cls-1" points="260.75 58.84 265.29 68.1 256.04 68.1 260.75 58.84"/><polygon class="cls-1" points="23.69 66.52 28.23 75.78 18.98 75.78 23.69 66.52"/><polygon class="cls-1" points="186.04 51.45 189.16 57.78 182.82 57.78 186.04 51.45"/><polygon class="cls-1" points="244.13 46.91 251.69 62.32 236.28 62.32 244.13 46.91"/><polygon class="cls-1" points="230.09 46.65 231.94 50.41 228.18 50.41 230.09 46.65"/><polygon class="cls-1" points="222.12 58.25 223.97 62.01 220.21 62.01 222.12 58.25"/><polygon class="cls-1" points="122.14 71.97 123.99 75.74 120.23 75.74 122.14 71.97"/><polygon class="cls-1" points="260.48 35.51 262.33 39.27 258.57 39.27 260.48 35.51"/><polygon class="cls-1" points="149.08 61.66 150.93 65.42 147.16 65.42 149.08 61.66"/><polygon class="cls-1" points="12.14 66.21 13.98 69.98 10.22 69.98 12.14 66.21"/><polygon class="cls-1" points="80.07 71.97 81.92 75.74 78.15 75.74 80.07 71.97"/><polygon class="cls-1" points="417.06 61.91 418.9 65.67 415.14 65.67 417.06 61.91"/><polygon class="cls-1" points="449.37 29.29 451.22 33.05 447.45 33.05 449.37 29.29"/><polygon class="cls-1" points="424.47 40.69 426.32 44.45 422.55 44.45 424.47 40.69"/><polygon class="cls-1" points="18.95 42.57 17.1 38.8 20.86 38.8 18.95 42.57"/><polygon class="cls-1" points="202.64 24.92 204.49 28.68 200.72 28.68 202.64 24.92"/><polygon class="cls-1" points="447.13 0 448.98 3.76 445.22 3.76 447.13 0"/><polygon class="cls-1" points="213.48 54.61 223.97 75.98 202.6 75.98 213.48 54.61"/><polygon class="cls-1" points="59.1 11.68 69.59 33.05 48.23 33.05 59.1 11.68"/><polygon class="cls-1" points="51.34 54.49 61.83 75.86 40.46 75.86 51.34 54.49"/></g></g></svg>